# Blender 5.0.1
# www.blender.org
mtllib rat.mtl
o Plane
v -0.490570 0.730700 -0.000000
v -0.506357 -1.031573 -0.000000
v 0.064330 0.762273 0.000000
v 0.001183 -1.015787 0.000000
v 0.443210 0.677592 0.000000
v 0.348490 -0.994252 0.000000
v 0.822091 0.488152 0.000000
v 0.758944 -0.899532 0.000000
v 1.106251 -0.016096 0.000000
v 1.066067 -0.681678 0.000000
v -1.090465 0.414966 -0.000000
v -1.058891 -1.015787 -0.000000
v -1.674572 0.037012 -0.000000
v -1.721932 -0.905280 -0.000000
v -0.845587 -0.077215 -0.935066
v 0.305972 -0.011459 -0.952711
v 0.651013 -0.050732 -0.911855
v -0.067376 0.017812 -0.953815
v 1.151334 -0.446949 0.000000
v -0.436203 -0.013735 -0.951160
v -1.903479 -0.552534 -0.000000
v -0.488216 0.645929 -0.399151
v -0.505597 -1.019604 -0.403806
v 0.046353 0.685512 -0.403806
v -0.014612 -1.006206 -0.403805
v 0.445256 0.603923 -0.403805
v 0.357133 -0.978299 -0.403805
v 0.811046 0.404588 -0.403805
v 0.744762 -0.888362 -0.403805
v 1.084059 -0.016157 -0.403806
v 0.929218 -0.754296 -0.374919
v -1.054063 0.403323 -0.356816
v -1.056193 -0.998712 -0.400829
v -1.563948 0.014547 -0.340646
v -1.653821 -0.877271 -0.366649
v 0.384044 0.293588 -0.882705
v -0.055071 -0.806473 -0.876638
v -0.008477 0.347908 -0.883068
v -0.465803 -0.818028 -0.876247
v 1.051920 -0.442447 -0.418884
v -0.453153 0.293639 -0.882195
v -1.786920 -0.529743 -0.342324
v -0.446562 0.489790 -0.721807
v -0.460928 -0.920555 -0.725914
v 0.025878 0.526545 -0.726493
v -0.027230 -0.908028 -0.725948
v 0.448439 0.464093 -0.726478
v 0.374956 -0.875987 -0.725936
v 0.728566 0.294184 -0.671690
v 0.634610 -0.821108 -0.674598
v 0.980124 -0.032253 -0.643523
v 0.866639 -0.683778 -0.586592
v -0.934333 0.292533 -0.676794
v -0.936588 -0.902501 -0.717806
v -1.399863 -0.039135 -0.639427
v -1.437969 -0.797576 -0.646503
v 0.979553 -0.394998 -0.585337
v -1.588961 -0.498085 -0.637008
v 0.333669 -0.775412 -0.876343
v 0.685856 0.137387 -0.828240
v 0.599076 -0.749059 -0.766781
v 0.842882 -0.051749 -0.780814
v 0.752532 -0.631720 -0.753330
v -0.883217 0.127539 -0.869475
v -0.899848 -0.802642 -0.870481
v -1.170643 -0.103468 -0.826892
v -1.187931 -0.706675 -0.823791
v -0.458439 -0.330276 -0.964740
v -0.086472 -0.310381 -0.966392
v 0.273918 -0.321422 -0.965345
v 0.564934 -0.363171 -0.875479
v 0.823539 -0.387350 -0.761807
v -0.867263 -0.391032 -0.940051
v -1.297830 -0.438055 -0.827839
v -0.849182 -0.639314 -0.929528
v -0.080857 -0.593291 -0.943152
v -0.460872 -0.607240 -0.942755
v 0.270930 -0.578748 -0.942515
v 0.571816 -0.593227 -0.854399
v 1.133891 -0.477729 -0.139133
v 1.062051 -0.641953 -0.092652
v 1.265343 -0.857829 0.000000
v 1.415403 -0.388752 0.000000
v 1.403021 -0.510895 -0.176448
v 1.341675 -0.715139 -0.175788
v 1.600022 -0.888589 0.000000
v 1.680715 -0.443353 0.000000
v 1.637096 -0.551969 -0.180347
v 1.601580 -0.749491 -0.179055
v 1.828864 -0.868851 0.000000
v 1.871564 -0.500066 0.000000
v 1.847636 -0.595047 -0.175106
v 1.827094 -0.757117 -0.174077
v 2.030368 -0.831370 0.000000
v 2.057793 -0.594507 0.000000
v 2.037257 -0.652590 -0.132941
v 2.026366 -0.750509 -0.132377
v 2.198896 -0.707248 0.000000
v 1.090523 -0.736425 0.000000
v 1.161492 -0.658467 -0.156879
v 1.243675 -0.400561 0.000000
v 1.235027 -0.485797 -0.156754
v 0.994669 -0.747358 -0.140508
v 1.010468 -0.731881 0.000000
v 1.039208 -0.701602 0.000000
v 1.032212 -0.682890 -0.115390
v 1.133569 -0.241955 0.000000
v 1.090257 -0.457846 -0.260699
v 1.040100 -0.604967 -0.220127
v 1.099812 -0.336232 -0.196590
v -0.845587 -0.077215 0.935066
v 0.305972 -0.011459 0.952711
v 0.651013 -0.050732 0.911855
v -0.067376 0.017812 0.953815
v -0.436203 -0.013735 0.951160
v -0.488216 0.645929 0.399151
v -0.505597 -1.019604 0.403805
v 0.046353 0.685512 0.403806
v -0.014612 -1.006206 0.403805
v 0.445256 0.603923 0.403806
v 0.357133 -0.978299 0.403806
v 0.811046 0.404588 0.403806
v 0.744762 -0.888362 0.403806
v 1.084059 -0.016157 0.403806
v 0.929218 -0.754296 0.374919
v -1.054063 0.403323 0.356816
v -1.056193 -0.998712 0.400829
v -1.563948 0.014547 0.340646
v -1.653821 -0.877271 0.366649
v 0.384044 0.293588 0.882705
v -0.055071 -0.806473 0.876638
v -0.008477 0.347908 0.883068
v -0.465803 -0.818028 0.876247
v 1.051920 -0.442447 0.418884
v -0.453153 0.293639 0.882195
v -1.786920 -0.529743 0.342324
v -0.446563 0.489790 0.721807
v -0.460928 -0.920555 0.725914
v 0.025878 0.526545 0.726493
v -0.027230 -0.908028 0.725948
v 0.448439 0.464093 0.726478
v 0.374956 -0.875987 0.725936
v 0.728566 0.294184 0.671690
v 0.634610 -0.821108 0.674598
v 0.980124 -0.032253 0.643524
v 0.866639 -0.683778 0.586592
v -0.934333 0.292533 0.676794
v -0.936588 -0.902501 0.717806
v -1.399863 -0.039135 0.639426
v -1.437969 -0.797576 0.646503
v 0.979553 -0.394998 0.585337
v -1.588961 -0.498085 0.637008
v 0.333669 -0.775412 0.876343
v 0.685855 0.137387 0.828240
v 0.599076 -0.749059 0.766781
v 0.842882 -0.051749 0.780814
v 0.752532 -0.631720 0.753330
v -0.883217 0.127539 0.869475
v -0.899848 -0.802642 0.870481
v -1.170643 -0.103468 0.826892
v -1.187931 -0.706675 0.823791
v -0.458440 -0.330276 0.964740
v -0.086473 -0.310381 0.966392
v 0.273918 -0.321422 0.965345
v 0.564934 -0.363171 0.875479
v 0.823539 -0.387350 0.761807
v -0.867263 -0.391032 0.940051
v -1.297830 -0.438055 0.827839
v -0.849182 -0.639314 0.929528
v -0.080857 -0.593291 0.943152
v -0.460873 -0.607240 0.942755
v 0.270930 -0.578748 0.942515
v 0.571816 -0.593227 0.854399
v 1.133891 -0.477729 0.139133
v 1.062051 -0.641953 0.092652
v 1.403021 -0.510895 0.176448
v 1.341675 -0.715139 0.175788
v 1.637096 -0.551969 0.180347
v 1.601580 -0.749491 0.179055
v 1.847636 -0.595047 0.175106
v 1.827094 -0.757117 0.174077
v 2.037257 -0.652590 0.132941
v 2.026366 -0.750509 0.132377
v 1.161492 -0.658467 0.156880
v 1.235027 -0.485797 0.156754
v 0.994669 -0.747358 0.140508
v 1.032212 -0.682890 0.115390
v 1.090257 -0.457846 0.260699
v 1.040100 -0.604967 0.220127
v 1.099812 -0.336232 0.196591
vn -0.2507 0.9681 -0.0000
vn -0.0021 -1.0000 -0.0000
vn 0.0749 0.9972 -0.0000
vn 0.0494 -0.9988 -0.0000
vn 0.3338 0.9426 -0.0000
vn 0.1461 -0.9893 -0.0000
vn 0.6708 0.7417 -0.0000
vn 0.3963 -0.9181 -0.0000
vn 0.9633 0.2684 -0.0000
vn 0.0544 -0.8919 -0.4490
vn -0.5105 0.8599 -0.0000
vn -0.1085 -0.9941 -0.0000
vn -0.7989 0.6015 -0.0000
vn -0.6402 -0.7682 -0.0000
vn -0.1816 0.1433 -0.9729
vn 0.1056 0.1066 -0.9887
vn 0.3576 0.0605 -0.9319
vn -0.0027 0.1318 -0.9913
vn 0.5248 0.7125 -0.4658
vn -0.0474 0.1364 -0.9895
vn -0.9995 -0.0317 -0.0000
vn -0.2455 0.9195 -0.3069
vn -0.0056 -0.9862 -0.1656
vn 0.0574 0.9487 -0.3111
vn 0.0500 -0.9854 -0.1628
vn 0.3263 0.8976 -0.2963
vn 0.1497 -0.9746 -0.1666
vn 0.6681 0.6941 -0.2681
vn 0.4223 -0.8810 -0.2133
vn 0.9304 0.2557 -0.2628
vn 0.7332 -0.6240 -0.2702
vn -0.4924 0.8199 -0.2920
vn -0.1304 -0.9692 -0.2088
vn -0.7353 0.5779 -0.3541
vn -0.6000 -0.7136 -0.3615
vn 0.1990 0.4435 -0.8739
vn 0.0306 -0.5988 -0.8003
vn 0.0040 0.4615 -0.8871
vn -0.0063 -0.6042 -0.7968
vn 0.9279 -0.2107 -0.3075
vn -0.1385 0.4687 -0.8724
vn -0.9035 -0.0058 -0.4285
vn -0.2017 0.7782 -0.5947
vn -0.0055 -0.9017 -0.4324
vn 0.0304 0.7980 -0.6018
vn 0.0487 -0.8999 -0.4333
vn 0.3120 0.7464 -0.5879
vn 0.1806 -0.8689 -0.4609
vn 0.5889 0.5959 -0.5460
vn 0.4078 -0.7749 -0.4830
vn 0.8089 0.2064 -0.5505
vn 0.7063 -0.4939 -0.5072
vn -0.4283 0.7018 -0.5692
vn -0.1438 -0.8634 -0.4835
vn -0.6307 0.4750 -0.6136
vn -0.4746 -0.5965 -0.6473
vn 0.8304 -0.1864 -0.5250
vn -0.7207 0.0064 -0.6932
vn 0.1861 -0.5615 -0.8063
vn 0.4672 0.3820 -0.7974
vn 0.3952 -0.5561 -0.7312
vn 0.6343 0.1178 -0.7641
vn 0.5607 -0.3584 -0.7464
vn -0.3099 0.4440 -0.8407
vn -0.1503 -0.5727 -0.8058
vn -0.4397 0.2977 -0.8474
vn -0.3432 -0.3963 -0.8516
vn -0.0264 -0.0162 -0.9995
vn -0.0002 -0.0197 -0.9998
vn 0.1156 -0.0497 -0.9921
vn 0.3343 -0.1040 -0.9367
vn 0.6096 -0.1615 -0.7760
vn -0.1662 -0.0110 -0.9860
vn -0.4484 0.0068 -0.8938
vn -0.1264 -0.1849 -0.9746
vn 0.0080 -0.1934 -0.9811
vn -0.0118 -0.1887 -0.9820
vn 0.1412 -0.1937 -0.9709
vn 0.3540 -0.2159 -0.9100
vn 0.6441 0.2263 -0.7307
vn 0.3383 -0.6782 -0.6523
vn -0.2700 -0.8083 -0.5232
vn 0.0813 0.8636 -0.4976
vn 0.0149 0.4795 -0.8774
vn -0.1549 -0.4142 -0.8969
vn -0.0323 -0.8508 -0.5245
vn 0.1883 0.8427 -0.5045
vn 0.1055 0.4683 -0.8772
vn -0.0166 -0.4539 -0.8909
vn 0.0881 -0.8553 -0.5106
vn 0.2931 0.8227 -0.4871
vn 0.2295 0.4611 -0.8572
vn 0.1077 -0.4726 -0.8746
vn 0.3263 -0.8149 -0.4790
vn 0.4607 0.7514 -0.4724
vn 0.4816 0.3875 -0.7861
vn 0.3869 -0.4676 -0.7948
vn 0.8568 -0.0265 -0.5150
vn -0.5173 -0.7053 -0.4848
vn -0.3762 -0.3171 -0.8706
vn -0.0928 0.8807 -0.4644
vn -0.1802 0.5392 -0.8227
vn 0.7393 -0.6608 -0.1292
vn 0.7173 -0.6967 -0.0000
vn 0.8027 -0.5964 -0.0000
vn 0.8415 -0.4971 -0.2117
vn 0.9990 0.0447 -0.0000
vn 0.9561 -0.1833 -0.2288
vn 0.8669 -0.4105 -0.2827
vn 0.9824 0.0582 -0.1776
vn -0.1816 0.1433 0.9729
vn 0.1056 0.1066 0.9887
vn 0.3576 0.0605 0.9319
vn -0.0027 0.1318 0.9913
vn -0.0474 0.1364 0.9895
vn -0.2455 0.9195 0.3069
vn -0.0056 -0.9862 0.1656
vn 0.0574 0.9487 0.3111
vn 0.0500 -0.9854 0.1628
vn 0.3263 0.8976 0.2963
vn 0.1497 -0.9746 0.1666
vn 0.6681 0.6941 0.2681
vn 0.4223 -0.8810 0.2133
vn 0.9304 0.2557 0.2628
vn 0.7332 -0.6240 0.2702
vn -0.4924 0.8199 0.2920
vn -0.1304 -0.9692 0.2088
vn -0.7353 0.5779 0.3541
vn -0.6000 -0.7136 0.3615
vn 0.1990 0.4435 0.8739
vn 0.0306 -0.5988 0.8003
vn 0.0040 0.4615 0.8871
vn -0.0063 -0.6042 0.7968
vn 0.9279 -0.2107 0.3075
vn -0.1385 0.4687 0.8724
vn -0.9035 -0.0058 0.4285
vn -0.2017 0.7782 0.5947
vn -0.0055 -0.9017 0.4324
vn 0.0304 0.7980 0.6018
vn 0.0487 -0.8999 0.4333
vn 0.3120 0.7464 0.5879
vn 0.1806 -0.8689 0.4609
vn 0.5889 0.5959 0.5460
vn 0.4078 -0.7749 0.4830
vn 0.8089 0.2064 0.5505
vn 0.7063 -0.4939 0.5072
vn -0.4283 0.7018 0.5692
vn -0.1438 -0.8634 0.4835
vn -0.6307 0.4750 0.6136
vn -0.4746 -0.5965 0.6473
vn 0.8304 -0.1864 0.5250
vn -0.7207 0.0064 0.6932
vn 0.1861 -0.5615 0.8063
vn 0.4672 0.3820 0.7974
vn 0.3952 -0.5561 0.7312
vn 0.6343 0.1178 0.7641
vn 0.5607 -0.3584 0.7464
vn -0.3099 0.4440 0.8407
vn -0.1503 -0.5727 0.8058
vn -0.4397 0.2977 0.8474
vn -0.3432 -0.3963 0.8516
vn -0.0264 -0.0162 0.9995
vn -0.0002 -0.0197 0.9998
vn 0.1156 -0.0497 0.9921
vn 0.3343 -0.1040 0.9367
vn 0.6096 -0.1615 0.7760
vn -0.1662 -0.0110 0.9860
vn -0.4484 0.0068 0.8938
vn -0.1264 -0.1849 0.9746
vn 0.0080 -0.1934 0.9811
vn -0.0118 -0.1887 0.9820
vn 0.1412 -0.1937 0.9709
vn 0.3540 -0.2159 0.9100
vn 0.6441 0.2263 0.7307
vn 0.3383 -0.6782 0.6523
vn 0.0149 0.4795 0.8774
vn -0.1549 -0.4142 0.8969
vn 0.1055 0.4683 0.8772
vn -0.0166 -0.4539 0.8909
vn 0.2295 0.4611 0.8572
vn 0.1077 -0.4726 0.8746
vn 0.4816 0.3875 0.7861
vn 0.3869 -0.4676 0.7948
vn -0.3762 -0.3171 0.8706
vn -0.1802 0.5392 0.8227
vn 0.7393 -0.6608 0.1292
vn 0.8415 -0.4971 0.2117
vn 0.9561 -0.1833 0.2288
vn 0.8669 -0.4105 0.2827
vn 0.9824 0.0582 0.1776
vt 0.234795 0.602530
vt 0.286236 0.591529
vt 0.295830 0.538026
vt 0.245184 0.544370
vt 0.221925 0.639895
vt 0.273976 0.641625
vt 0.221258 0.269982
vt 0.229117 0.338137
vt 0.278909 0.316851
vt 0.335774 0.541097
vt 0.361057 0.559448
vt 0.395175 0.495040
vt 0.361127 0.480560
vt 0.429390 0.424415
vt 0.389187 0.413968
vt 0.255248 0.479457
vt 0.313163 0.473489
vt 0.334981 0.404297
vt 0.271299 0.409650
vt 0.366801 0.664602
vt 0.353341 0.621672
vt 0.317239 0.664954
vt 0.328399 0.696984
vt 0.128672 0.130214
vt 0.189880 0.136530
vt 0.273435 0.085591
vt 0.215549 0.049387
vt 0.098598 0.274688
vt 0.163853 0.267496
vt 0.161392 0.189642
vt 0.099256 0.186874
vt 0.263069 0.714088
vt 0.263324 0.682470
vt 0.207442 0.671077
vt 0.185801 0.712430
vt 0.106405 0.366448
vt 0.175701 0.355978
vt 0.514927 0.454076
vt 0.459463 0.436785
vt 0.419967 0.511036
vt 0.465807 0.537955
vt 0.118398 0.668916
vt 0.164519 0.632094
vt 0.151400 0.586779
vt 0.091015 0.611306
vt 0.425565 0.601839
vt 0.380474 0.577921
vt 0.578087 0.365190
vt 0.510602 0.358660
vt 0.085391 0.547091
vt 0.150188 0.521388
vt 0.161807 0.444315
vt 0.095606 0.460919
vt 0.018347 0.642184
vt 0.011432 0.573112
vt 0.020198 0.479800
vt 0.039505 0.378907
vt 0.636323 0.396329
vt 0.573275 0.483754
vt 0.474952 0.636349
vt 0.404951 0.710814
vt 0.750899 0.656640
vt 0.753520 0.680839
vt 0.782897 0.675432
vt 0.773192 0.648001
vt 0.035716 0.187985
vt 0.066618 0.118320
vt 0.050120 0.713898
vt 0.520539 0.571441
vt 0.031607 0.285901
vt 0.231678 0.791022
vt 0.254658 0.765485
vt 0.259106 0.741397
vt 0.228323 0.753609
vt 0.190207 0.784576
vt 0.156842 0.012728
vt 0.334755 0.734361
vt 0.341357 0.755294
vt 0.140541 0.776517
vt 0.201310 0.613027
vt 0.190831 0.565154
vt 0.220424 0.200273
vt 0.243506 0.146217
vt 0.315000 0.631534
vt 0.342456 0.608119
vt 0.472017 0.351633
vt 0.193589 0.502830
vt 0.210231 0.425408
vt 0.319826 0.596066
vt 0.371578 0.331845
vt 0.298861 0.212815
vt 0.294068 0.116771
vt 0.305879 0.152823
vt 0.429572 0.348453
vt 0.727417 0.682016
vt 0.726324 0.711621
vt 0.750838 0.714782
vt 0.656935 0.645142
vt 0.701099 0.660411
vt 0.701708 0.680829
vt 0.642075 0.670090
vt 0.725950 0.659365
vt 0.700036 0.713328
vt 0.699984 0.737044
vt 0.723452 0.737211
vt 0.778333 0.722477
vt 0.643754 0.716116
vt 0.718865 0.760789
vt 0.729956 0.765347
vt 0.742321 0.742360
vt 0.654508 0.747106
vt 0.765579 0.755038
vt 0.705231 0.785201
vt 0.741773 0.779880
vt 0.700751 0.762088
vt 0.672580 0.772077
vt 0.697599 0.648482
vt 0.726006 0.646340
vt 0.755348 0.642354
vt 0.663897 0.641196
vt 0.769247 0.641196
vt 0.320061 0.746136
vt 0.332869 0.760270
vt 0.296344 0.737913
vt 0.310582 0.755345
vt 0.327171 0.764619
s 1
usemtl Material.001
f 17/1/17 71/2/71 70/3/70 16/4/16
f 62/5/62 72/6/72 71/2/71 17/1/17
f 66/7/66 64/8/64 15/9/15
f 78/10/78 59/11/59 37/12/37 76/13/76
f 76/13/76 37/12/37 39/14/39 77/15/77
f 18/16/18 69/17/69 68/18/68 20/19/20
f 16/4/16 70/3/70 69/17/69 18/16/18
f 29/20/29 50/21/50 52/22/52 31/23/31
f 35/24/35 56/25/56 54/26/54 33/27/33
f 34/28/34 55/29/55 58/30/58 42/31/42
f 40/32/40 57/33/57 51/34/51 30/35/30
f 32/36/32 53/37/53 55/29/55 34/28/34
f 23/38/23 44/39/44 46/40/46 25/41/25
f 28/42/28 49/43/49 47/44/47 26/45/26
f 42/31/42 58/30/58 56/25/56 35/24/35
f 31/23/31 52/22/52 57/33/57 40/32/40
f 27/46/27 48/47/48 50/21/50 29/20/29
f 33/48/33 54/49/54 44/39/44 23/38/23
f 24/50/24 45/51/45 43/52/43 22/53/22
f 5/54/5 26/45/26 24/50/24 3/55/3
f 1/56/1 22/53/22 32/36/32 11/57/11
f 3/55/3 24/50/24 22/53/22 1/56/1
f 12/58/12 33/48/33 23/38/23 2/59/2
f 6/60/6 27/46/27 29/20/29 8/61/8
f 100/62/100 85/63/85 82/64/82 99/65/99
f 21/66/21 42/31/42 35/24/35 14/67/14
f 7/68/7 28/42/28 26/45/26 5/54/5
f 2/59/2 23/38/23 25/41/25 4/69/4
f 11/57/11 32/36/32 34/28/34 13/70/13
f 19/71/19 80/72/80 108/73/108 110/74/110 107/75/107
f 13/70/13 34/28/34 42/31/42 21/66/21
f 14/67/14 35/24/35 33/27/33 12/76/12
f 8/61/8 29/20/29 31/23/31 103/77/103 104/78/104
f 9/79/9 30/35/30 28/42/28 7/68/7
f 4/69/4 25/41/25 27/46/27 6/60/6
f 44/39/44 39/14/39 37/12/37 46/40/46
f 49/43/49 60/80/60 36/81/36 47/44/47
f 58/30/58 74/82/74 67/83/67 56/25/56
f 52/22/52 63/84/63 72/6/72 57/33/57
f 48/47/48 59/11/59 61/85/61 50/21/50
f 54/49/54 65/86/65 39/14/39 44/39/44
f 45/51/45 38/87/38 41/88/41 43/52/43
f 43/52/43 41/88/41 64/8/64 53/37/53
f 47/44/47 36/81/36 38/87/38 45/51/45
f 46/40/46 37/12/37 59/11/59 48/47/48
f 51/34/51 62/5/62 60/80/60 49/43/49
f 50/21/50 61/85/61 63/84/63 52/22/52
f 30/35/30 51/34/51 49/43/49 28/42/28
f 25/41/25 46/40/46 48/47/48 27/46/27
f 26/45/26 47/44/47 45/51/45 24/50/24
f 22/53/22 43/52/43 53/37/53 32/36/32
f 68/18/68 69/17/69 76/13/76 77/15/77
f 69/17/69 70/3/70 78/10/78 76/13/76
f 70/3/70 71/2/71 79/89/79 78/10/78
f 71/2/71 72/6/72 63/84/63 79/89/79
f 68/18/68 73/90/73 15/9/15 20/19/20
f 73/91/73 74/82/74 66/7/66 15/9/15
f 65/92/65 67/83/67 75/93/75
f 39/14/39 65/86/65 75/94/75 77/15/77
f 60/80/60 62/5/62 17/1/17
f 36/81/36 60/80/60 17/1/17 16/4/16
f 38/87/38 36/81/36 16/4/16 18/16/18
f 41/88/41 38/87/38 18/16/18 20/19/20
f 53/37/53 64/8/64 66/7/66 55/29/55
f 57/33/57 72/6/72 62/5/62 51/34/51
f 55/29/55 66/7/66 74/82/74 58/30/58
f 56/25/56 67/83/67 65/92/65 54/26/54
f 15/9/15 64/8/64 41/88/41 20/19/20
f 67/83/67 74/82/74 73/91/73 75/93/75
f 79/89/79 61/85/61 59/11/59 78/10/78
f 75/94/75 73/90/73 68/18/68 77/15/77
f 63/84/63 61/85/61 79/89/79
f 84/95/84 88/96/88 89/97/89 85/63/85
f 99/98/99 101/99/101 83/100/83 82/101/82
f 102/102/102 84/95/84 85/63/85 100/62/100
f 101/99/101 83/100/83 84/95/84 102/102/102
f 87/103/87 91/104/91 92/105/92 88/96/88
f 85/63/85 89/97/89 86/106/86 82/64/82
f 83/100/83 87/103/87 88/96/88 84/95/84
f 82/101/82 83/100/83 87/103/87 86/107/86
f 92/105/92 96/108/96 97/109/97 93/110/93
f 86/107/86 87/103/87 91/104/91 90/111/90
f 88/96/88 92/105/92 93/110/93 89/97/89
f 89/97/89 93/110/93 90/112/90 86/106/86
f 97/109/97 98/113/98 94/114/94
f 93/110/93 97/109/97 94/114/94 90/112/90
f 91/104/91 95/115/95 96/108/96 92/105/92
f 90/111/90 91/104/91 95/115/95 94/116/94
f 95/115/95 98/113/98 96/108/96
f 94/116/94 95/115/95 98/113/98
f 96/108/96 98/113/98 97/109/97
f 19/117/19 101/99/101 102/102/102 80/118/80
f 80/118/80 102/102/102 100/62/100 81/119/81
f 10/120/10 19/117/19 101/99/101 99/98/99
f 81/119/81 100/62/100 99/65/99 10/121/10
f 103/77/103 106/122/106 105/123/105 104/78/104
f 31/23/31 40/32/40 108/73/108 109/124/109 106/122/106 103/77/103
f 108/73/108 80/72/80 81/125/81 106/122/106 109/124/109
f 106/122/106 81/125/81 10/126/10 105/123/105
f 108/73/108 40/32/40 30/35/30 9/79/9 107/75/107 110/74/110
f 113/1/113 112/4/112 164/3/164 165/2/165
f 156/5/156 113/1/113 165/2/165 166/6/166
f 160/7/160 111/9/111 158/8/158
f 172/10/172 170/13/170 131/12/131 153/11/153
f 170/13/170 171/15/171 133/14/133 131/12/131
f 114/16/114 115/19/115 162/18/162 163/17/163
f 112/4/112 114/16/114 163/17/163 164/3/164
f 123/20/123 125/23/125 146/22/146 144/21/144
f 129/24/129 127/27/127 148/26/148 150/25/150
f 128/28/128 136/31/136 152/30/152 149/29/149
f 134/32/134 124/35/124 145/34/145 151/33/151
f 126/36/126 128/28/128 149/29/149 147/37/147
f 117/38/117 119/41/119 140/40/140 138/39/138
f 122/42/122 120/45/120 141/44/141 143/43/143
f 136/31/136 129/24/129 150/25/150 152/30/152
f 125/23/125 134/32/134 151/33/151 146/22/146
f 121/46/121 123/20/123 144/21/144 142/47/142
f 127/48/127 117/38/117 138/39/138 148/49/148
f 118/50/118 116/53/116 137/52/137 139/51/139
f 5/54/5 3/55/3 118/50/118 120/45/120
f 1/56/1 11/57/11 126/36/126 116/53/116
f 3/55/3 1/56/1 116/53/116 118/50/118
f 12/58/12 2/59/2 117/38/117 127/48/127
f 6/60/6 8/61/8 123/20/123 121/46/121
f 184/62/184 99/65/99 82/64/82 177/63/177
f 21/66/21 14/67/14 129/24/129 136/31/136
f 7/68/7 5/54/5 120/45/120 122/42/122
f 2/59/2 4/69/4 119/41/119 117/38/117
f 11/57/11 13/70/13 128/28/128 126/36/126
f 19/71/19 107/75/107 190/74/190 188/73/188 174/72/174
f 13/70/13 21/66/21 136/31/136 128/28/128
f 14/67/14 12/76/12 127/27/127 129/24/129
f 8/61/8 104/78/104 186/77/186 125/23/125 123/20/123
f 9/79/9 7/68/7 122/42/122 124/35/124
f 4/69/4 6/60/6 121/46/121 119/41/119
f 138/39/138 140/40/140 131/12/131 133/14/133
f 143/43/143 141/44/141 130/81/130 154/80/154
f 152/30/152 150/25/150 161/83/161 168/82/168
f 146/22/146 151/33/151 166/6/166 157/84/157
f 142/47/142 144/21/144 155/85/155 153/11/153
f 148/49/148 138/39/138 133/14/133 159/86/159
f 139/51/139 137/52/137 135/88/135 132/87/132
f 137/52/137 147/37/147 158/8/158 135/88/135
f 141/44/141 139/51/139 132/87/132 130/81/130
f 140/40/140 142/47/142 153/11/153 131/12/131
f 145/34/145 143/43/143 154/80/154 156/5/156
f 144/21/144 146/22/146 157/84/157 155/85/155
f 124/35/124 122/42/122 143/43/143 145/34/145
f 119/41/119 121/46/121 142/47/142 140/40/140
f 120/45/120 118/50/118 139/51/139 141/44/141
f 116/53/116 126/36/126 147/37/147 137/52/137
f 162/18/162 171/15/171 170/13/170 163/17/163
f 163/17/163 170/13/170 172/10/172 164/3/164
f 164/3/164 172/10/172 173/89/173 165/2/165
f 165/2/165 173/89/173 157/84/157 166/6/166
f 162/18/162 115/19/115 111/9/111 167/90/167
f 167/91/167 111/9/111 160/7/160 168/82/168
f 159/92/159 169/93/169 161/83/161
f 133/14/133 171/15/171 169/94/169 159/86/159
f 154/80/154 113/1/113 156/5/156
f 130/81/130 112/4/112 113/1/113 154/80/154
f 132/87/132 114/16/114 112/4/112 130/81/130
f 135/88/135 115/19/115 114/16/114 132/87/132
f 147/37/147 149/29/149 160/7/160 158/8/158
f 151/33/151 145/34/145 156/5/156 166/6/166
f 149/29/149 152/30/152 168/82/168 160/7/160
f 150/25/150 148/26/148 159/92/159 161/83/161
f 111/9/111 115/19/115 135/88/135 158/8/158
f 161/83/161 169/93/169 167/91/167 168/82/168
f 173/89/173 172/10/172 153/11/153 155/85/155
f 169/94/169 171/15/171 162/18/162 167/90/167
f 157/84/157 173/89/173 155/85/155
f 176/95/176 177/63/177 179/97/179 178/96/178
f 185/102/185 184/62/184 177/63/177 176/95/176
f 101/99/101 185/102/185 176/95/176 83/100/83
f 87/103/87 178/96/178 180/105/180 91/104/91
f 177/63/177 82/64/82 86/106/86 179/97/179
f 83/100/83 176/95/176 178/96/178 87/103/87
f 180/105/180 181/110/181 183/109/183 182/108/182
f 178/96/178 179/97/179 181/110/181 180/105/180
f 179/97/179 86/106/86 90/112/90 181/110/181
f 183/109/183 94/114/94 98/113/98
f 181/110/181 90/112/90 94/114/94 183/109/183
f 91/104/91 180/105/180 182/108/182 95/115/95
f 95/115/95 182/108/182 98/113/98
f 182/108/182 183/109/183 98/113/98
f 19/117/19 174/118/174 185/102/185 101/99/101
f 174/118/174 175/119/175 184/62/184 185/102/185
f 175/119/175 10/121/10 99/65/99 184/62/184
f 186/77/186 104/78/104 105/123/105 187/122/187
f 125/23/125 186/77/186 187/122/187 189/124/189 188/73/188 134/32/134
f 188/73/188 189/124/189 187/122/187 175/125/175 174/72/174
f 187/122/187 105/123/105 10/126/10 175/125/175
f 188/73/188 190/74/190 107/75/107 9/79/9 124/35/124 134/32/134
o Icosphere
v -1.635885 -0.112210 -0.425926
v -1.770598 -0.219480 -0.526235
v -1.584430 -0.219480 -0.588231
v -1.527054 -0.243876 -0.395581
v -1.615284 -0.259513 -0.273667
v -1.770598 -0.219480 -0.325616
v -1.687340 -0.393051 -0.588231
v -1.521167 -0.382743 -0.498622
v -1.557930 -0.401947 -0.331237
v -1.687340 -0.393051 -0.263620
v -1.802399 -0.393050 -0.425926
v -1.635885 -0.500321 -0.425926
v -1.605641 -0.141191 -0.521326
v -1.715067 -0.141191 -0.484886
v -1.684823 -0.204243 -0.580287
v -1.794249 -0.204243 -0.425926
v -1.715067 -0.141191 -0.366966
v -1.563601 -0.176983 -0.396593
v -1.529411 -0.221747 -0.478313
v -1.615461 -0.186174 -0.324935
v -1.564375 -0.240011 -0.319120
v -1.684823 -0.204243 -0.271565
v -1.812942 -0.306265 -0.484886
v -1.812942 -0.306265 -0.366965
v -1.635885 -0.306265 -0.616727
v -1.745312 -0.306265 -0.580287
v -1.509055 -0.312443 -0.451345
v -1.526457 -0.306265 -0.580287
v -1.582524 -0.332922 -0.281299
v -1.530664 -0.323731 -0.352959
v -1.745312 -0.306265 -0.271564
v -1.644826 -0.336507 -0.263739
v -1.764004 -0.408288 -0.521326
v -1.586947 -0.408288 -0.580287
v -1.527204 -0.405355 -0.413525
v -1.611115 -0.420227 -0.297578
v -1.764004 -0.408288 -0.330525
v -1.666129 -0.471340 -0.521326
v -1.733759 -0.471339 -0.425926
v -1.556703 -0.471340 -0.484886
v -1.576925 -0.464992 -0.379298
v -1.666129 -0.471340 -0.330526
vn 0.1916 0.9751 0.1121
vn -0.7323 0.4377 -0.5216
vn 0.4171 0.4790 -0.7724
vn 0.9241 0.2994 0.2377
vn 0.3737 0.2543 0.8920
vn -0.7323 0.4377 0.5216
vn -0.2822 -0.4416 -0.8516
vn 0.9272 -0.2967 -0.2285
vn 0.7534 -0.3784 0.5378
vn -0.1493 -0.3779 0.9137
vn -0.9003 -0.4353 -0.0000
vn 0.0488 -0.9982 0.0344
vn 0.3526 0.8313 -0.4296
vn -0.4364 0.8442 -0.3112
vn -0.2687 0.5201 -0.8107
vn -0.8580 0.5137 -0.0000
vn -0.3468 0.8671 0.3574
vn 0.7144 0.6535 0.2502
vn 0.8854 0.4467 -0.1285
vn 0.3969 0.6980 0.5960
vn 0.7091 0.3684 0.6012
vn -0.0714 0.5274 0.8466
vn -0.9528 -0.0002 -0.3037
vn -0.9528 -0.0002 0.3037
vn -0.0000 -0.0000 -1.0000
vn -0.5951 0.0003 -0.8036
vn 0.9992 0.0235 0.0318
vn 0.7744 0.0195 -0.6324
vn 0.5683 -0.0774 0.8191
vn 0.9122 -0.0188 0.4094
vn -0.5245 0.0024 0.8514
vn 0.1478 -0.0633 0.9870
vn -0.6977 -0.5161 -0.4969
vn 0.3660 -0.5171 -0.7737
vn 0.9224 -0.3430 0.1775
vn 0.3834 -0.5219 0.7620
vn -0.6977 -0.5161 0.4969
vn -0.1671 -0.8469 -0.5048
vn -0.5386 -0.8426 -0.0000
vn 0.6077 -0.7547 -0.2473
vn 0.5687 -0.7444 0.3500
vn -0.0888 -0.8453 0.5269
vt 0.925567 0.546600
vt 0.899564 0.549170
vt 0.895646 0.576510
vt 0.884089 0.533614
vt 0.903102 0.528379
vt 0.965434 0.532507
vt 0.952077 0.521358
vt 0.923779 0.531838
vt 0.886919 0.516982
vt 0.840438 0.540865
vt 0.867758 0.543519
vt 0.845456 0.520284
vt 0.975371 0.503312
vt 0.987595 0.538298
vt 0.986444 0.466415
vt 0.947423 0.499117
vt 0.960309 0.501716
vt 0.944607 0.479000
vt 0.919678 0.516934
vt 0.938534 0.513007
vt 0.923248 0.500165
vt 0.867204 0.521084
vt 0.822985 0.510640
vt 0.958830 0.470266
vt 0.935909 0.486175
vt 0.905470 0.509399
vt 0.857594 0.503811
vt 0.874610 0.502062
vt 0.866600 0.485197
vt 0.833367 0.472724
vt 0.843582 0.491500
vt 0.863051 0.466267
vt 0.923371 0.460495
vt 0.894634 0.434845
vt 0.896535 0.454409
vt 0.921521 0.483779
vt 0.920415 0.469520
vt 0.904139 0.472629
vt 0.891654 0.500782
vt 0.905972 0.491071
vt 0.887053 0.485420
vt 0.883702 0.469908
vt 0.803991 0.475799
vt 0.802489 0.541379
s 1
usemtl Material.001
f 191/127/191 203/129/203 204/128/204
f 192/130/192 206/131/206 204/128/204
f 191/127/191 208/132/208 203/129/203
f 191/127/191 210/133/210 208/132/208
f 191/127/191 207/134/207 210/133/210
f 192/130/192 213/135/213 206/131/206
f 193/136/193 215/138/215 205/137/205
f 194/139/194 217/141/217 209/140/209
f 195/142/195 219/144/219 211/143/211
f 196/145/196 221/147/221 212/146/212
f 192/130/192 216/148/216 213/135/213
f 193/136/193 218/149/218 215/138/215
f 194/139/194 220/150/220 217/141/217
f 195/142/195 222/151/222 219/144/219
f 196/145/196 214/152/214 221/147/221
f 197/153/197 228/155/228 223/154/223
f 198/156/198 230/158/230 224/157/224
f 199/159/199 231/161/231 225/160/225
f 200/162/200 232/164/232 226/163/226
f 201/165/201 229/167/229 227/166/227
f 229/167/229 202/168/202 232/164/232
f 229/167/229 232/164/232 227/166/227
f 227/166/227 232/164/232 200/162/200
f 232/164/232 202/168/202 231/161/231
f 232/164/232 231/161/231 226/163/226
f 226/163/226 231/161/231 199/159/199
f 231/161/231 202/168/202 230/158/230
f 231/161/231 230/158/230 225/160/225
f 225/160/225 230/158/230 198/156/198
f 230/158/230 202/168/202 228/155/228
f 230/158/230 228/155/228 224/157/224
f 224/157/224 228/155/228 197/153/197
f 228/155/228 202/168/202 229/167/229
f 228/155/228 229/167/229 223/154/223
f 223/154/223 229/167/229 201/165/201
f 214/152/214 201/165/201 227/166/227
f 214/152/214 227/166/227 221/147/221
f 221/147/221 227/166/227 200/162/200
f 222/151/222 200/162/200 226/163/226
f 222/151/222 226/163/226 219/144/219
f 219/144/219 226/163/226 199/159/199
f 220/150/220 199/159/199 225/160/225
f 220/150/220 225/160/225 217/141/217
f 217/169/217 225/160/225 198/156/198
f 218/149/218 198/156/198 224/157/224
f 218/149/218 224/157/224 215/138/215
f 215/138/215 224/157/224 197/153/197
f 216/148/216 197/153/197 223/154/223
f 216/148/216 223/154/223 213/135/213
f 213/135/213 223/154/223 201/165/201
f 221/147/221 200/162/200 222/151/222
f 221/147/221 222/151/222 212/146/212
f 212/146/212 222/151/222 195/142/195
f 219/144/219 199/159/199 220/150/220
f 219/144/219 220/150/220 211/143/211
f 211/143/211 220/150/220 194/139/194
f 217/169/217 198/156/198 218/149/218
f 217/169/217 218/149/218 209/170/209
f 209/170/209 218/149/218 193/136/193
f 215/138/215 197/153/197 216/148/216
f 215/138/215 216/148/216 205/137/205
f 205/137/205 216/148/216 192/130/192
f 213/135/213 201/165/201 214/152/214
f 213/135/213 214/152/214 206/131/206
f 206/131/206 214/152/214 196/145/196
f 207/134/207 196/145/196 212/146/212
f 207/134/207 212/146/212 210/133/210
f 210/133/210 212/146/212 195/142/195
f 210/133/210 195/142/195 211/143/211
f 210/133/210 211/143/211 208/132/208
f 208/132/208 211/143/211 194/139/194
f 208/132/208 194/139/194 209/140/209
f 208/132/208 209/140/209 203/129/203
f 203/129/203 209/170/209 193/136/193
f 206/131/206 196/145/196 207/134/207
f 206/131/206 207/134/207 204/128/204
f 204/128/204 207/134/207 191/127/191
f 203/129/203 193/136/193 205/137/205
f 203/129/203 205/137/205 204/128/204
f 204/128/204 205/137/205 192/130/192
o Icosphere.001
v -1.633555 0.114866 0.433681
v -1.832208 -0.022901 0.391996
v -1.678562 -0.021571 0.234351
v -1.509854 -0.017207 0.375644
v -1.509027 -0.021571 0.595702
v -1.728472 -0.022901 0.613100
v -1.783813 -0.245949 0.284483
v -1.609202 -0.247914 0.281451
v -1.500916 -0.247914 0.512254
v -1.614855 -0.245949 0.644602
v -1.815520 -0.245366 0.519053
v -1.652211 -0.384978 0.442434
v -1.656460 0.074565 0.317783
v -1.747592 0.073560 0.409338
v -1.764941 -0.005691 0.291357
v -1.803250 -0.005801 0.513297
v -1.687724 0.073560 0.536941
v -1.548061 0.076128 0.393569
v -1.593370 -0.001023 0.284999
v -1.559064 0.074565 0.525375
v -1.493525 -0.001023 0.497811
v -1.608079 -0.005691 0.625694
v -1.853466 -0.134134 0.459045
v -1.793624 -0.134134 0.586592
v -1.745820 -0.134271 0.232308
v -1.829780 -0.134170 0.321852
v -1.542103 -0.131910 0.309545
v -1.652190 -0.132862 0.231924
v -1.490304 -0.132862 0.576971
v -1.479633 -0.131910 0.442694
v -1.672976 -0.134170 0.656068
v -1.550446 -0.134271 0.648732
v -1.820149 -0.262559 0.395180
v -1.711776 -0.264995 0.260479
v -1.532900 -0.265727 0.386456
v -1.550351 -0.264995 0.604544
v -1.723213 -0.262559 0.601791
v -1.730151 -0.343140 0.351602
v -1.740090 -0.342016 0.483664
v -1.636513 -0.346913 0.354397
v -1.574472 -0.346913 0.486631
v -1.632174 -0.343140 0.560432
vn 0.0195 0.9998 -0.0092
vn -0.8911 0.4253 -0.1583
vn 0.0027 0.3848 -0.9230
vn 0.8775 0.2458 -0.4117
vn 0.7115 0.3848 0.5879
vn -0.4478 0.4253 0.7865
vn -0.6636 -0.4081 -0.6270
vn 0.4972 -0.4114 -0.7639
vn 0.9053 -0.4114 0.1059
vn 0.0580 -0.4081 0.9111
vn -0.8237 -0.4149 0.3865
vn 0.0550 -0.9982 -0.0258
vn -0.0099 0.8190 -0.5737
vn -0.5488 0.8308 -0.0927
vn -0.6043 0.5119 -0.6106
vn -0.7847 0.4988 0.3681
vn -0.2795 0.8308 0.4813
vn 0.6294 0.7188 -0.2953
vn 0.5467 0.3729 -0.7498
vn 0.4349 0.8190 0.3743
vn 0.9260 0.3729 0.0588
vn 0.0833 0.5119 0.8550
vn -0.9911 0.0024 0.1332
vn -0.7359 0.0024 0.6771
vn -0.4039 -0.0061 -0.9148
vn -0.8943 0.0155 -0.4472
vn 0.7617 -0.0624 -0.6449
vn 0.2988 -0.0733 -0.9515
vn 0.9227 -0.0733 0.3784
vn 0.9828 -0.0624 -0.1736
vn -0.2276 0.0155 0.9736
vn 0.4453 -0.0061 0.8953
vn -0.8694 -0.4785 -0.1228
vn -0.0830 -0.5136 -0.8540
vn 0.8044 -0.4589 -0.3774
vn 0.6037 -0.5136 0.6097
vn -0.4613 -0.4785 0.7471
vn -0.3929 -0.8342 -0.3870
vn -0.5413 -0.8016 0.2539
vn 0.3275 -0.7943 -0.5117
vn 0.6029 -0.7943 0.0752
vn 0.0465 -0.8342 0.5495
vt 0.653831 0.548397
vt 0.660797 0.534254
vt 0.638916 0.528473
vt 0.667191 0.518607
vt 0.682081 0.529752
vt 0.626477 0.542252
vt 0.677386 0.574370
vt 0.680975 0.551228
vt 0.680731 0.509235
vt 0.637911 0.506736
vt 0.650821 0.514275
vt 0.649676 0.492379
vt 0.610428 0.515300
vt 0.625677 0.511365
vt 0.620781 0.476558
vt 0.739596 0.541619
vt 0.756339 0.549218
vt 0.749669 0.503872
vt 0.700958 0.533341
vt 0.716981 0.542095
vt 0.717876 0.516935
vt 0.664173 0.500807
vt 0.638046 0.485031
vt 0.592075 0.473186
vt 0.736484 0.514041
vt 0.698516 0.515407
vt 0.665569 0.483814
vt 0.679352 0.489416
vt 0.679264 0.471277
vt 0.655644 0.462165
vt 0.661508 0.474560
vt 0.680694 0.455955
vt 0.737195 0.469981
vt 0.680746 0.430927
vt 0.710098 0.462317
vt 0.724623 0.496167
vt 0.731324 0.485151
vt 0.712952 0.478592
vt 0.693123 0.498172
vt 0.709243 0.497013
vt 0.695411 0.481400
vt 0.696022 0.467125
vt 0.771214 0.471678
vt 0.601733 0.549821
s 1
usemtl Material.001
f 233/171/233 245/173/245 246/172/246
f 234/174/234 248/175/248 246/172/246
f 233/171/233 250/176/250 245/173/245
f 233/171/233 252/177/252 250/176/250
f 233/171/233 249/178/249 252/177/252
f 234/174/234 255/179/255 248/175/248
f 235/180/235 257/182/257 247/181/247
f 236/183/236 259/185/259 251/184/251
f 237/186/237 261/188/261 253/187/253
f 238/189/238 263/191/263 254/190/254
f 234/174/234 258/192/258 255/179/255
f 235/180/235 260/193/260 257/182/257
f 236/183/236 262/194/262 259/185/259
f 237/186/237 264/195/264 261/188/261
f 238/189/238 256/196/256 263/191/263
f 239/197/239 270/199/270 265/198/265
f 240/200/240 272/202/272 266/201/266
f 241/203/241 273/205/273 267/204/267
f 242/206/242 274/208/274 268/207/268
f 243/209/243 271/211/271 269/210/269
f 271/211/271 244/212/244 274/208/274
f 271/211/271 274/208/274 269/210/269
f 269/210/269 274/208/274 242/206/242
f 274/208/274 244/212/244 273/205/273
f 274/208/274 273/205/273 268/207/268
f 268/207/268 273/205/273 241/203/241
f 273/205/273 244/212/244 272/202/272
f 273/205/273 272/202/272 267/204/267
f 267/204/267 272/202/272 240/200/240
f 272/202/272 244/212/244 270/199/270
f 272/202/272 270/199/270 266/201/266
f 266/201/266 270/199/270 239/197/239
f 270/199/270 244/212/244 271/211/271
f 270/199/270 271/211/271 265/198/265
f 265/198/265 271/211/271 243/209/243
f 256/196/256 243/209/243 269/210/269
f 256/196/256 269/210/269 263/191/263
f 263/191/263 269/210/269 242/206/242
f 264/195/264 242/206/242 268/207/268
f 264/195/264 268/207/268 261/188/261
f 261/188/261 268/207/268 241/203/241
f 262/213/262 241/203/241 267/204/267
f 262/194/262 267/204/267 259/185/259
f 259/185/259 267/204/267 240/200/240
f 260/193/260 240/200/240 266/201/266
f 260/193/260 266/201/266 257/182/257
f 257/182/257 266/201/266 239/197/239
f 258/192/258 239/197/239 265/198/265
f 258/192/258 265/198/265 255/179/255
f 255/179/255 265/198/265 243/209/243
f 263/191/263 242/206/242 264/195/264
f 263/191/263 264/195/264 254/190/254
f 254/190/254 264/195/264 237/186/237
f 261/188/261 241/203/241 262/213/262
f 261/188/261 262/213/262 253/187/253
f 253/214/253 262/194/262 236/183/236
f 259/185/259 240/200/240 260/193/260
f 259/185/259 260/193/260 251/184/251
f 251/184/251 260/193/260 235/180/235
f 257/182/257 239/197/239 258/192/258
f 257/182/257 258/192/258 247/181/247
f 247/181/247 258/192/258 234/174/234
f 255/179/255 243/209/243 256/196/256
f 255/179/255 256/196/256 248/175/248
f 248/175/248 256/196/256 238/189/238
f 249/178/249 238/189/238 254/190/254
f 249/178/249 254/190/254 252/177/252
f 252/177/252 254/190/254 237/186/237
f 252/177/252 237/186/237 253/187/253
f 252/177/252 253/214/253 250/176/250
f 250/176/250 253/214/253 236/183/236
f 250/176/250 236/183/236 251/184/251
f 250/176/250 251/184/251 245/173/245
f 245/173/245 251/184/251 235/180/235
f 248/175/248 238/189/238 249/178/249
f 248/175/248 249/178/249 246/172/246
f 246/172/246 249/178/249 233/171/233
f 245/173/245 235/180/235 247/181/247
f 245/173/245 247/181/247 246/172/246
f 246/172/246 247/181/247 234/174/234
o rightEar
v -0.722939 0.392038 0.968459
v -0.704590 0.141672 0.935037
v -0.918648 0.253490 0.653881
v -0.866234 0.169436 0.709301
v -0.576659 0.372331 1.174681
v -0.578663 0.148343 1.118219
v -0.508035 0.275338 1.251184
v -0.488946 0.176680 1.255667
v -0.828898 0.361213 0.808307
v -0.786657 0.163884 0.822022
v -0.774937 0.383231 0.962330
v -0.758090 0.147293 0.930784
v -0.948269 0.252071 0.679401
v -0.901904 0.176766 0.729187
v -0.643096 0.364906 1.148049
v -0.645550 0.152674 1.093751
v -0.580143 0.272419 1.215955
v -0.548449 0.175059 1.238371
v -0.870513 0.354135 0.817570
v -0.830832 0.167871 0.830631
v -0.898420 0.213220 0.673347
v -0.644501 0.337388 1.140317
v -0.866374 0.331920 0.819089
v -0.776849 0.355918 0.953911
v -0.921803 0.205831 0.709382
v -0.779999 0.211920 0.933355
v -0.844933 0.204906 0.832191
v -0.740518 0.351684 1.004820
v -0.663977 0.175270 1.073459
v -0.644205 0.185360 1.103921
v -0.735808 0.173654 0.969809
v -0.593103 0.217556 1.185311
v -0.890351 0.214957 0.713545
v -0.915443 0.254995 0.686931
v -0.755507 0.347938 0.939331
v -0.722860 0.343081 0.985253
v -0.819287 0.238858 0.821670
v -0.837914 0.326108 0.815279
v -0.633419 0.329609 1.111000
v -0.748753 0.251086 0.926498
v -0.718154 0.188253 0.955017
v -0.633463 0.197789 1.079409
v -0.652468 0.185119 1.049445
v -0.585990 0.223587 1.154477
v -0.776769 0.378540 0.887609
v -0.707799 0.320313 0.961468
v -0.827062 0.163331 0.764375
v -0.911624 0.232322 0.660301
v -0.571263 0.313776 1.156789
v -0.649272 0.384121 1.072793
v -0.642076 0.144360 1.025825
v -0.486457 0.228497 1.263869
v -0.539674 0.323612 1.216373
v -0.522790 0.157435 1.200974
v -0.877020 0.309977 0.727409
v -0.746301 0.152577 0.877499
v -0.798760 0.317560 0.829668
v -0.823440 0.370455 0.889345
v -0.773192 0.179822 0.928410
v -0.867850 0.172590 0.778170
v -0.938224 0.227777 0.690069
v -0.758960 0.353912 0.978769
v -0.707934 0.376734 1.056661
v -0.701081 0.147974 1.011842
v -0.561291 0.222347 1.231162
v -0.609775 0.320294 1.184691
v -0.593712 0.161815 1.169949
v -0.910380 0.304818 0.748692
v -0.795008 0.157372 0.879882
v -0.871410 0.341153 0.815318
v -0.730744 0.139663 0.932336
v -0.611938 0.146739 1.105338
v -0.934269 0.251048 0.663773
v -0.883135 0.171749 0.720255
v -0.850437 0.360995 0.812669
v -0.749215 0.391886 0.966018
v -0.509326 0.170337 1.258948
v -0.543846 0.273969 1.233956
v -0.807928 0.162326 0.826456
v -0.609855 0.372428 1.162322
v -0.881602 0.189966 0.689291
v -0.643323 0.353602 1.147164
v -0.588566 0.219713 1.171118
v -0.780216 0.369444 0.953590
v -0.925187 0.232096 0.671914
v -0.693097 0.345892 1.071825
v -0.820798 0.345173 0.887974
v -0.908311 0.294456 0.749870
v -0.912174 0.190585 0.720782
v -0.639114 0.189423 1.090976
v -0.838973 0.186064 0.831699
v -0.883885 0.204601 0.769766
v -0.852355 0.329995 0.817113
v -0.654973 0.163754 1.084956
v -0.811931 0.209006 0.884157
v -0.903298 0.234551 0.699112
v -0.766241 0.352969 0.946783
v -0.654196 0.180239 1.088300
v -0.758281 0.193790 0.951239
v -0.699839 0.173883 1.020979
v -0.617328 0.199269 1.146005
v -0.616038 0.276867 1.166434
v -0.739277 0.345927 0.962253
v -0.827774 0.282909 0.818250
v -0.678636 0.342284 1.049282
v -0.795974 0.338178 0.878643
v -0.878229 0.290104 0.748541
v -0.751317 0.299976 0.932586
v -0.855903 0.226419 0.765705
v -0.722477 0.266220 0.966105
v -0.783370 0.246317 0.875351
v -0.630151 0.262491 1.098366
v -0.642601 0.189069 1.064609
v -0.733394 0.219858 0.940887
v -0.684897 0.183207 1.002215
v -0.609311 0.212627 1.117528
v -0.608259 0.274606 1.133869
v -0.658161 0.180551 1.061403
v -0.933099 0.252928 0.682215
v -0.906420 0.210519 0.710783
v -0.832029 0.221099 0.827053
v -0.764545 0.231020 0.929853
v -0.638968 0.335109 1.126039
v -0.727119 0.178355 0.961731
v -0.732149 0.349768 0.995170
v -0.692367 0.178485 1.011581
v -0.685880 0.344195 1.060564
v -0.749321 0.351845 0.970906
v -0.745886 0.204817 0.945792
v -0.869800 0.215027 0.767849
v -0.611597 0.277597 1.151741
v -0.797704 0.227045 0.879773
v -0.735690 0.283179 0.951097
v -0.808529 0.342681 0.883343
v -0.612860 0.202994 1.132076
v -0.866172 0.258548 0.757073
v -0.804716 0.182854 0.882135
v -0.648400 0.184611 1.076442
v -0.876922 0.188425 0.774256
v -0.894386 0.291785 0.747369
v -0.922040 0.230419 0.692807
v -0.788852 0.292698 0.876719
v -0.558328 0.157128 1.185116
v -0.846990 0.167358 0.771341
v -0.679011 0.384047 1.065366
v -0.575320 0.324441 1.200630
v -0.769940 0.150750 0.878466
v -0.524136 0.221023 1.249702
v -0.800622 0.378333 0.888648
v -0.894475 0.306835 0.736204
v -0.671764 0.142522 1.018049
v -0.823274 0.357617 0.888692
v -0.755662 0.319039 0.892145
v -0.533257 0.288908 1.215298
v -0.639492 0.317690 1.059339
v -0.632360 0.221533 1.038389
v -0.785107 0.237740 0.821500
v -0.743221 0.233923 0.880949
v -0.566726 0.215192 1.131956
v -0.697922 0.223869 0.944259
v -0.522426 0.210178 1.204468
vn 0.7829 0.2123 -0.5848
vn 0.7882 0.2096 -0.5786
vn 0.7755 0.1842 -0.6039
vn 0.7789 0.1879 -0.5984
vn 0.8063 0.2059 -0.5546
vn 0.8026 0.2307 -0.5501
vn 0.8228 0.2233 -0.5226
vn 0.8290 0.2009 -0.5219
vn 0.8425 0.1897 -0.5042
vn 0.8468 0.2082 -0.4895
vn 0.8354 0.2148 -0.5059
vn 0.8307 0.1448 -0.5376
vn 0.8004 0.2144 -0.5598
vn 0.8141 0.0936 -0.5732
vn 0.8017 0.1024 -0.5888
vn -0.8389 -0.0364 0.5431
vn -0.8350 -0.1022 0.5407
vn -0.8265 -0.1062 0.5529
vn -0.7918 -0.2499 0.5574
vn -0.7888 -0.1966 0.5824
vn -0.8033 -0.1512 0.5761
vn -0.7987 -0.1662 0.5783
vn -0.7944 -0.1797 0.5802
vn -0.7992 -0.2342 0.5535
vn -0.7951 -0.2550 0.5503
vn -0.8185 -0.1150 0.5629
vn -0.7952 -0.1952 0.5740
vn -0.8007 -0.1933 0.5670
vn -0.0848 -0.9916 0.0973
vn -0.2418 -0.9505 0.1951
vn -0.2585 -0.9646 0.0527
vn -0.0859 -0.9959 -0.0284
vn -0.3400 -0.9104 -0.2357
vn -0.3607 -0.9058 -0.2223
vn -0.4110 -0.8678 -0.2791
vn -0.4999 -0.7125 -0.4923
vn -0.5767 -0.6296 -0.5206
vn -0.5261 -0.6474 -0.5515
vn -0.4930 -0.7097 -0.5033
vn -0.3543 0.8388 -0.4133
vn -0.3976 0.8311 -0.3888
vn -0.3716 0.8971 -0.2389
vn -0.2574 0.9331 -0.2509
vn -0.1771 0.9811 -0.0781
vn -0.3252 0.9455 0.0145
vn -0.3282 0.9369 0.1202
vn -0.1732 0.9824 0.0705
vn -0.3778 0.0492 0.9246
vn -0.6417 -0.0283 0.7665
vn -0.6241 -0.0469 0.7799
vn -0.3011 0.0022 0.9536
vn -0.1026 -0.9862 -0.1300
vn -0.2532 -0.9672 -0.0217
vn -0.2319 -0.9721 0.0342
vn -0.1322 -0.9904 -0.0412
vn -0.3922 0.3639 0.8448
vn -0.6503 0.1134 0.7512
vn -0.6364 0.0635 0.7688
vn -0.4202 0.2123 0.8822
vn -0.1846 0.9566 0.2256
vn -0.3316 0.8906 0.3114
vn -0.6519 0.4404 0.6173
vn -0.2823 0.7739 0.5669
vn -0.1715 -0.9843 0.0408
vn -0.2223 -0.9724 0.0713
vn -0.1456 -0.9576 0.2484
vn -0.2594 -0.9178 0.3005
vn -0.2358 -0.9454 0.2250
vn -0.1077 -0.9821 0.1548
vn -0.8147 -0.1324 0.5646
vn -0.8137 0.2621 0.5188
vn -0.7462 0.1137 0.6559
vn -0.8130 -0.1363 0.5660
vn -0.5742 -0.5040 -0.6452
vn -0.8112 -0.1275 0.5707
vn -0.8116 -0.1267 0.5704
vn -0.8152 -0.1177 0.5670
vn -0.8196 -0.0962 0.5648
vn -0.8188 -0.1057 0.5642
vn -0.8098 -0.1509 0.5670
vn -0.2712 0.4141 0.8689
vn -0.6105 0.1475 0.7781
vn -0.5503 0.1332 0.8243
vn -0.2456 0.3194 0.9152
vn -0.0814 -0.8447 0.5291
vn -0.1209 -0.8343 0.5379
vn -0.1837 -0.8943 0.4081
vn -0.1255 -0.9068 0.4023
vn -0.8094 -0.2697 0.5217
vn -0.7883 -0.3372 0.5147
vn -0.7849 -0.3570 0.5065
vn -0.7989 -0.3058 0.5180
vn -0.5664 0.8203 0.0798
vn -0.5637 0.8214 0.0863
vn -0.3943 0.9054 0.1573
vn -0.4266 0.8926 0.1461
vn -0.7973 -0.3057 0.5204
vn -0.7887 -0.3461 0.5080
vn -0.8078 -0.1356 0.5737
vn -0.8127 -0.1316 0.5677
vn -0.8183 -0.1133 0.5635
vn -0.8186 0.2799 0.5015
vn -0.8142 -0.1338 0.5650
vn -0.6235 0.7740 0.1107
vn -0.7019 0.6843 0.1974
vn -0.6888 0.7120 0.1366
vn -0.6158 0.7804 0.1081
vn -0.1614 -0.9479 0.2746
vn -0.2180 -0.9265 0.3067
vn -0.2846 -0.9277 0.2417
vn -0.2176 -0.9562 0.1959
vn -0.8103 -0.1339 0.5705
vn -0.8055 -0.1238 0.5796
vn -0.7784 -0.5777 0.2455
vn -0.8175 -0.1345 0.5600
vn -0.9219 -0.3165 0.2235
vn -0.8146 -0.1347 0.5642
vn -0.8149 -0.1314 0.5645
vn -0.8150 -0.1393 0.5625
vn -0.8117 -0.1330 0.5687
vn -0.8121 -0.1319 0.5685
vn -0.6824 0.6183 0.3899
vn -0.6614 0.6613 0.3539
vn -0.8617 -0.4608 -0.2124
vn -0.9320 -0.3405 0.1243
vn -0.8652 -0.4326 -0.2536
vn -0.5473 0.7911 0.2733
vn -0.5949 0.7579 0.2678
vn -0.6768 0.4870 0.5520
vn -0.3929 0.7186 0.5738
vn -0.1021 0.4753 0.8739
vn -0.1361 0.3958 0.9082
vn -0.4724 0.5444 0.6932
vn -0.2804 -0.9520 0.1226
vn -0.3719 -0.9094 0.1863
vn -0.3518 -0.9194 0.1760
vn -0.2601 -0.9596 0.1071
vn -0.2620 -0.9619 0.0780
vn -0.3132 -0.9405 0.1321
vn -0.6030 -0.7948 -0.0682
vn -0.3482 0.9083 0.2318
vn -0.3873 0.8787 0.2790
vn -0.2111 0.6634 0.7178
vn -0.1945 0.7790 0.5961
vn -0.4630 0.8766 0.1311
vn -0.3300 0.9207 0.2085
vn -0.1560 0.8443 0.5127
vn -0.1760 -0.9836 0.0403
vn -0.2092 -0.9771 0.0376
vn -0.6506 -0.7429 -0.1578
vn -0.1506 -0.9768 0.1525
vn -0.1831 -0.9815 0.0562
vn -0.0844 0.5482 0.8321
vn -0.4853 0.5778 0.6562
vn -0.6402 0.6789 0.3594
vn -0.5096 0.8090 0.2930
vn -0.3172 0.6848 0.6561
vn -0.8390 -0.4627 -0.2862
vn -0.8478 -0.4326 -0.3068
vn -0.6739 0.6314 0.3836
vn -0.8188 -0.1287 0.5594
vn -0.8154 -0.1463 0.5601
vn -0.8134 -0.1491 0.5622
vn -0.0759 -0.9082 0.4116
vn -0.1042 -0.9647 0.2419
vn -0.6096 0.7916 0.0427
vn -0.6855 0.7075 0.1718
vn -0.5724 0.8199 -0.0118
vn -0.5585 0.8295 0.0108
vn -0.5277 0.8475 0.0575
vn -0.8070 -0.1496 0.5713
vn -0.8096 -0.1517 0.5671
vn -0.8122 -0.2532 0.5256
vn -0.8048 -0.2616 0.5327
vn -0.5259 0.8478 0.0685
vn -0.8241 -0.2056 0.5279
vn -0.7977 -0.3039 0.5208
vn -0.8311 -0.1713 0.5290
vn -0.8270 -0.1974 0.5264
vn -0.0652 -0.8403 0.5382
vn -0.0844 -0.8378 0.5394
vn -0.0582 -0.8412 0.5376
vn -0.0592 -0.8497 0.5239
vn -0.2133 0.4108 0.8864
vn -0.2001 0.3290 0.9229
vn -0.4476 -0.3922 -0.8037
vn -0.4868 -0.5947 -0.6398
vn -0.8111 -0.1509 0.5651
vn -0.0057 -0.9715 0.2370
vn -0.2819 -0.8923 0.3527
vn 0.0710 -0.9770 0.2010
vn 0.0523 -0.9804 0.1898
vn -0.0151 -0.9933 0.1149
vn 0.0060 -0.9886 -0.1507
vn -0.1013 -0.9948 0.0082
vn -0.0152 0.9997 0.0183
vn -0.0406 0.9898 0.1363
vn -0.0466 0.9877 0.1495
vn -0.3339 0.4418 0.8326
vn -0.3810 0.3639 0.8499
vn -0.4021 0.1695 0.8998
vn 0.0756 -0.9937 -0.0830
vn 0.0707 -0.9664 -0.2470
vn -0.2927 0.0410 0.9553
vn -0.1816 -0.0118 0.9833
vn -0.1103 0.9475 -0.3002
vn -0.0124 0.9841 -0.1770
vn -0.3911 0.8217 -0.4144
vn -0.4072 0.8191 -0.4041
vn -0.3779 0.8237 -0.4228
vn -0.2962 0.8490 -0.4376
vn 0.0559 -0.9984 0.0040
vn -0.8303 -0.0380 0.5560
vn -0.8363 -0.1058 0.5379
vn -0.8333 -0.1087 0.5421
vn 0.8043 0.2066 -0.5572
vn 0.8169 0.0869 -0.5702
vn 0.7989 0.2283 -0.5564
vn 0.7914 0.2408 -0.5619
vn 0.8289 -0.0150 -0.5591
vn 0.8348 0.0822 -0.5444
vn 0.8429 0.0891 -0.5307
vn 0.8426 0.0074 -0.5385
vn 0.8367 0.0920 -0.5399
vn 0.8164 -0.0048 -0.5774
vn 0.8194 0.0852 -0.5669
vn 0.8218 -0.0121 -0.5697
vn 0.8092 0.0074 -0.5875
vn 0.8054 0.0299 -0.5920
vn 0.7831 0.1353 -0.6070
vn 0.8118 -0.0078 -0.5839
vt 0.944034 0.975264
vt 0.939459 0.966229
vt 0.981049 0.961660
vt 0.982040 0.965475
vt 0.963668 0.971103
vt 0.886654 0.957605
vt 0.884109 0.968980
vt 0.860463 0.964339
vt 0.863827 0.954346
vt 0.850706 0.948809
vt 0.850617 0.954865
vt 0.842427 0.945546
vt 0.838917 0.936778
vt 0.925247 0.963630
vt 0.928694 0.949200
vt 0.942533 0.952635
vt 0.880963 0.913356
vt 0.862876 0.906488
vt 0.879991 0.910605
vt 0.907818 0.855451
vt 0.930685 0.853741
vt 0.953612 0.854624
vt 0.950652 0.857172
vt 0.947240 0.859728
vt 0.932850 0.859487
vt 0.918520 0.860735
vt 0.911850 0.865931
vt 0.906272 0.870410
vt 0.905753 0.863211
vt 0.898277 0.911323
vt 0.880848 0.908275
vt 0.898107 0.908498
vt 0.901582 0.925798
vt 0.906506 0.922759
vt 0.927191 0.926492
vt 0.922679 0.929375
vt 0.971695 0.948585
vt 0.974388 0.946450
vt 0.977767 0.944561
vt 0.981457 0.947978
vt 0.984190 0.951880
vt 0.987415 0.957836
vt 0.989673 0.962792
vt 0.984121 0.960481
vt 0.978522 0.957678
vt 0.975273 0.952883
vt 0.824885 0.872952
vt 0.822292 0.872992
vt 0.821686 0.884958
vt 0.824212 0.886108
vt 0.824153 0.897862
vt 0.821556 0.896186
vt 0.821710 0.907576
vt 0.824445 0.909774
vt 0.826321 0.965292
vt 0.821760 0.962487
vt 0.820510 0.968805
vt 0.825179 0.972054
vt 0.935948 0.933184
vt 0.940139 0.930665
vt 0.952151 0.934423
vt 0.948752 0.937318
vt 0.826648 0.949143
vt 0.822729 0.946117
vt 0.822615 0.955014
vt 0.826993 0.957830
vt 0.825387 0.925226
vt 0.822505 0.922466
vt 0.823948 0.936931
vt 0.827256 0.940260
vt 0.962305 0.941075
vt 0.965370 0.938207
vt 0.860718 0.923005
vt 0.866913 0.919175
vt 0.886049 0.920325
vt 0.880112 0.923723
vt 0.898377 0.892107
vt 0.897247 0.881705
vt 0.910889 0.880852
vt 0.912626 0.892070
vt 0.985773 0.964188
vt 0.962676 0.901786
vt 0.964254 0.905391
vt 0.964579 0.907921
vt 0.940621 0.912790
vt 0.916604 0.914994
vt 0.914312 0.912128
vt 0.914523 0.909009
vt 0.920947 0.908220
vt 0.927564 0.907492
vt 0.944654 0.905603
vt 0.848014 0.889259
vt 0.852484 0.889293
vt 0.850351 0.894347
vt 0.847001 0.896187
vt 0.864187 0.901234
vt 0.866387 0.898446
vt 0.883485 0.902340
vt 0.882183 0.905405
vt 0.865424 0.872065
vt 0.866381 0.867981
vt 0.880426 0.863880
vt 0.880375 0.868375
vt 0.949418 0.863382
vt 0.947640 0.865826
vt 0.943856 0.865119
vt 0.945508 0.862475
vt 0.893598 0.865312
vt 0.893685 0.859121
vt 0.974312 0.859150
vt 0.991442 0.863852
vt 0.988075 0.874228
vt 0.983413 0.885452
vt 0.974826 0.897159
vt 0.970786 0.887383
vt 0.976100 0.872571
vt 0.966229 0.866336
vt 0.955328 0.862265
vt 0.951269 0.860945
vt 0.867689 0.890772
vt 0.868658 0.882908
vt 0.883228 0.882367
vt 0.883468 0.892420
vt 0.963505 0.868150
vt 0.960813 0.871029
vt 0.951330 0.867582
vt 0.953104 0.864588
vt 0.898673 0.905577
vt 0.899192 0.902451
vt 0.914247 0.902935
vt 0.914432 0.906062
vt 0.917385 0.887975
vt 0.915481 0.873689
vt 0.957429 0.896934
vt 0.955272 0.882095
vt 0.964002 0.885079
vt 0.941819 0.900362
vt 0.925747 0.901376
vt 0.921457 0.884039
vt 0.919768 0.866818
vt 0.931729 0.865067
vt 0.895520 0.876495
vt 0.881883 0.877463
vt 0.967648 0.886676
vt 0.969373 0.874138
vt 0.972868 0.873267
vt 0.866703 0.879344
vt 0.855476 0.884558
vt 0.852263 0.882866
vt 0.913616 0.869449
vt 0.908448 0.875459
vt 0.920495 0.905434
vt 0.919939 0.902213
vt 0.926624 0.904719
vt 0.943225 0.903003
vt 0.960060 0.899546
vt 0.932253 0.862253
vt 0.919104 0.863590
vt 0.880529 0.872836
vt 0.864624 0.876045
vt 0.849232 0.881011
vt 0.893916 0.871458
vt 0.851668 0.876658
vt 0.853603 0.872722
vt 0.844289 0.898127
vt 0.862837 0.904104
vt 0.844332 0.889887
vt 0.842890 0.924140
vt 0.849875 0.919520
vt 0.841587 0.927877
vt 0.854560 0.926723
vt 0.874124 0.926826
vt 0.945843 0.940150
vt 0.959531 0.943949
vt 0.827124 0.911819
vt 0.828217 0.927919
vt 0.830327 0.943450
vt 0.830449 0.952218
vt 0.831396 0.960261
vt 0.918467 0.931913
vt 0.932329 0.935706
vt 0.831362 0.966799
vt 0.827896 0.972403
vt 0.826833 0.887097
vt 0.826798 0.899386
vt 0.825697 0.860251
vt 0.823094 0.860895
vt 0.828068 0.860457
vt 0.827374 0.873408
vt 0.896497 0.928666
vt 0.898703 0.914159
vt 0.909316 0.961190
vt 0.913826 0.945109
vt 0.907834 0.973656
vt 0.926142 0.974434
vt 0.869372 0.937808
vt 0.852817 0.935353
vt 0.891531 0.941371
s 1
usemtl Material.001
f 283/215/275 331/216/276 322/217/277 277/218/278 329/219/278
f 429/220/279 324/221/280 279/222/281 323/223/282
f 428/224/283 327/225/284 281/226/285 326/227/286
f 427/228/287 432/229/288 431/230/289 331/216/276
f 293/231/290 342/232/291 344/233/292
f 286/234/293 338/235/294 290/236/295 368/237/296 303/238/297 374/239/294 305/240/294 373/241/294 300/242/298 333/243/299
f 426/244/300 344/233/292 297/245/301 361/246/302
f 425/247/303 338/248/304 286/249/305 345/250/306
f 278/251/307 348/252/308 288/253/309 363/254/310 299/255/310 335/256/310 287/257/311 359/258/312 295/259/313 355/260/310
f 424/261/314 342/262/315 293/263/316 349/264/317
f 423/265/318 332/266/319 285/267/320 350/268/321
f 422/269/322 339/270/323 292/271/324 351/272/325
f 421/273/326 343/274/327 294/275/328 353/276/329
f 420/277/330 340/278/331 291/279/332 352/280/333
f 419/281/334 337/282/335 289/283/336 354/284/337
f 418/285/338 334/286/339 288/253/309 348/252/308
f 417/287/340 341/288/341 290/289/342 346/290/343
f 416/291/344 385/292/345 314/293/346 382/294/347
f 287/257/311 347/295/348 359/258/312
f 296/296/349 356/297/350 289/298/336 337/299/351 285/300/352 358/301/353 298/302/354 336/303/351 302/304/351 360/305/351
f 415/306/355 370/307/356 308/308/357 393/309/358
f 414/310/359 381/311/360 312/312/361 367/313/362
f 413/314/363 334/315/364 294/316/365 365/317/366
f 412/318/367 387/319/368 317/320/369 392/321/370
f 411/322/371 343/323/372 286/234/293 333/243/299
f 290/236/295 341/324/373 292/325/324 339/326/323 291/327/332 340/328/331 289/298/336 356/297/350 296/296/349 376/329/373 306/330/373 375/331/373 304/332/373 372/333/373 303/238/297 368/237/296
f 410/334/374 383/335/375 311/336/376 378/337/377
f 409/338/378 390/339/379 316/340/380 364/341/381
f 408/342/382 380/343/383 309/344/384 371/345/385
f 407/346/386 382/294/347 314/293/346 388/347/387
f 313/348/388 386/349/389 391/350/390
f 317/320/391 387/319/391 316/340/392 386/349/389 313/348/388 379/351/391 310/352/393 384/353/394 315/354/395 389/355/391
f 406/356/396 385/292/345 311/336/376 395/357/397
f 405/358/398 391/350/390 318/359/399 357/360/400
f 404/361/401 383/335/402 307/362/403 394/363/404
f 403/364/405 388/347/406 314/293/346 396/365/407
f 402/366/408 377/367/409 310/352/410 399/368/411
f 401/369/412 379/351/413 313/348/388 397/370/414
f 400/371/415 389/355/416 315/354/417 398/372/418
f 392/321/370 317/320/369 389/355/416 400/371/415
f 303/238/419 392/321/370 400/371/415 374/239/420
f 374/239/420 400/371/415 398/372/418 305/240/421
f 399/368/411 310/352/410 379/351/413 401/369/412
f 302/304/422 399/368/411 401/369/412 360/305/423
f 360/305/423 401/369/412 397/370/414 296/296/424
f 371/345/385 309/344/384 377/367/409 402/366/408
f 298/302/425 371/345/385 402/366/408 336/303/426
f 336/303/426 402/366/408 399/368/411 302/304/422
f 398/372/418 315/354/417 388/347/406 403/364/405
f 305/240/421 398/372/418 403/364/405 373/241/427
f 373/241/427 403/364/405 396/365/407 300/242/428
f 395/357/397 311/336/376 383/335/402 404/361/401
f 301/373/429 395/357/397 404/361/401 366/374/430
f 366/374/430 404/361/401 394/363/404 299/375/431
f 397/370/414 313/348/388 391/350/390 405/358/398
f 296/296/424 397/370/414 405/358/398 376/329/432
f 376/329/432 405/358/398 357/360/400 306/330/433
f 396/365/407 314/293/346 385/292/345 406/356/396
f 300/242/428 396/365/407 406/356/396 369/376/434
f 369/376/434 406/356/396 395/357/397 301/373/429
f 386/349/389 316/340/392 390/339/435
f 386/349/389 390/339/435 391/350/390
f 391/350/390 390/339/435 318/359/399
f 377/367/436 309/344/437 382/294/347 407/346/386
f 310/352/393 377/367/436 407/346/386 384/353/394
f 384/353/394 407/346/386 388/347/387 315/354/395
f 367/313/362 312/312/361 380/343/383 408/342/382
f 297/245/438 367/313/362 408/342/382 361/246/439
f 361/246/439 408/342/382 371/345/385 298/302/425
f 357/360/440 318/359/441 390/339/379 409/338/378
f 306/330/442 357/360/440 409/338/378 375/331/443
f 375/331/443 409/338/378 364/341/381 304/332/444
f 370/307/356 307/362/403 383/335/375 410/334/374
f 308/308/357 370/307/356 410/334/374 381/311/445
f 381/311/445 410/334/374 378/337/377 312/312/446
f 365/317/366 294/316/365 343/323/372 411/322/371
f 301/373/447 365/317/366 411/322/371 369/376/448
f 369/376/448 411/322/371 333/243/299 300/242/298
f 364/341/381 316/340/380 387/319/368 412/318/367
f 304/332/444 364/341/381 412/318/367 372/333/449
f 372/333/449 412/318/367 392/321/370 303/238/419
f 363/377/450 288/378/451 334/315/364 413/314/363
f 299/375/452 363/377/450 413/314/363 366/374/453
f 366/374/453 413/314/363 365/317/366 301/373/447
f 393/309/454 308/308/455 381/311/360 414/310/359
f 287/379/456 393/309/454 414/310/359 362/380/457
f 362/380/457 414/310/359 367/313/362 297/245/438
f 394/363/404 307/362/403 370/307/356 415/306/355
f 299/375/431 394/363/404 415/306/355 335/381/458
f 335/381/458 415/306/355 393/309/358 287/379/459
f 347/295/348 277/218/460 322/217/461
f 347/295/348 322/217/461 359/258/312
f 359/258/312 322/217/461 295/259/313
f 378/337/377 311/336/376 385/292/345 416/291/344
f 312/312/446 378/337/377 416/291/344 380/343/462
f 380/343/462 416/291/344 382/294/347 309/344/437
f 351/382/463 292/383/464 341/288/341 417/287/340
f 282/384/465 351/382/463 417/287/340 328/385/466
f 328/385/466 417/287/340 346/290/343 280/386/467
f 353/276/329 294/275/328 334/286/339 418/285/338
f 284/387/468 353/276/329 418/285/338 321/388/469
f 321/388/469 418/285/338 348/252/308 278/251/307
f 350/268/321 285/267/320 337/282/335 419/281/334
f 275/389/470 350/268/321 419/281/334 324/390/471
f 324/390/471 419/281/334 354/284/337 279/391/472
f 354/284/337 289/283/336 340/278/331 420/277/330
f 279/391/473 354/284/337 420/277/330 327/392/474
f 327/392/474 420/277/330 352/280/333 281/393/475
f 345/250/306 286/249/305 343/274/327 421/273/326
f 276/394/476 345/250/306 421/273/326 330/395/477
f 330/395/477 421/273/326 353/276/329 284/387/468
f 352/280/333 291/279/332 339/270/323 422/269/322
f 281/393/475 352/280/333 422/269/322 326/396/478
f 326/396/478 422/269/322 351/272/325 282/397/479
f 349/264/317 293/263/316 332/266/319 423/265/318
f 283/398/480 349/264/317 423/265/318 319/399/481
f 319/399/481 423/265/318 350/268/321 275/389/470
f 347/400/482 287/401/483 342/262/315 424/261/314
f 277/402/484 347/400/482 424/261/314 329/403/485
f 329/403/485 424/261/314 349/264/317 283/398/480
f 346/290/343 290/289/342 338/248/304 425/247/303
f 280/386/467 346/290/343 425/247/303 325/404/486
f 325/404/486 425/247/303 345/250/306 276/394/476
f 332/405/487 293/231/290 344/233/292 426/244/300
f 285/300/352 332/405/487 426/244/300 358/301/353
f 358/301/353 426/244/300 361/246/302 298/302/354
f 342/232/291 287/379/488 362/380/489
f 342/232/291 362/380/489 344/233/292
f 344/233/292 362/380/489 297/245/301
f 320/406/490 434/407/491 432/229/288 427/228/287
f 275/408/492 320/406/490 427/228/287 319/409/493
f 319/409/493 427/228/287 331/216/276 283/215/275
f 323/223/282 279/222/281 327/225/284 428/224/283
f 280/386/494 433/410/495 435/411/496 328/385/497
f 328/385/497 435/411/496 282/384/498
f 320/406/490 275/408/492 324/221/280 429/220/279
f 276/394/499 434/407/491 430/412/500 325/404/501
f 325/404/501 430/412/500 433/410/495 280/386/494
f 430/412/500 429/220/279 323/223/282 433/410/495
f 431/230/289 284/387/502 321/388/503 278/251/503 355/260/503 295/259/504
f 433/410/495 323/223/282 428/224/283 435/411/496
f 434/407/491 276/394/499 330/395/505 432/229/288
f 435/411/496 428/224/283 326/227/286 282/384/498
f 432/229/288 330/395/505 284/387/502 431/230/289
f 434/407/491 320/406/490 429/220/279 430/412/500
f 331/216/276 431/230/289 295/259/504 322/217/277
o leftEar
v -0.813872 0.404368 -0.869692
v -0.794385 0.153096 -0.894575
v -1.021687 0.196446 -0.605046
v -0.966024 0.127589 -0.676067
v -0.658519 0.433172 -1.068059
v -0.660647 0.202195 -1.065342
v -0.585605 0.356636 -1.161842
v -0.565308 0.261727 -1.188267
v -0.926403 0.337135 -0.726016
v -0.881541 0.148410 -0.783299
v -0.865994 0.394378 -0.868121
v -0.848076 0.157574 -0.891541
v -1.050148 0.201001 -0.631502
v -1.000865 0.139343 -0.695288
v -0.725976 0.419756 -1.046895
v -0.728581 0.200715 -1.043568
v -0.659150 0.345603 -1.131534
v -0.625490 0.256127 -1.174513
v -0.967497 0.332406 -0.738531
v -0.925338 0.154290 -0.792722
v -1.000207 0.161808 -0.632407
v -0.727429 0.391195 -1.045841
v -0.963063 0.311154 -0.744983
v -0.867986 0.365855 -0.866374
v -1.021914 0.163004 -0.670186
v -0.870525 0.221026 -0.880006
v -0.939743 0.190672 -0.786265
v -0.829422 0.373580 -0.915187
v -0.748113 0.217972 -1.019430
v -0.727135 0.234871 -1.045794
v -0.824386 0.192289 -0.922330
v -0.672863 0.285116 -1.115092
v -0.990407 0.172848 -0.670696
v -1.017056 0.205596 -0.636662
v -0.847219 0.354703 -0.853103
v -0.812547 0.360661 -0.897382
v -0.914938 0.221245 -0.767001
v -0.934738 0.304615 -0.741354
v -0.717559 0.376809 -1.018666
v -0.840020 0.257522 -0.862838
v -0.807549 0.203047 -0.903773
v -0.717605 0.241257 -1.018607
v -0.737769 0.221964 -0.993293
v -0.667168 0.283809 -1.083413
v -0.871041 0.372434 -0.796695
v -0.798303 0.332985 -0.878887
v -0.924420 0.134462 -0.729234
v -1.014168 0.177351 -0.615886
v -0.653298 0.372061 -1.064040
v -0.735636 0.420938 -0.969590
v -0.727993 0.176828 -0.979349
v -0.563005 0.314031 -1.184082
v -0.619239 0.395488 -1.118225
v -0.601308 0.230287 -1.141121
v -0.977477 0.268486 -0.661487
v -0.838683 0.150318 -0.838012
v -0.894905 0.299649 -0.755560
v -0.917504 0.364975 -0.802359
v -0.863606 0.188658 -0.882355
v -0.964661 0.146676 -0.742319
v -1.039392 0.179856 -0.647060
v -0.849007 0.369687 -0.890188
v -0.794866 0.410002 -0.958270
v -0.787588 0.177091 -0.967575
v -0.639129 0.300441 -1.157098
v -0.690619 0.384891 -1.091366
v -0.673560 0.227331 -1.113148
v -1.009818 0.268420 -0.684863
v -0.887287 0.155535 -0.841403
v -0.968355 0.319257 -0.739400
v -0.820610 0.150513 -0.893594
v -0.694435 0.197638 -1.054695
v -1.036833 0.196371 -0.615925
v -0.982454 0.132386 -0.686932
v -0.947727 0.337938 -0.731273
v -0.840227 0.403653 -0.868537
v -0.585457 0.256322 -1.193845
v -0.622119 0.351297 -1.147032
v -0.902581 0.147925 -0.788924
v -0.692222 0.430391 -1.057520
v -0.982466 0.142901 -0.652546
v -0.726122 0.408556 -1.048672
v -0.668973 0.283913 -1.100598
v -0.871505 0.378935 -0.863071
v -1.027207 0.179833 -0.627831
v -0.779059 0.383532 -0.979503
v -0.914661 0.340067 -0.806783
v -1.007592 0.258616 -0.688323
v -1.011637 0.150828 -0.684372
v -0.722657 0.235811 -1.032044
v -0.933614 0.172232 -0.789898
v -0.981381 0.175854 -0.727436
v -0.949124 0.308822 -0.742881
v -0.738495 0.209446 -1.032873
v -0.904546 0.206747 -0.834319
v -1.004177 0.188547 -0.652702
v -0.857669 0.361329 -0.859657
v -0.737745 0.226256 -1.032256
v -0.847858 0.207553 -0.900619
v -0.786218 0.204415 -0.970377
v -0.698591 0.258188 -1.082241
v -0.697220 0.338409 -1.084000
v -0.829983 0.358079 -0.875112
v -0.924026 0.263292 -0.753823
v -0.765560 0.374780 -0.957789
v -0.890196 0.331094 -0.798227
v -0.977553 0.254074 -0.686690
v -0.842827 0.306487 -0.857507
v -0.953833 0.196129 -0.717162
v -0.812198 0.281454 -0.896621
v -0.876788 0.240987 -0.815808
v -0.714144 0.308594 -1.021841
v -0.727290 0.229334 -1.006665
v -0.823721 0.230498 -0.883384
v -0.772210 0.209118 -0.949307
v -0.691966 0.264555 -1.051110
v -0.690849 0.328635 -1.052536
v -0.742885 0.220304 -1.006229
v -1.034879 0.202489 -0.633354
v -1.006535 0.167889 -0.669766
v -0.927246 0.205225 -0.776930
v -0.855440 0.238787 -0.871470
v -0.722502 0.385657 -1.032249
v -0.816108 0.194982 -0.912999
v -0.821463 0.369471 -0.905881
v -0.779213 0.206704 -0.959840
v -0.772324 0.379263 -0.968632
v -0.839700 0.365847 -0.882595
v -0.835830 0.217011 -0.892207
v -0.967503 0.185548 -0.722517
v -0.693433 0.335701 -1.069355
v -0.890713 0.223272 -0.825228
v -0.826231 0.294457 -0.878694
v -0.902581 0.336566 -0.802311
v -0.694775 0.258570 -1.067642
v -0.964805 0.225369 -0.701771
v -0.897153 0.180843 -0.838107
v -0.732519 0.227749 -1.019458
v -0.974060 0.161167 -0.735244
v -0.993763 0.255437 -0.685887
v -1.023132 0.183062 -0.648379
v -0.882690 0.286413 -0.806606
v -0.637500 0.226301 -1.127382
v -0.944066 0.139999 -0.735962
v -0.765668 0.419139 -0.963728
v -0.655546 0.392632 -1.104339
v -0.862237 0.148765 -0.840439
v -0.601187 0.303466 -1.173749
v -0.894822 0.372474 -0.798825
v -0.994496 0.267477 -0.671546
v -0.757972 0.173232 -0.973555
v -0.917233 0.352336 -0.804700
v -0.849135 0.315620 -0.813981
v -0.612512 0.361486 -1.124956
v -0.725759 0.353200 -0.971516
v -0.718545 0.254807 -0.973185
v -0.880788 0.220118 -0.765559
v -0.836306 0.230234 -0.822323
v -0.648820 0.270406 -1.062617
v -0.788180 0.235184 -0.884135
v -0.601343 0.282397 -1.132243
vn 0.7543 0.0705 0.6527
vn 0.7500 0.0436 0.6600
vn 0.7464 0.0386 0.6644
vn 0.7599 0.0693 0.6463
vn 0.7791 0.0712 0.6229
vn 0.8033 0.0740 0.5910
vn 0.7968 0.0956 0.5966
vn 0.7753 0.0964 0.6242
vn 0.8176 0.0672 0.5718
vn 0.8048 0.0157 0.5933
vn 0.8102 0.0912 0.5790
vn 0.8224 0.0886 0.5620
vn 0.7729 0.0783 0.6297
vn 0.7741 -0.0374 0.6319
vn 0.7872 -0.0423 0.6152
vn -0.8139 0.0910 -0.5739
vn -0.8004 0.0253 -0.5990
vn -0.8094 0.0264 -0.5866
vn -0.7640 -0.1134 -0.6352
vn -0.7676 -0.1200 -0.6297
vn -0.7718 -0.0990 -0.6282
vn -0.7605 -0.0557 -0.6470
vn -0.7664 -0.0398 -0.6412
vn -0.7709 -0.0271 -0.6364
vn -0.7757 -0.0130 -0.6310
vn -0.7918 0.0191 -0.6105
vn -0.7731 -0.0561 -0.6318
vn -0.7673 -0.0563 -0.6388
vn -0.0701 -0.9418 -0.3288
vn -0.0766 -0.9752 -0.2077
vn -0.2459 -0.9258 -0.2870
vn -0.2231 -0.8790 -0.4213
vn -0.3404 -0.9403 0.0021
vn -0.5135 -0.8075 0.2903
vn -0.5071 -0.8073 0.3020
vn -0.5429 -0.7579 0.3617
vn -0.5923 -0.7334 0.3336
vn -0.4137 -0.9090 0.0511
vn -0.3605 -0.9327 -0.0107
vn -0.3808 0.7197 0.5806
vn -0.2779 0.8492 0.4491
vn -0.3911 0.8169 0.4239
vn -0.4229 0.7178 0.5530
vn -0.1906 0.9360 0.2959
vn -0.1802 0.9718 0.1520
vn -0.3324 0.9392 0.0862
vn -0.3341 0.9230 0.1910
vn -0.3375 0.2629 -0.9039
vn -0.2591 0.2240 -0.9395
vn -0.5889 0.1358 -0.7967
vn -0.6072 0.1508 -0.7801
vn -0.0979 -0.9894 -0.1075
vn -0.1235 -0.9728 -0.1960
vn -0.2200 -0.9375 -0.2695
vn -0.2438 -0.9457 -0.2151
vn -0.3586 0.5505 -0.7539
vn -0.3835 0.4117 -0.8267
vn -0.6028 0.2406 -0.7608
vn -0.6180 0.2850 -0.7327
vn -0.1845 0.9828 -0.0052
vn -0.2654 0.8845 -0.3836
vn -0.6289 0.5719 -0.5267
vn -0.3269 0.9386 -0.1105
vn -0.1592 -0.9478 -0.2761
vn -0.2088 -0.9291 -0.3052
vn -0.1246 -0.8736 -0.4705
vn -0.0906 -0.9191 -0.3835
vn -0.2159 -0.8671 -0.4489
vn -0.2364 -0.8227 -0.5169
vn -0.7878 0.0026 -0.6159
vn -0.7860 -0.0009 -0.6182
vn -0.7180 0.2631 -0.6444
vn -0.7930 0.3756 -0.4797
vn -0.5966 -0.6402 0.4840
vn -0.7841 0.0087 -0.6206
vn -0.7884 0.0174 -0.6149
vn -0.7826 -0.0149 -0.6224
vn -0.7922 0.0285 -0.6096
vn -0.7931 0.0378 -0.6080
vn -0.7845 0.0095 -0.6201
vn -0.2373 0.6048 -0.7602
vn -0.2087 0.5235 -0.8260
vn -0.5151 0.3213 -0.7946
vn -0.5774 0.3244 -0.7492
vn -0.0494 -0.6984 -0.7140
vn -0.0983 -0.7884 -0.6073
vn -0.1563 -0.7748 -0.6125
vn -0.0885 -0.6863 -0.7219
vn -0.7829 -0.1410 -0.6059
vn -0.7722 -0.1769 -0.6103
vn -0.7582 -0.2294 -0.6103
vn -0.7614 -0.2082 -0.6139
vn -0.5709 0.8163 0.0876
vn -0.4291 0.9021 0.0463
vn -0.3965 0.9172 0.0398
vn -0.5680 0.8190 0.0817
vn -0.7706 -0.1762 -0.6125
vn -0.7621 -0.2185 -0.6095
vn -0.7805 0.0015 -0.6252
vn -0.7856 0.0041 -0.6187
vn -0.7872 0.0013 -0.6166
vn -0.7988 0.3889 -0.4590
vn -0.7917 0.0209 -0.6106
vn -0.6261 0.7785 0.0443
vn -0.6186 0.7842 0.0486
vn -0.6896 0.7242 0.0017
vn -0.6998 0.7115 -0.0643
vn -0.1393 -0.8580 -0.4943
vn -0.1989 -0.8844 -0.4223
vn -0.2641 -0.8460 -0.4632
vn -0.1947 -0.8297 -0.5231
vn -0.7831 0.0025 -0.6219
vn -0.7780 0.0144 -0.6281
vn -0.7609 -0.5048 -0.4078
vn -0.9079 -0.2558 -0.3322
vn -0.7908 -0.0005 -0.6121
vn -0.7877 0.0003 -0.6161
vn -0.7850 0.0040 -0.6195
vn -0.7847 0.0029 -0.6199
vn -0.7881 -0.0047 -0.6155
vn -0.7880 0.0035 -0.6156
vn -0.6711 0.6921 -0.2658
vn -0.6522 0.7255 -0.2199
vn -0.8653 -0.4975 0.0606
vn -0.8709 -0.4797 0.1070
vn -0.9221 -0.3022 -0.2418
vn -0.5430 0.8330 -0.1063
vn -0.3749 0.8323 -0.4082
vn -0.6571 0.6021 -0.4536
vn -0.5905 0.7994 -0.1108
vn -0.0687 0.6655 -0.7432
vn -0.4473 0.6907 -0.5682
vn -0.1004 0.5962 -0.7965
vn -0.2648 -0.8974 -0.3529
vn -0.2451 -0.9084 -0.3388
vn -0.3341 -0.8532 -0.4005
vn -0.3538 -0.8411 -0.4091
vn -0.2483 -0.9174 -0.3111
vn -0.5970 -0.7889 -0.1455
vn -0.2973 -0.8839 -0.3610
vn -0.3472 0.9373 -0.0298
vn -0.1764 0.8963 -0.4069
vn -0.1865 0.8122 -0.5528
vn -0.3839 0.9195 -0.0843
vn -0.4660 0.8831 0.0555
vn -0.3302 0.9439 -0.0035
vn -0.1422 0.9404 -0.3089
vn -0.1638 -0.9472 -0.2756
vn -0.1971 -0.9416 -0.2730
vn -0.6490 -0.7592 -0.0486
vn -0.1336 -0.9145 -0.3819
vn -0.1702 -0.9415 -0.2909
vn -0.0537 0.7267 -0.6849
vn -0.4622 0.7146 -0.5251
vn -0.6310 0.7439 -0.2202
vn -0.5047 0.8549 -0.1196
vn -0.2953 0.8186 -0.4926
vn -0.8459 -0.5166 0.1328
vn -0.8558 -0.4921 0.1594
vn -0.6631 0.7033 -0.2562
vn -0.7922 0.0050 -0.6103
vn -0.7886 -0.0120 -0.6148
vn -0.7865 -0.0142 -0.6174
vn -0.0484 -0.7876 -0.6143
vn -0.0835 -0.8819 -0.4639
vn -0.6154 0.7798 0.1151
vn -0.6847 0.7281 -0.0333
vn -0.5809 0.7946 0.1763
vn -0.5661 0.8092 0.1571
vn -0.5335 0.8376 0.1174
vn -0.7797 -0.0126 -0.6261
vn -0.7824 -0.0157 -0.6226
vn -0.7857 -0.1240 -0.6060
vn -0.7780 -0.1305 -0.6146
vn -0.5313 0.8404 0.1069
vn -0.7980 -0.0772 -0.5977
vn -0.7710 -0.1744 -0.6125
vn -0.8054 -0.0436 -0.5912
vn -0.8011 -0.0695 -0.5945
vn -0.0329 -0.6921 -0.7211
vn -0.0520 -0.6894 -0.7226
vn -0.0258 -0.6930 -0.7205
vn -0.0274 -0.7045 -0.7092
vn -0.1787 0.6057 -0.7754
vn -0.1630 0.5346 -0.8292
vn -0.5081 -0.7272 0.4615
vn -0.4781 -0.5684 0.6696
vn -0.7840 -0.0153 -0.6206
vn 0.0148 -0.8897 -0.4563
vn -0.2569 -0.7857 -0.5627
vn 0.0899 -0.9035 -0.4191
vn 0.0708 -0.9094 -0.4099
vn 0.0004 -0.9393 -0.3431
vn 0.0097 -0.9965 -0.0831
vn -0.0904 -0.9656 -0.2437
vn -0.0248 0.9766 0.2138
vn -0.0450 0.9944 0.0957
vn -0.0504 0.9953 0.0821
vn -0.3018 0.6234 -0.7213
vn -0.3473 0.5516 -0.7584
vn -0.3641 0.3741 -0.8529
vn 0.0823 -0.9857 -0.1469
vn 0.0699 -0.9974 0.0185
vn -0.2510 0.2621 -0.9318
vn -0.1383 0.2173 -0.9663
vn -0.1332 0.8517 0.5069
vn -0.0304 0.9160 0.4001
vn -0.4174 0.7028 0.5760
vn -0.4330 0.7026 0.5647
vn -0.4046 0.7027 0.5852
vn -0.3240 0.7239 0.6091
vn 0.0665 -0.9701 -0.2334
vn -0.8048 0.0924 -0.5864
vn -0.8076 0.0204 -0.5894
vn -0.8109 0.0222 -0.5848
vn 0.7769 0.0713 0.6255
vn 0.7903 -0.0481 0.6109
vn 0.7714 0.0926 0.6296
vn 0.7635 0.1035 0.6374
vn 0.8038 -0.1447 0.5770
vn 0.8181 -0.1181 0.5628
vn 0.8179 -0.0368 0.5742
vn 0.8093 -0.0467 0.5856
vn 0.8113 -0.0361 0.5836
vn 0.7904 -0.1390 0.5966
vn 0.7961 -0.1443 0.5877
vn 0.7929 -0.0490 0.6074
vn 0.7544 -0.0096 0.6564
vn 0.7784 -0.1086 0.6184
vn 0.7826 -0.1294 0.6089
vn 0.7855 -0.1434 0.6020
vt 0.675030 0.981882
vt 0.654737 0.974413
vt 0.635871 0.965175
vt 0.637181 0.960335
vt 0.680468 0.970656
vt 0.736454 0.965064
vt 0.760622 0.963255
vt 0.763440 0.976563
vt 0.738314 0.980076
vt 0.774774 0.957467
vt 0.787990 0.943121
vt 0.783687 0.954114
vt 0.774437 0.965326
vt 0.695557 0.968791
vt 0.678211 0.952712
vt 0.692967 0.949724
vt 0.758057 0.904582
vt 0.758641 0.901377
vt 0.776317 0.894319
vt 0.719696 0.843644
vt 0.723163 0.852026
vt 0.723790 0.860125
vt 0.717100 0.855863
vt 0.709133 0.850937
vt 0.693621 0.851408
vt 0.678274 0.853530
vt 0.674214 0.851117
vt 0.670640 0.848654
vt 0.695010 0.844717
vt 0.739130 0.904683
vt 0.738845 0.901509
vt 0.757331 0.898899
vt 0.723060 0.922262
vt 0.700682 0.924667
vt 0.696156 0.920452
vt 0.718112 0.917802
vt 0.647919 0.944379
vt 0.643861 0.949571
vt 0.640115 0.955442
vt 0.634044 0.958483
vt 0.628058 0.960891
vt 0.630778 0.954706
vt 0.634583 0.947328
vt 0.637726 0.942560
vt 0.641838 0.938522
vt 0.645247 0.941328
vt 0.615993 0.866855
vt 0.616481 0.880019
vt 0.619024 0.878905
vt 0.618586 0.866931
vt 0.616376 0.891772
vt 0.615917 0.903679
vt 0.618683 0.901519
vt 0.618996 0.890132
vt 0.613262 0.959164
vt 0.614310 0.965942
vt 0.619024 0.962758
vt 0.617862 0.956423
vt 0.686498 0.928199
vt 0.672778 0.932203
vt 0.669419 0.928091
vt 0.682281 0.924491
vt 0.613162 0.943012
vt 0.612696 0.951693
vt 0.617112 0.948939
vt 0.617123 0.940042
vt 0.614759 0.919116
vt 0.612678 0.934121
vt 0.616033 0.930840
vt 0.617679 0.916397
vt 0.658300 0.935639
vt 0.655289 0.931597
vt 0.766109 0.922964
vt 0.745721 0.921844
vt 0.739736 0.916811
vt 0.759885 0.917345
vt 0.735829 0.883273
vt 0.720568 0.885123
vt 0.720576 0.872384
vt 0.735299 0.871525
vt 0.632048 0.963112
vt 0.668545 0.902446
vt 0.688465 0.904388
vt 0.707086 0.904280
vt 0.714300 0.904228
vt 0.721318 0.904264
vt 0.722054 0.907716
vt 0.720062 0.911217
vt 0.693944 0.911888
vt 0.667491 0.909536
vt 0.667434 0.906671
vt 0.789025 0.872806
vt 0.791771 0.880494
vt 0.787741 0.878954
vt 0.784410 0.873663
vt 0.774028 0.888662
vt 0.755418 0.895886
vt 0.753505 0.892652
vt 0.771186 0.885887
vt 0.767564 0.856387
vt 0.751055 0.854381
vt 0.750254 0.849377
vt 0.765839 0.851976
vt 0.676533 0.857889
vt 0.680568 0.856372
vt 0.682761 0.859111
vt 0.678829 0.860387
vt 0.736470 0.852752
vt 0.735364 0.845859
vt 0.674161 0.855407
vt 0.670031 0.857401
vt 0.659022 0.863345
vt 0.649465 0.871573
vt 0.657543 0.887417
vt 0.654792 0.898842
vt 0.643718 0.886889
vt 0.636917 0.874972
vt 0.631635 0.863831
vt 0.649212 0.856368
vt 0.768437 0.877536
vt 0.751841 0.881602
vt 0.750383 0.870362
vt 0.766018 0.868927
vt 0.662231 0.865020
vt 0.672785 0.859708
vt 0.675165 0.862821
vt 0.665576 0.867887
vt 0.737754 0.898328
vt 0.720933 0.900965
vt 0.720618 0.897452
vt 0.736679 0.894913
vt 0.714799 0.881182
vt 0.714491 0.864995
vt 0.673383 0.896359
vt 0.664433 0.883974
vt 0.673296 0.879525
vt 0.695722 0.857487
vt 0.708789 0.857886
vt 0.709797 0.877326
vt 0.708038 0.897221
vt 0.690655 0.898175
vt 0.736274 0.865482
vt 0.750984 0.864714
vt 0.660788 0.886225
vt 0.653036 0.871934
vt 0.656917 0.872456
vt 0.767475 0.864680
vt 0.783426 0.866448
vt 0.780341 0.868823
vt 0.715791 0.860020
vt 0.722297 0.866046
vt 0.714330 0.901060
vt 0.707643 0.901064
vt 0.714399 0.897395
vt 0.689577 0.901303
vt 0.670986 0.899611
vt 0.694706 0.854416
vt 0.708973 0.854198
vt 0.751642 0.859373
vt 0.769108 0.860704
vt 0.786299 0.863920
vt 0.737147 0.859651
vt 0.782961 0.859440
vt 0.780209 0.855346
vt 0.794844 0.882500
vt 0.775965 0.891652
vt 0.792858 0.872680
vt 0.795327 0.880451
vt 0.784722 0.926322
vt 0.777726 0.919595
vt 0.785823 0.931303
vt 0.772301 0.928435
vt 0.751779 0.926499
vt 0.675627 0.936181
vt 0.661003 0.939656
vt 0.613210 0.905686
vt 0.611891 0.921768
vt 0.609564 0.937268
vt 0.609318 0.946033
vt 0.608258 0.954063
vt 0.704919 0.928401
vt 0.690113 0.931851
vt 0.608201 0.960601
vt 0.611588 0.966252
vt 0.613847 0.880970
vt 0.613709 0.893259
vt 0.615359 0.854144
vt 0.617953 0.854825
vt 0.612986 0.854316
vt 0.613499 0.867276
vt 0.728188 0.926516
vt 0.739140 0.907904
vt 0.712435 0.967315
vt 0.708848 0.945995
vt 0.713103 0.983627
vt 0.693850 0.982699
vt 0.773516 0.939804
vt 0.755982 0.941235
vt 0.732492 0.943509
s 1
usemtl Material.001
f 444/413/506 490/414/507 438/415/507 483/416/508 492/417/509
f 590/418/510 484/419/511 440/420/512 485/421/513
f 589/422/514 487/423/515 442/424/516 488/425/517
f 588/426/518 492/417/509 592/427/519 593/428/520
f 454/429/521 505/430/522 503/431/523
f 447/432/524 494/433/525 461/434/526 534/435/527 466/436/527 535/437/527 464/438/528 529/439/529 451/440/530 499/441/527
f 587/442/531 522/443/532 458/444/533 505/430/522
f 586/445/534 506/446/535 447/447/536 499/448/537
f 439/449/538 516/450/539 456/451/540 520/452/541 448/453/542 496/454/539 460/455/539 524/456/539 449/457/543 509/458/544
f 585/459/545 510/460/546 454/461/547 503/462/548
f 584/463/549 511/464/550 446/465/551 493/466/552
f 583/467/553 512/468/554 453/469/555 500/470/556
f 582/471/557 514/472/558 455/473/559 504/474/560
f 581/475/561 513/476/562 452/477/563 501/478/564
f 580/479/565 515/480/566 450/481/567 498/482/568
f 579/483/569 509/458/544 449/457/543 495/484/570
f 578/485/571 507/486/572 451/487/573 502/488/574
f 577/489/575 543/490/576 475/491/577 546/492/578
f 448/453/542 520/452/541 508/493/579
f 457/494/580 521/495/581 463/496/581 497/497/581 459/498/582 519/499/583 446/500/584 498/501/581 450/502/567 517/503/585
f 576/504/586 554/505/587 469/506/588 531/507/589
f 575/508/590 528/509/591 473/510/592 542/511/593
f 574/512/594 526/513/595 455/514/596 495/515/597
f 573/516/598 553/517/599 478/518/600 548/519/601
f 572/520/602 494/433/525 447/432/524 504/521/603
f 451/440/530 529/439/529 464/438/528 533/522/604 465/523/604 536/524/604 467/525/604 537/526/604 457/494/580 517/503/585 450/502/567 501/527/564 452/528/563 500/529/556 453/530/555 502/531/604
f 571/532/605 539/533/606 472/534/607 544/535/608
f 570/536/609 525/537/610 477/538/611 551/539/612
f 569/540/613 532/541/614 470/542/615 541/543/616
f 568/544/617 549/545/618 475/491/577 543/490/576
f 474/546/619 552/547/620 547/548/621
f 478/518/622 550/549/622 476/550/623 545/551/624 471/552/625 540/553/622 474/546/619 547/548/621 477/538/626 548/519/622
f 567/554/627 556/555/628 472/534/607 546/492/578
f 566/556/629 518/557/630 479/558/631 552/547/620
f 565/559/632 555/560/633 468/561/634 544/535/635
f 564/562/636 557/563/637 475/491/577 549/545/638
f 563/564/639 560/565/640 471/552/641 538/566/642
f 562/567/643 558/568/644 474/546/619 540/553/645
f 561/569/646 559/570/647 476/550/648 550/549/649
f 553/517/599 561/569/646 550/549/649 478/518/600
f 464/438/650 535/437/651 561/569/646 553/517/599
f 535/437/651 466/436/652 559/570/647 561/569/646
f 560/565/640 562/567/643 540/553/645 471/552/641
f 463/496/653 521/495/654 562/567/643 560/565/640
f 521/495/654 457/494/655 558/568/644 562/567/643
f 532/541/614 563/564/639 538/566/642 470/542/615
f 459/498/656 497/497/657 563/564/639 532/541/614
f 497/497/657 463/496/653 560/565/640 563/564/639
f 559/570/647 564/562/636 549/545/638 476/550/648
f 466/436/652 534/435/658 564/562/636 559/570/647
f 534/435/658 461/434/659 557/563/637 564/562/636
f 556/555/628 565/559/632 544/535/635 472/534/607
f 462/571/660 527/572/661 565/559/632 556/555/628
f 527/572/661 460/573/662 555/560/633 565/559/632
f 558/568/644 566/556/629 552/547/620 474/546/619
f 457/494/655 537/526/663 566/556/629 558/568/644
f 537/526/663 467/525/664 518/557/630 566/556/629
f 557/563/637 567/554/627 546/492/578 475/491/577
f 461/434/659 530/574/665 567/554/627 557/563/637
f 530/574/665 462/571/660 556/555/628 567/554/627
f 547/548/621 551/539/666 477/538/626
f 547/548/621 552/547/620 551/539/666
f 552/547/620 479/558/631 551/539/666
f 538/566/667 568/544/617 543/490/576 470/542/668
f 471/552/625 545/551/624 568/544/617 538/566/667
f 545/551/624 476/550/623 549/545/618 568/544/617
f 528/509/591 569/540/613 541/543/616 473/510/592
f 458/444/669 522/443/670 569/540/613 528/509/591
f 522/443/670 459/498/656 532/541/614 569/540/613
f 518/557/671 570/536/609 551/539/612 479/558/672
f 467/525/673 536/524/674 570/536/609 518/557/671
f 536/524/674 465/523/675 525/537/610 570/536/609
f 531/507/589 571/532/605 544/535/608 468/561/634
f 469/506/588 542/511/676 571/532/605 531/507/589
f 542/511/676 473/510/677 539/533/606 571/532/605
f 526/513/595 572/520/602 504/521/603 455/514/596
f 462/571/678 530/574/679 572/520/602 526/513/595
f 530/574/679 461/434/526 494/433/525 572/520/602
f 525/537/610 573/516/598 548/519/601 477/538/611
f 465/523/675 533/522/680 573/516/598 525/537/610
f 533/522/680 464/438/650 553/517/599 573/516/598
f 524/575/681 574/512/594 495/515/597 449/576/682
f 460/573/683 527/572/684 574/512/594 524/575/681
f 527/572/684 462/571/678 526/513/595 574/512/594
f 554/505/685 575/508/590 542/511/593 469/506/686
f 448/577/687 523/578/688 575/508/590 554/505/685
f 523/578/688 458/444/669 528/509/591 575/508/590
f 555/560/633 576/504/586 531/507/589 468/561/634
f 460/573/662 496/579/689 576/504/586 555/560/633
f 496/579/689 448/580/690 554/505/587 576/504/586
f 508/493/579 483/416/691 438/415/692
f 508/493/579 520/452/541 483/416/691
f 520/452/541 456/451/540 483/416/691
f 539/533/606 577/489/575 546/492/578 472/534/607
f 473/510/677 541/543/693 577/489/575 539/533/606
f 541/543/693 470/542/668 543/490/576 577/489/575
f 512/581/694 578/485/571 502/488/574 453/582/695
f 443/583/696 489/584/697 578/485/571 512/581/694
f 489/584/697 441/585/698 507/486/572 578/485/571
f 514/472/558 579/483/569 495/484/570 455/473/559
f 445/586/699 482/587/700 579/483/569 514/472/558
f 482/587/700 439/449/538 509/458/544 579/483/569
f 511/464/550 580/479/565 498/482/568 446/465/551
f 436/588/701 485/589/702 580/479/565 511/464/550
f 485/589/702 440/590/703 515/480/566 580/479/565
f 515/480/566 581/475/561 501/478/564 450/481/567
f 440/590/704 488/591/705 581/475/561 515/480/566
f 488/591/705 442/592/706 513/476/562 581/475/561
f 506/446/535 582/471/557 504/474/560 447/447/536
f 437/593/707 491/594/708 582/471/557 506/446/535
f 491/594/708 445/586/699 514/472/558 582/471/557
f 513/476/562 583/467/553 500/470/556 452/477/563
f 442/592/706 487/595/709 583/467/553 513/476/562
f 487/595/709 443/596/710 512/468/554 583/467/553
f 510/460/546 584/463/549 493/466/552 454/461/547
f 444/597/711 480/598/712 584/463/549 510/460/546
f 480/598/712 436/588/701 511/464/550 584/463/549
f 508/599/713 585/459/545 503/462/548 448/600/714
f 438/601/715 490/602/716 585/459/545 508/599/713
f 490/602/716 444/597/711 510/460/546 585/459/545
f 507/486/572 586/445/534 499/448/537 451/487/573
f 441/585/698 486/603/717 586/445/534 507/486/572
f 486/603/717 437/593/707 506/446/535 586/445/534
f 493/604/718 587/442/531 505/430/522 454/429/521
f 446/500/584 519/499/583 587/442/531 493/604/718
f 519/499/583 459/498/582 522/443/532 587/442/531
f 503/431/523 523/578/719 448/577/720
f 503/431/523 505/430/522 523/578/719
f 505/430/522 458/444/533 523/578/719
f 481/605/721 588/426/518 593/428/520 595/606/722
f 436/607/723 480/608/724 588/426/518 481/605/721
f 480/608/724 444/413/506 492/417/509 588/426/518
f 484/419/511 589/422/514 488/425/517 440/420/512
f 441/585/725 489/584/726 596/609/727 594/610/728
f 489/584/726 443/583/729 596/609/727
f 481/605/721 590/418/510 485/421/513 436/607/723
f 437/593/730 486/603/731 591/611/732 595/606/722
f 486/603/731 441/585/725 594/610/728 591/611/732
f 591/611/732 594/610/728 484/419/511 590/418/510
f 592/427/519 456/451/733 516/450/734 439/449/734 482/587/734 445/586/735
f 594/610/728 596/609/727 589/422/514 484/419/511
f 595/606/722 593/428/520 491/594/736 437/593/730
f 596/609/727 443/583/729 487/423/515 589/422/514
f 593/428/520 592/427/519 445/586/735 491/594/736
f 595/606/722 591/611/732 590/418/510 481/605/721
f 492/417/509 483/416/508 456/451/733 592/427/519
o Icosphere.002
v -1.965620 -0.521833 0.000000
v -1.869027 -0.549490 0.052159
v -1.983645 -0.480100 0.084396
v -2.054484 -0.437215 0.000000
v -1.983645 -0.480100 -0.084396
v -1.869027 -0.549490 -0.052159
v -1.898193 -0.481963 0.084396
v -2.012811 -0.412573 0.052159
v -2.012811 -0.412573 -0.052159
v -1.898193 -0.481963 -0.084396
v -1.827354 -0.524849 0.000000
v -1.916218 -0.440230 0.000000
v -1.980551 -0.504467 0.049606
v -1.913181 -0.545253 0.030658
v -1.923776 -0.520723 0.080265
v -1.856405 -0.561509 0.000000
v -1.913181 -0.545253 -0.030658
v -2.022189 -0.479259 0.000000
v -2.032784 -0.454729 0.049606
v -1.980551 -0.504467 -0.049606
v -2.032784 -0.454729 -0.049606
v -1.923776 -0.520723 -0.080265
v -1.831910 -0.547025 0.030658
v -1.831910 -0.547025 -0.030658
v -1.940919 -0.481032 0.099213
v -1.873548 -0.521818 0.080265
v -2.049928 -0.415038 0.030658
v -2.008290 -0.440245 0.080265
v -2.008290 -0.440245 -0.080265
v -2.049928 -0.415038 -0.030658
v -1.873548 -0.521818 -0.080265
v -1.940919 -0.481032 -0.099213
v -1.849053 -0.507334 0.049606
v -1.958062 -0.441340 0.080265
v -2.025433 -0.400555 0.000000
v -1.958062 -0.441340 -0.080265
v -1.849053 -0.507334 -0.049606
v -1.901286 -0.457596 0.049606
v -1.859648 -0.482804 0.000000
v -1.968657 -0.416811 0.030658
v -1.968657 -0.416811 -0.030658
v -1.901286 -0.457596 -0.049606
vn -0.5179 -0.8554 -0.0000
vn -0.0196 -0.8979 0.4398
vn -0.5143 -0.5402 0.6661
vn -0.9180 -0.3965 -0.0000
vn -0.5143 -0.5402 -0.6661
vn -0.0196 -0.8979 -0.4398
vn 0.5143 0.5402 0.6661
vn 0.0196 0.8979 0.4398
vn 0.0196 0.8979 -0.4398
vn 0.5143 0.5402 -0.6661
vn 0.9180 0.3965 -0.0000
vn 0.5179 0.8554 -0.0000
vn -0.5532 -0.7877 0.2713
vn -0.3548 -0.9195 0.1694
vn -0.2910 -0.7541 0.5887
vn -0.0218 -0.9998 -0.0000
vn -0.3548 -0.9195 -0.1694
vn -0.6896 -0.7242 -0.0000
vn -0.7674 -0.5142 0.3828
vn -0.5532 -0.7877 -0.2713
vn -0.7674 -0.5142 -0.3828
vn -0.2910 -0.7541 -0.5887
vn 0.7834 -0.4742 0.4018
vn 0.7834 -0.4742 -0.4018
vn -0.0000 -0.0000 1.0000
vn 0.4053 -0.2454 0.8806
vn -0.7834 0.4742 0.4018
vn -0.4053 0.2454 0.8806
vn -0.4053 0.2454 -0.8806
vn -0.7834 0.4742 -0.4018
vn 0.4053 -0.2454 -0.8806
vn -0.0000 -0.0000 -1.0000
vn 0.7674 0.5142 0.3828
vn 0.2910 0.7541 0.5887
vn 0.0218 0.9998 -0.0000
vn 0.2910 0.7541 -0.5887
vn 0.7674 0.5142 -0.3828
vn 0.5532 0.7877 0.2713
vn 0.6896 0.7242 -0.0000
vn 0.3548 0.9195 0.1694
vn 0.3548 0.9195 -0.1694
vn 0.5532 0.7877 -0.2713
vt 0.835980 0.816893
vt 0.832156 0.814941
vt 0.836731 0.812876
vt 0.828365 0.812220
vt 0.829114 0.819137
vt 0.839775 0.815920
vt 0.838681 0.819990
vt 0.834086 0.820604
vt 0.821908 0.812751
vt 0.838809 0.809216
vt 0.833901 0.809516
vt 0.838980 0.805299
vt 0.843586 0.815095
vt 0.841403 0.811977
vt 0.846111 0.812249
vt 0.842062 0.822278
vt 0.843052 0.818738
vt 0.846522 0.821446
vt 0.833896 0.825519
vt 0.838227 0.824355
vt 0.839225 0.828904
vt 0.832798 0.805079
vt 0.843550 0.808146
vt 0.847166 0.816805
vt 0.843713 0.825687
vt 0.831830 0.829733
vt 0.839503 0.801336
vt 0.835398 0.797523
vt 0.848460 0.800140
vt 0.848389 0.809254
vt 0.845928 0.804143
vt 0.853472 0.809520
vt 0.850531 0.818910
vt 0.850770 0.813878
vt 0.855241 0.817456
vt 0.845512 0.828990
vt 0.849783 0.824556
vt 0.852586 0.828446
vt 0.831462 0.836805
vt 0.842267 0.833702
vt 0.853124 0.836805
vt 0.860983 0.813289
vt 0.848664 0.794014
vt 0.832372 0.793613
s 1
usemtl Material.001
f 597/612/737 610/613/750 609/614/749
f 598/615/738 610/613/750 612/616/752
f 597/612/737 609/614/749 614/617/754
f 597/612/737 614/617/754 616/618/756
f 597/612/737 616/618/756 613/619/753
f 598/615/738 612/616/752 619/620/759
f 599/621/739 611/622/751 621/623/761
f 600/624/740 615/625/755 623/626/763
f 601/627/741 617/628/757 625/629/765
f 602/630/742 618/631/758 627/632/767
f 598/615/738 619/620/759 622/633/762
f 599/621/739 621/623/761 624/634/764
f 600/624/740 623/626/763 626/635/766
f 601/627/741 625/629/765 628/636/768
f 602/630/742 627/632/767 620/637/760
f 603/638/743 629/639/769 634/640/774
f 604/641/744 630/642/770 636/643/776
f 605/644/745 631/645/771 637/646/777
f 606/647/746 632/648/772 638/649/778
f 607/650/747 633/651/773 635/652/775
f 635/652/775 638/649/778 608/653/748
f 635/652/775 633/651/773 638/649/778
f 633/651/773 606/647/746 638/649/778
f 638/649/778 637/646/777 608/653/748
f 638/649/778 632/648/772 637/646/777
f 632/648/772 605/644/745 637/646/777
f 637/646/777 636/643/776 608/653/748
f 637/646/777 631/645/771 636/643/776
f 631/645/771 604/641/744 636/643/776
f 636/643/776 634/640/774 608/653/748
f 636/643/776 630/642/770 634/640/774
f 630/642/770 603/638/743 634/640/774
f 634/640/774 635/654/775 608/653/748
f 634/640/774 629/639/769 635/654/775
f 629/639/769 607/655/747 635/654/775
f 620/637/760 633/651/773 607/650/747
f 620/637/760 627/632/767 633/651/773
f 627/632/767 606/647/746 633/651/773
f 628/636/768 632/648/772 606/647/746
f 628/636/768 625/629/765 632/648/772
f 625/629/765 605/644/745 632/648/772
f 626/635/766 631/645/771 605/644/745
f 626/635/766 623/626/763 631/645/771
f 623/626/763 604/641/744 631/645/771
f 624/634/764 630/642/770 604/641/744
f 624/634/764 621/623/761 630/642/770
f 621/623/761 603/638/743 630/642/770
f 622/633/762 629/639/769 603/638/743
f 622/633/762 619/620/759 629/639/769
f 619/620/759 607/655/747 629/639/769
f 627/632/767 628/636/768 606/647/746
f 627/632/767 618/631/758 628/636/768
f 618/631/758 601/627/741 628/636/768
f 625/629/765 626/635/766 605/644/745
f 625/629/765 617/628/757 626/635/766
f 617/628/757 600/624/740 626/635/766
f 623/626/763 624/634/764 604/641/744
f 623/626/763 615/625/755 624/634/764
f 615/625/755 599/621/739 624/634/764
f 621/623/761 622/633/762 603/638/743
f 621/623/761 611/622/751 622/633/762
f 611/622/751 598/615/738 622/633/762
f 619/620/759 620/637/760 607/650/747
f 619/620/759 612/616/752 620/637/760
f 612/616/752 602/630/742 620/637/760
f 613/619/753 618/631/758 602/630/742
f 613/619/753 616/618/756 618/631/758
f 616/618/756 601/627/741 618/631/758
f 616/618/756 617/628/757 601/627/741
f 616/618/756 614/617/754 617/628/757
f 614/617/754 600/624/740 617/628/757
f 614/617/754 615/625/755 600/624/740
f 614/617/754 609/614/749 615/625/755
f 609/614/749 599/621/739 615/625/755
f 612/616/752 613/619/753 602/630/742
f 612/616/752 610/613/750 613/619/753
f 610/613/750 597/612/737 613/619/753
f 609/614/749 611/622/751 599/621/739
f 609/614/749 610/613/750 611/622/751
f 610/613/750 598/615/738 611/622/751
o Plane.001
v 1.212589 -0.801759 -0.171371
v 1.051747 -0.686872 -0.141183
v 1.201836 -0.774571 -0.172550
v 1.067166 -0.685531 -0.146101
v 1.080950 -0.756292 -0.138705
v 1.099665 -0.746858 -0.145955
v 1.137535 -0.770601 -0.153605
v 1.123715 -0.788992 -0.146379
v 1.034880 -0.631760 -0.145074
v 1.045178 -0.632153 -0.148148
v 1.164459 -0.827641 -0.329302
v 1.003618 -0.712754 -0.299113
v 1.153706 -0.800454 -0.330481
v 1.019036 -0.711413 -0.304032
v 1.032820 -0.782174 -0.296636
v 1.051535 -0.772741 -0.303886
v 1.089406 -0.796483 -0.311536
v 1.075585 -0.814874 -0.304310
v 0.986750 -0.657643 -0.303005
v 0.997048 -0.658035 -0.306079
vn 0.2880 0.1549 0.9450
vn -0.2880 -0.1549 -0.9450
vn 0.8582 0.3962 -0.3265
vn 0.6773 0.6647 -0.3153
vn 0.8787 0.3495 -0.3251
vn 0.2481 0.9411 -0.2298
vn 0.0122 0.9862 -0.1653
vn -0.0098 0.9873 -0.1588
vn 0.8843 0.3357 -0.3245
vn -0.3280 -0.9112 0.2493
vn -0.7385 -0.5923 0.3221
vn -0.8951 -0.3071 0.3231
vn -0.9120 -0.2565 0.3200
vn -0.0879 -0.9784 0.1871
vt 0.940205 0.708782
vt 0.945995 0.707622
vt 0.943378 0.728636
vt 0.939053 0.729455
vt 0.940560 0.694074
vt 0.946050 0.691120
vt 0.938345 0.668007
vt 0.945573 0.671549
vt 0.940329 0.744593
vt 0.937510 0.745198
vt 0.908939 0.706776
vt 0.905124 0.738029
vt 0.898183 0.736235
vt 0.899174 0.702738
vt 0.909715 0.685164
vt 0.899304 0.679341
vt 0.910598 0.650149
vt 0.900879 0.641655
vt 0.903062 0.761913
vt 0.898800 0.765660
vt 0.821202 0.731929
vt 0.822527 0.699452
vt 0.819978 0.758878
vt 0.823206 0.678183
vt 0.823852 0.646732
vt 0.937047 0.748008
vt 0.936728 0.659585
s 1
usemtl Material.001
f 643/656/779 644/657/779 642/658/779 640/659/779
f 646/660/779 645/661/779 644/657/779 643/656/779
f 639/662/779 641/663/779 645/661/779 646/660/779
f 642/658/779 648/664/779 647/665/779 640/659/779
f 653/666/780 650/667/780 652/668/780 654/669/780
f 656/670/780 653/666/780 654/669/780 655/671/780
f 649/672/780 656/670/780 655/671/780 651/673/780
f 652/668/780 650/667/780 657/674/780 658/675/780
f 642/676/781 644/677/782 654/669/782 652/668/781
f 648/678/783 642/676/781 652/668/781 658/675/783
f 645/679/784 641/680/785 651/673/785 655/671/784
f 647/665/786 648/681/786 658/675/786 657/674/786
f 641/682/787 639/662/787 649/672/787 651/673/787
f 644/677/782 645/679/784 655/671/784 654/669/782
f 646/660/788 643/656/789 653/666/789 656/670/788
f 640/659/790 647/665/791 657/674/791 650/667/790
f 643/656/789 640/659/790 650/667/790 653/666/789
f 639/662/792 646/660/788 656/670/788 649/672/792
o Plane.002
v -1.325442 -0.394328 -0.729116
v -1.322192 -0.429749 -0.662582
v -1.343084 -0.521761 -1.267640
v -1.336393 -0.491880 -1.332370
v -1.354288 -0.426999 -1.158115
v -1.295671 -0.458214 -1.109326
v -1.370504 -0.392880 -0.905148
v -1.330425 -0.443156 -0.896999
v -1.325442 -0.254798 -0.729116
v -1.322192 -0.219378 -0.662582
v -1.343084 -0.127365 -1.267640
v -1.336394 -0.157247 -1.332370
v -1.354288 -0.222127 -1.158115
v -1.295671 -0.190912 -1.109326
v -1.370504 -0.256247 -0.905148
v -1.330425 -0.205971 -0.896999
v -1.325442 -0.394328 0.729116
v -1.322192 -0.429749 0.662582
v -1.343084 -0.521761 1.267640
v -1.336393 -0.491880 1.332370
v -1.354288 -0.426999 1.158115
v -1.295671 -0.458214 1.109326
v -1.370504 -0.392880 0.905148
v -1.330425 -0.443156 0.896999
v -1.325442 -0.254798 0.729116
v -1.322192 -0.219378 0.662582
v -1.343084 -0.127365 1.267640
v -1.336394 -0.157247 1.332370
v -1.354288 -0.222127 1.158115
v -1.295671 -0.190912 1.109326
v -1.370504 -0.256247 0.905148
v -1.330425 -0.205971 0.896999
vn -0.9259 -0.3544 0.1306
vn 0.0674 -0.9327 0.3542
vn -0.2202 -0.9448 0.2425
vn -0.4608 -0.8790 0.1224
vn -0.7965 -0.6008 0.0674
vn -0.8140 -0.5761 0.0746
vn -0.9259 0.3544 0.1306
vn 0.0674 0.9327 0.3542
vn -0.2202 0.9448 0.2425
vn -0.4608 0.8790 0.1224
vn -0.7965 0.6008 0.0674
vn -0.8140 0.5761 0.0746
vn -0.9259 -0.3544 -0.1306
vn 0.0674 -0.9327 -0.3542
vn -0.2202 -0.9448 -0.2425
vn -0.4608 -0.8790 -0.1224
vn -0.7965 -0.6008 -0.0674
vn -0.8140 -0.5761 -0.0746
vn -0.9259 0.3544 -0.1306
vn 0.0674 0.9327 -0.3542
vn -0.2202 0.9448 -0.2425
vn -0.4608 0.8790 -0.1224
vn -0.7965 0.6008 -0.0674
vn -0.8140 0.5761 -0.0746
vt 0.973701 0.725064
vt 0.979292 0.742663
vt 0.985282 0.749649
vt 0.983068 0.720295
vt 0.974324 0.692769
vt 0.982571 0.692582
vt 0.979570 0.670441
vt 0.985282 0.662596
s 1
usemtl Material.001
f 663/683/795 661/684/794 662/685/794 664/686/796
f 665/687/797 663/683/795 664/686/796 666/688/798
f 659/689/793 665/687/797 666/688/798 660/690/793
f 671/683/801 672/686/802 670/685/800 669/684/800
f 673/687/803 674/688/804 672/686/802 671/683/801
f 667/689/799 668/690/799 674/688/804 673/687/803
f 679/683/807 680/686/808 678/685/806 677/684/806
f 681/687/809 682/688/810 680/686/808 679/683/807
f 675/689/805 676/690/805 682/688/810 681/687/809
f 687/683/813 685/684/812 686/685/812 688/686/814
f 689/687/815 687/683/813 688/686/814 690/688/816
f 683/689/811 689/687/815 690/688/816 684/690/811
o rat
v 0.000000 0.000000 0.000000
v 0.000000 0.000000 0.000000
v 0.000000 0.000000 0.000000
