# Blender 5.0.1
# www.blender.org
mtllib frame.mtl
o Plane
v 0.000000 1.256929 2.334372
v -0.000000 0.000000 2.334372
v 0.000000 1.256929 1.826217
v -0.000000 0.000000 1.826217
v 0.000000 1.671330 2.334372
v 0.000000 1.671330 1.826217
v 0.000000 1.256929 0.000000
v 0.000000 1.671330 0.000000
v 0.215524 1.256929 1.826217
v 0.215524 1.256929 2.334372
v 0.215524 -0.000000 2.334372
v 0.215524 -0.000000 1.826217
v 0.215524 1.671330 1.826217
v 0.215524 1.671330 2.334372
v 0.215524 1.256929 0.000000
v 0.215524 1.671330 0.000000
v -0.000000 -1.256929 2.334372
v -0.000000 -1.256929 1.826217
v -0.000000 -1.671330 2.334372
v -0.000000 -1.671330 1.826217
v -0.000000 -1.256929 0.000000
v -0.000000 -1.671330 0.000000
v 0.215524 -1.256929 1.826217
v 0.215524 -1.256929 2.334372
v 0.215524 -1.671330 1.826217
v 0.215524 -1.671330 2.334372
v 0.215524 -1.256929 0.000000
v 0.215524 -1.671330 0.000000
v 0.000000 1.256929 -2.334372
v -0.000000 0.000000 -2.334372
v 0.000000 1.256929 -1.826217
v -0.000000 0.000000 -1.826217
v 0.000000 1.671330 -2.334372
v 0.000000 1.671330 -1.826217
v 0.215524 1.256929 -1.826217
v 0.215524 1.256929 -2.334372
v 0.215524 -0.000000 -2.334372
v 0.215524 -0.000000 -1.826217
v 0.215524 1.671330 -1.826217
v 0.215524 1.671330 -2.334372
v -0.000000 -1.256929 -2.334372
v -0.000000 -1.256929 -1.826217
v -0.000000 -1.671330 -2.334372
v -0.000000 -1.671330 -1.826217
v 0.215524 -1.256929 -1.826217
v 0.215524 -1.256929 -2.334372
v 0.215524 -1.671330 -1.826217
v 0.215524 -1.671330 -2.334372
v -0.073418 1.256929 1.826217
v -0.073418 1.256929 2.334372
v -0.073418 0.000000 2.334372
v -0.073418 0.000000 1.826217
v -0.073418 1.671330 1.826217
v -0.073418 1.671330 2.334372
v -0.073418 1.256929 0.000000
v -0.073418 1.671330 0.000000
v -0.073418 -1.256929 1.826217
v -0.073418 -1.256929 2.334372
v -0.073418 -1.671330 1.826217
v -0.073418 -1.671330 2.334372
v -0.073418 -1.256929 0.000000
v -0.073418 -1.671330 0.000000
v -0.073418 1.256929 -1.826217
v -0.073418 1.256929 -2.334372
v -0.073418 0.000000 -2.334372
v -0.073418 0.000000 -1.826217
v -0.073418 1.671330 -1.826217
v -0.073418 1.671330 -2.334372
v -0.073418 -1.256929 -1.826217
v -0.073418 -1.256929 -2.334372
v -0.073418 -1.671330 -1.826217
v -0.073418 -1.671330 -2.334372
vn -0.0000 -0.0000 1.0000
vn -0.0000 -0.0000 -1.0000
vn -0.0000 -1.0000 -0.0000
vn 1.0000 -0.0000 -0.0000
vn -0.0000 1.0000 -0.0000
vn -1.0000 -0.0000 -0.0000
vt 0.593134 0.092612
vt 0.593152 0.237986
vt 0.584660 0.237987
vt 0.584643 0.092615
vt 0.036221 0.092614
vt 0.036247 0.044682
vt 0.044736 0.044686
vt 0.044712 0.092619
vt 0.314677 0.036246
vt 0.525860 0.036214
vt 0.525862 0.044705
vt 0.314677 0.044737
vt 0.584679 0.512609
vt 0.584713 0.657976
vt 0.525940 0.657979
vt 0.525909 0.512619
vt 0.525901 0.464696
vt 0.584672 0.464688
vt 0.314689 0.512645
vt 0.314682 0.464721
vt 0.525899 0.439771
vt 0.584669 0.439765
vt 0.442084 0.572514
vt 0.314647 0.567588
vt 0.314680 0.552302
vt 0.452355 0.558936
vt 0.593159 0.431276
vt 0.593156 0.383351
vt 0.618082 0.383350
vt 0.618085 0.431275
vt 0.448072 0.660502
vt 0.465684 0.660497
vt 0.618078 0.237984
vt 0.314679 0.439796
vt 0.036192 0.431324
vt 0.036195 0.383392
vt 0.044686 0.383393
vt 0.044684 0.431328
vt 0.584668 0.431275
vt 0.584665 0.383352
vt 0.044740 0.036194
vt 0.103501 0.036225
vt 0.103498 0.044716
vt 0.584720 0.803360
vt 0.525952 0.803347
vt 0.584702 0.851295
vt 0.525943 0.851274
vt 0.314774 0.851283
vt 0.314761 0.803359
vt 0.525852 0.011288
vt 0.584612 0.011265
vt 0.584625 0.036193
vt 0.441945 0.747240
vt 0.452199 0.760830
vt 0.313340 0.767085
vt 0.313492 0.751804
vt 0.593118 0.044682
vt 0.618043 0.044672
vt 0.618060 0.092604
vt 0.314677 0.011321
vt 0.103459 0.439820
vt 0.044686 0.439822
vt 0.103459 0.431328
vt 0.525898 0.431281
vt 0.036193 0.238004
vt 0.044684 0.238006
vt 0.044699 0.512693
vt 0.103469 0.512681
vt 0.103502 0.658063
vt 0.044728 0.658094
vt 0.044691 0.464755
vt 0.103462 0.464748
vt 0.185668 0.571633
vt 0.175209 0.558092
vt 0.011265 0.431318
vt 0.011269 0.383389
vt 0.182087 0.658369
vt 0.164161 0.657999
vt 0.011267 0.237999
vt 0.584627 0.044684
vt 0.044807 0.803498
vt 0.103575 0.803443
vt 0.103615 0.851370
vt 0.044863 0.851436
vt 0.044758 0.011265
vt 0.103511 0.011299
vt 0.182127 0.745181
vt 0.171197 0.758428
vt 0.011295 0.092601
vt 0.011323 0.044665
vt 0.525894 0.383357
vt 0.525889 0.237997
vt 0.314678 0.431305
vt 0.314675 0.383380
vt 0.525874 0.092631
vt 0.314675 0.092661
vt 0.103456 0.238018
vt 0.103457 0.383396
vt 0.103481 0.092643
s 0
usemtl frametext
f 17/1/1 2/2/1 51/3/1 58/4/1
f 41/5/2 43/6/2 72/7/2 70/8/2
f 22/9/3 20/10/3 59/11/3 62/12/3
f 10/13/4 11/14/4 12/15/4 9/16/4
f 10/13/4 9/16/4 13/17/4 14/18/4
f 13/17/4 9/16/4 15/19/4 16/20/4
f 6/21/5 5/22/5 14/18/5 13/17/5
f 3/23/3 7/24/3 15/25/3 9/26/3
f 5/27/1 1/28/1 10/29/1 14/30/1
f 4/31/2 3/23/2 9/26/2 12/32/2
f 1/28/1 2/2/1 11/33/1 10/29/1
f 8/34/5 6/21/5 13/17/5 16/20/5
f 33/35/2 29/36/2 64/37/2 68/38/2
f 1/28/1 5/27/1 54/39/1 50/40/1
f 43/41/3 44/42/3 71/43/3 72/7/3
f 24/44/4 23/45/4 12/15/4 11/14/4
f 24/44/4 26/46/4 25/47/4 23/45/4
f 25/47/4 28/48/4 27/49/4 23/45/4
f 20/10/3 25/50/3 26/51/3 19/52/3
f 18/53/5 23/54/5 27/55/5 21/56/5
f 19/57/1 26/58/1 24/59/1 17/1/1
f 4/31/2 12/32/2 23/54/2 18/53/2
f 17/1/1 24/59/1 11/33/1 2/2/1
f 22/9/3 28/60/3 25/50/3 20/10/3
f 34/61/5 33/62/5 68/38/5 67/63/5
f 5/22/5 6/21/5 53/64/5 54/39/5
f 30/65/2 41/5/2 70/8/2 65/66/2
f 36/67/4 35/68/4 38/69/4 37/70/4
f 36/67/4 40/71/4 39/72/4 35/68/4
f 39/72/4 16/20/4 15/19/4 35/68/4
f 34/61/5 39/72/5 40/71/5 33/62/5
f 31/73/3 35/74/3 15/25/3 7/24/3
f 33/35/2 40/75/2 36/76/2 29/36/2
f 32/77/1 38/78/1 35/74/1 31/73/1
f 29/36/2 36/76/2 37/79/2 30/65/2
f 8/34/5 16/20/5 39/72/5 34/61/5
f 19/57/1 17/1/1 58/4/1 60/80/1
f 20/10/3 19/52/3 60/80/3 59/11/3
f 29/36/2 30/65/2 65/66/2 64/37/2
f 46/81/4 37/70/4 38/69/4 45/82/4
f 46/81/4 45/82/4 47/83/4 48/84/4
f 47/83/4 45/82/4 27/49/4 28/48/4
f 44/42/3 43/41/3 48/85/3 47/86/3
f 42/87/5 21/56/5 27/55/5 45/88/5
f 43/6/2 41/5/2 46/89/2 48/90/2
f 32/77/1 42/87/1 45/88/1 38/78/1
f 41/5/2 30/65/2 37/79/2 46/89/2
f 22/9/3 44/42/3 47/86/3 28/60/3
f 2/2/1 1/28/1 50/40/1 51/3/1
f 50/40/6 49/91/6 52/92/6 51/3/6
f 50/40/6 54/39/6 53/64/6 49/91/6
f 53/64/6 56/93/6 55/94/6 49/91/6
f 58/4/6 51/3/6 52/92/6 57/95/6
f 58/4/6 57/95/6 59/11/6 60/80/6
f 59/11/6 57/95/6 61/96/6 62/12/6
f 64/37/6 65/66/6 66/97/6 63/98/6
f 64/37/6 63/98/6 67/63/6 68/38/6
f 67/63/6 63/98/6 55/94/6 56/93/6
f 70/8/6 69/99/6 66/97/6 65/66/6
f 70/8/6 72/7/6 71/43/6 69/99/6
f 71/43/6 62/12/6 61/96/6 69/99/6
f 52/92/6 49/91/6 55/94/6 63/98/6 66/97/6 69/99/6 61/96/6 57/95/6
f 8/34/5 34/61/5 67/63/5 56/93/5
f 44/42/3 22/9/3 62/12/3 71/43/3
f 6/21/5 8/34/5 56/93/5 53/64/5
