# Blender 5.0.1
# www.blender.org
mtllib lamp.mtl
o lamp
v 0.431396 0.527182 -0.704567
v 0.483914 0.375987 -0.790340
v -0.431396 0.527182 -0.704567
v -0.483914 0.375987 -0.790340
v -0.919362 0.375987 0.000000
v 0.819586 0.527182 0.000000
v -0.819586 0.527182 0.000000
v 0.919362 0.375987 0.000000
v 0.000000 0.375987 -0.870978
v 0.000000 0.527182 -0.776454
v 0.331853 0.836955 0.000000
v -0.711756 0.527182 -0.388227
v 0.798404 0.375987 -0.435489
v -0.798404 0.375987 -0.435489
v 0.711756 0.527182 -0.388227
v -0.174674 0.836955 -0.285282
v 0.431396 0.527182 0.704567
v 0.483914 0.375987 0.790340
v -0.431396 0.527182 0.704567
v -0.483914 0.375987 0.790340
v 0.000000 0.375987 0.870978
v 0.000000 0.527182 0.776454
v -0.711756 0.527182 0.388227
v 0.798404 0.375987 0.435489
v -0.798404 0.375987 0.435489
v 0.711756 0.527182 0.388227
v 0.174674 0.836955 -0.285282
v 0.509905 0.347759 -0.832790
v -0.509905 0.347759 -0.832790
v -0.968741 0.347759 0.000000
v 0.968741 0.347759 0.000000
v 0.000000 0.347759 -0.917760
v -0.919362 -0.499852 0.000000
v 0.841287 0.347759 -0.458880
v -0.841287 0.347759 -0.458880
v -0.483914 -0.499852 -0.790340
v 0.509905 0.347759 0.832790
v -0.509905 0.347759 0.832790
v 0.000000 0.347759 0.917760
v 0.841287 0.347759 0.458880
v -0.841287 0.347759 0.458880
v 0.483914 -0.499852 -0.790340
v 0.509905 -0.447036 -0.832790
v -0.509905 -0.447036 -0.832790
v -0.968741 -0.447036 0.000000
v 0.968741 -0.447036 0.000000
v 0.000000 -0.447036 -0.917760
v 0.841287 -0.447036 -0.458880
v -0.841287 -0.447036 -0.458880
v 0.509905 -0.447036 0.832790
v -0.509905 -0.447036 0.832790
v 0.000000 -0.447036 0.917760
v 0.841287 -0.447036 0.458880
v -0.841287 -0.447036 0.458880
v 0.919362 -0.499852 0.000000
v 0.000000 -0.499852 -0.870978
v 0.798404 -0.499852 -0.435489
v -0.798404 -0.499852 -0.435489
v 0.483914 -0.499852 0.790340
v -0.483914 -0.499852 0.790340
v 0.000000 -0.499852 0.870978
v 0.798404 -0.499852 0.435489
v -0.798404 -0.499852 0.435489
v -3.380110 -1.692173 0.000000
v -1.779150 -1.692173 -2.905751
v 1.779150 -1.692173 -2.905751
v 3.380110 -1.692173 0.000000
v 0.000000 -1.692173 -3.202225
v 1.830924 -2.300258 -2.990310
v 2.935399 -1.692173 -1.601113
v -2.935399 -1.692173 -1.601113
v -1.830924 -2.300258 -2.990310
v 1.779150 -1.692173 2.905751
v -1.779150 -1.692173 2.905751
v 0.000000 -1.692173 3.202225
v 2.935399 -1.692173 1.601113
v -2.935399 -1.692173 1.601113
v -3.478472 -2.300258 0.000000
v -3.423311 -1.742200 0.000000
v -1.801890 -1.742200 -2.942890
v 1.801890 -1.742200 -2.942890
v 3.423311 -1.742200 0.000000
v 0.000000 -1.742200 -3.243153
v 2.972916 -1.742200 -1.621577
v -2.972916 -1.742200 -1.621577
v 1.801890 -1.742200 2.942890
v -1.801890 -1.742200 2.942890
v 0.000000 -1.742200 3.243153
v 2.972916 -1.742200 1.621577
v -2.972916 -1.742200 1.621577
v 3.478472 -2.300258 0.000000
v 0.000000 -2.300258 -3.295411
v 3.020820 -2.300258 -1.647706
v -3.020820 -2.300258 -1.647706
v 1.830924 -2.300258 2.990310
v -1.830924 -2.300258 2.990310
v 0.000000 -2.300258 3.295411
v 3.020820 -2.300258 1.647706
v -3.020820 -2.300258 1.647706
v 1.705777 -1.096012 0.930416
v -1.964202 -1.096012 0.000000
v 1.033875 -1.096012 1.688549
v 0.000000 -1.096012 1.860832
v -1.705777 -1.096012 -0.930416
v -1.033875 -1.096012 -1.688549
v 1.033875 -1.096012 -1.688549
v 1.705777 -1.096012 -0.930416
v -1.033875 -1.096012 1.688549
v -1.705777 -1.096012 0.930416
v 1.964202 -1.096012 0.000000
v 0.000000 -1.096012 -1.860832
v 0.174674 0.544605 -0.285282
v -0.174674 0.544605 -0.285282
v 0.331853 0.544605 0.000000
v -0.331853 0.544605 0.000000
v 0.000000 0.544605 -0.314389
v 0.056828 0.834056 -0.092813
v -0.288192 0.544605 -0.157194
v 0.288192 0.544605 -0.157194
v -0.056828 0.834056 -0.092813
v 0.174674 0.544605 0.285282
v -0.174674 0.544605 0.285282
v 0.000000 0.544605 0.314389
v -0.288192 0.544605 0.157194
v 0.288192 0.544605 0.157194
v 0.107964 0.834056 0.000000
v -0.331853 0.836955 0.000000
v 0.000000 0.836955 -0.314389
v -0.288192 0.836955 -0.157194
v 0.288192 0.836955 -0.157194
v 0.174674 0.836955 0.285282
v -0.174674 0.836955 0.285282
v 0.000000 0.836955 0.314389
v -0.288192 0.836955 0.157194
v 0.288192 0.836955 0.157194
v -0.107964 0.834056 0.000000
v 0.000000 0.834056 -0.102282
v -0.093759 0.834056 -0.051141
v 0.093759 0.834056 -0.051141
v 0.056828 0.834056 0.092813
v -0.056828 0.834056 0.092813
v 0.000000 0.834056 0.102282
v -0.093759 0.834056 0.051141
v 0.093759 0.834056 0.051141
v 0.056828 17.494516 -0.092813
v -0.056828 17.494516 -0.092813
v 0.107964 17.494516 0.000000
v -0.107964 17.494516 0.000000
v 0.000000 17.494516 -0.102282
v 0.000000 17.494516 0.000000
v -0.093759 17.494516 -0.051141
v 0.093759 17.494516 -0.051141
v 0.000000 17.494516 -0.053035
v 0.056828 17.494516 0.092813
v -0.056828 17.494516 0.092813
v 0.000000 17.494516 0.102282
v -0.093759 17.494516 0.051141
v 0.093759 17.494516 0.051141
v 0.000000 17.494516 0.053035
v -3.270352 -2.300258 0.000000
v 0.000000 -2.300258 -3.055054
v -2.773338 -2.300258 1.652705
v 2.718026 -2.300258 -1.653822
v 2.693035 -2.300258 1.654327
v -2.821605 -2.300258 -1.651730
v 3.250284 -2.300258 0.000000
v 0.000000 -2.300258 3.092462
v -1.635137 -2.300258 2.796730
v -1.790322 -2.300258 -2.802584
v 1.703402 -2.300258 2.765101
v 1.727816 -2.300258 -2.803812
v -3.298660 -1.728690 0.000000
v 0.000000 -1.728690 -3.080894
v -2.797445 -1.728690 1.666654
v 2.740331 -1.728690 -1.667819
v 2.715129 -1.728690 1.668290
v -2.846121 -1.728690 -1.665709
v 3.277088 -1.728690 0.000000
v 0.000000 -1.728690 3.118580
v -1.649624 -1.728690 2.820349
v -1.806121 -1.728690 -2.826291
v 1.717132 -1.728690 2.788452
v 1.741752 -1.728690 -2.827528
v 0.000000 -0.991563 0.000000
v 0.000000 -0.991563 -0.214850
v 0.000000 -0.991563 0.214850
v -2.223817 -1.306411 0.000000
v 0.000000 -1.306411 -2.074814
v -1.886298 -1.306411 1.122195
v 1.842851 -1.306411 -1.123246
v 1.825880 -1.306411 1.123297
v -1.919077 -1.306411 -1.121825
v 2.204304 -1.306411 0.000000
v 0.000000 -1.306411 2.099924
v -1.113354 -1.306411 1.899095
v -1.218739 -1.306411 -1.903363
v 1.153827 -1.306411 1.877616
v 1.170406 -1.306411 -1.904196
v -0.900101 -0.832933 0.000000
v 0.000000 -0.832933 -0.834718
v -0.764341 -0.832933 0.451208
v 0.735626 -0.832933 -0.451971
v 0.728800 -0.832933 0.451651
v -0.777526 -0.832933 -0.451399
v 0.881012 -0.832933 0.000000
v 0.000000 -0.832933 0.844478
v -0.453441 -0.832933 0.763699
v -0.495830 -0.832933 -0.765755
v 0.458481 -0.832933 0.755059
v 0.465150 -0.832933 -0.766091
v -0.765270 -0.483838 0.000000
v 0.000000 -0.483838 -0.708726
v -0.650008 -0.483838 0.383048
v 0.623492 -0.483838 -0.383767
v 0.617696 -0.483838 0.383424
v -0.661201 -0.483838 -0.383282
v 0.746928 -0.483838 0.000000
v 0.000000 -0.483838 0.716941
v -0.386048 -0.483838 0.648358
v -0.422037 -0.483838 -0.650176
v 0.388191 -0.483838 0.641023
v 0.393853 -0.483838 -0.650461
v -0.510302 -0.470455 0.000000
v 0.000000 -0.470455 -0.470631
v -0.433774 -0.470455 0.254249
v 0.411763 -0.470455 -0.254876
v 0.407915 -0.470455 0.254499
v -0.441206 -0.470455 -0.254554
v 0.499478 -0.432939 0.000000
v 0.000000 -0.470455 0.475937
v -0.258518 -0.470455 0.430401
v -0.282413 -0.470455 -0.431757
v 0.255536 -0.470455 0.425531
v 0.259295 -0.470455 -0.431946
v -0.417291 -0.991563 0.000000
v 0.000000 -0.991563 -0.383959
v -0.354863 -0.991563 0.207372
v 0.334895 -0.991563 -0.207953
v 0.331756 -0.991563 0.207576
v -0.360925 -0.991563 -0.207691
v 0.401751 -0.991563 0.000000
v 0.000000 -0.991563 0.388217
v -0.211896 -0.991563 0.351070
v -0.231388 -0.991563 -0.352247
v 0.207451 -0.991563 0.347098
v 0.210517 -0.991563 -0.352401
v 2.431558 -1.605483 -1.480468
v -2.527198 -1.605483 -1.478595
v -1.604053 -1.605483 -2.508773
v 0.000000 -1.605483 -2.734770
v 2.409187 -1.605483 1.480795
v 1.523326 -1.605483 2.475095
v -2.483991 -1.605483 1.479342
v -2.928889 -1.605483 0.000000
v 0.000000 -1.605483 2.768129
v -1.465140 -1.605483 2.503407
v 1.545179 -1.605483 -2.509872
v 2.908004 -1.605483 0.000000
v 1.354259 -0.978961 -0.827036
v -1.415361 -0.978961 -0.825990
v -0.899756 -0.978961 -1.401376
v 0.000000 -0.978961 -1.527603
v 1.341765 -0.978961 0.826922
v -1.391229 -0.978961 0.826111
v -1.639718 -0.978961 0.000000
v -0.822168 -0.978961 1.398083
v 0.846983 -0.978961 1.382270
v 0.000000 -0.978961 1.545939
v 0.859189 -0.978961 -1.401990
v 1.620370 -0.978961 0.000000
vn -0.5879 0.7431 -0.3197
vn -0.7357 0.5466 -0.3999
vn -0.6314 0.5368 -0.5596
vn -0.3148 0.7570 -0.5726
vn -0.0000 0.7251 -0.6887
vn -0.0000 0.5301 -0.8479
vn 0.1399 0.5249 -0.8396
vn 0.3148 0.7570 -0.5726
vn 0.5879 0.7431 -0.3197
vn 0.7357 0.5466 -0.3999
vn 0.8346 0.5508 -0.0000
vn 0.6618 0.7497 -0.0000
vn 0.5879 0.7431 0.3197
vn 0.3148 0.7570 0.5726
vn 0.2417 0.8697 0.4303
vn 0.4395 0.8658 0.2391
vn 0.0357 0.9994 -0.0000
vn 0.0317 0.9993 -0.0172
vn -0.0317 0.9993 0.0172
vn -0.0174 0.9994 0.0309
vn -0.0167 0.9994 0.0313
vn 0.2417 0.8697 -0.4303
vn -0.0000 0.8562 -0.5166
vn -0.1399 0.5249 -0.8396
vn -0.3148 0.7570 0.5726
vn -0.5879 0.7431 0.3197
vn -0.4395 0.8658 0.2391
vn -0.2417 0.8697 0.4303
vn -0.0357 0.9994 -0.0000
vn -0.0174 0.9994 -0.0309
vn -0.0317 0.9993 -0.0172
vn -0.0167 0.9994 -0.0313
vn 0.4395 0.8658 -0.2391
vn 0.6314 0.5368 -0.5596
vn -0.6618 0.7497 -0.0000
vn -0.8346 0.5508 -0.0000
vn -0.6314 0.5368 0.5596
vn -0.7357 0.5466 0.3999
vn -0.0000 0.7251 0.6887
vn 0.1399 0.5249 0.8396
vn -0.0000 0.5301 0.8479
vn 0.7357 0.5466 0.3999
vn -0.0000 0.8562 0.5166
vn -0.0000 0.9993 -0.0377
vn 0.0174 0.9994 0.0309
vn 0.0317 0.9993 0.0172
vn 0.0167 0.9994 0.0313
vn 0.4963 0.8682 -0.0000
vn -0.1399 0.5249 0.8396
vn -0.2417 0.8697 -0.4303
vn -0.4395 0.8658 -0.2391
vn -0.0000 0.9993 0.0377
vn 0.6314 0.5368 0.5596
vn 0.8785 -0.0000 -0.4777
vn 0.9635 -0.0000 -0.2676
vn -0.1644 -0.0000 -0.9864
vn -0.0000 -0.0000 -1.0000
vn 0.9635 -0.0000 0.2676
vn 0.8785 -0.0000 0.4777
vn 0.7484 -0.0000 0.6633
vn -0.9635 -0.0000 -0.2676
vn -0.8785 -0.0000 -0.4777
vn -0.0000 -0.0000 1.0000
vn -0.1644 -0.0000 0.9864
vn 0.1644 -0.0000 0.9864
vn -0.7484 -0.0000 -0.6633
vn -0.4963 0.8682 -0.0000
vn 0.7305 -0.6829 -0.0000
vn 0.6449 -0.6790 0.3508
vn 0.6450 -0.6790 0.3506
vn 0.3558 -0.6856 0.6351
vn 0.3473 -0.6853 0.6400
vn -0.7305 -0.6829 -0.0000
vn -0.6449 -0.6790 -0.3508
vn -0.6450 -0.6790 -0.3506
vn -0.0000 -0.6630 0.7486
vn -0.3558 -0.6856 0.6351
vn -0.3473 -0.6853 0.6400
vn -0.3558 -0.6856 -0.6351
vn -0.3473 -0.6853 -0.6400
vn 0.3558 -0.6856 -0.6351
vn 0.6449 -0.6790 -0.3508
vn 0.6450 -0.6790 -0.3506
vn 0.3473 -0.6853 -0.6400
vn -0.6449 -0.6790 0.3508
vn -0.6450 -0.6790 0.3506
vn -0.8785 -0.0000 0.4777
vn -0.9635 -0.0000 0.2676
vn 0.1644 -0.0000 -0.9864
vn -0.7484 -0.0000 0.6633
vn 0.7484 -0.0000 -0.6633
vn 0.4342 0.9008 -0.0000
vn 0.3860 0.8983 0.2099
vn 0.5379 0.7906 0.2925
vn 0.6124 0.7905 -0.0000
vn 0.2067 0.9030 0.3767
vn 0.2961 0.7878 0.5401
vn -0.4342 0.9008 -0.0000
vn -0.3860 0.8983 -0.2099
vn -0.5379 0.7906 -0.2925
vn -0.6124 0.7905 -0.0000
vn -0.0000 0.8896 0.4568
vn -0.2067 0.9030 0.3767
vn -0.2961 0.7878 0.5401
vn -0.0000 0.7835 0.6214
vn -0.2067 0.9030 -0.3767
vn -0.2961 0.7878 -0.5401
vn 0.2067 0.9030 -0.3767
vn 0.3860 0.8983 -0.2099
vn 0.5379 0.7906 -0.2925
vn 0.2961 0.7878 -0.5401
vn -0.3860 0.8983 0.2099
vn -0.5379 0.7906 0.2925
vn -0.0000 -0.6630 -0.7486
vn 0.3687 0.6563 0.6583
vn 0.6679 0.6495 0.3633
vn -0.6679 0.6495 -0.3633
vn -0.7569 0.6536 -0.0000
vn -0.3687 0.6563 0.6583
vn -0.0000 0.6332 0.7740
vn -0.3687 0.6563 -0.6583
vn 0.6679 0.6495 -0.3633
vn 0.3687 0.6563 -0.6583
vn -0.6679 0.6495 0.3633
vn -0.0000 0.7835 -0.6214
vn -0.0000 0.6332 -0.7740
vn -0.0000 0.8896 -0.4568
vn -0.9592 0.0948 -0.2664
vn -0.8744 0.0973 -0.4754
vn -0.8743 0.0973 -0.4755
vn -0.0000 0.0932 0.9956
vn -0.1637 0.0920 0.9822
vn 0.1637 0.0920 0.9822
vn -0.7450 0.0949 -0.6603
vn 0.7450 0.0949 -0.6603
vn 0.8744 0.0973 -0.4754
vn 0.8743 0.0973 -0.4755
vn -0.7450 0.0949 0.6603
vn -0.8744 0.0973 0.4754
vn -0.8743 0.0973 0.4755
vn -0.0000 0.0932 -0.9956
vn 0.1637 0.0920 -0.9822
vn -0.9592 0.0948 0.2664
vn 0.7569 0.6536 -0.0000
vn 0.9639 0.0477 0.2619
vn 0.8776 0.0493 0.4769
vn 0.8774 0.0493 0.4772
vn -0.0000 -1.0000 -0.0000
vn 0.1395 0.0448 0.9892
vn -0.0022 0.0452 0.9990
vn 0.8744 0.0973 0.4754
vn 0.7450 0.0949 0.6603
vn 0.8743 0.0973 0.4755
vn 0.9592 0.0948 0.2664
vn -0.1637 0.0920 -0.9822
vn 0.9592 0.0948 -0.2664
vn -0.0000 0.8566 -0.5159
vn 0.2339 0.8699 -0.4342
vn -0.4390 0.8662 0.2386
vn -0.4956 0.8686 -0.0000
vn 0.4390 0.8662 -0.2386
vn 0.4956 0.8686 -0.0000
vn -0.2339 0.8699 -0.4342
vn -0.2339 0.8699 0.4342
vn -0.4390 0.8662 -0.2386
vn 0.2339 0.8699 0.4342
vn -0.0000 0.8566 0.5159
vn 0.4390 0.8662 0.2386
vn 0.0174 0.9994 -0.0309
vn 0.0167 0.9994 -0.0313
vn -0.0063 0.9999 -0.0112
vn -0.0115 0.9999 -0.0063
vn -0.0115 0.9999 -0.0062
vn -0.0061 0.9999 -0.0113
vn -0.0000 0.9999 0.0137
vn 0.0063 0.9999 0.0112
vn 0.0061 0.9999 0.0113
vn -0.0129 0.9999 -0.0000
vn 0.0115 0.9999 0.0063
vn 0.0129 0.9999 -0.0000
vn 0.0115 0.9999 0.0062
vn 0.0115 0.9999 -0.0063
vn 0.0115 0.9999 -0.0062
vn -0.0000 0.9999 -0.0137
vn -0.0115 0.9999 0.0063
vn -0.0115 0.9999 0.0062
vn -0.0063 0.9999 0.0112
vn -0.0061 0.9999 0.0113
vn 0.0063 0.9999 -0.0112
vn 0.0061 0.9999 -0.0113
vn -0.0000 1.0000 -0.0000
vn -0.8639 0.0457 -0.5017
vn -0.7459 0.0451 -0.6645
vn -0.8636 0.0457 -0.5020
vn 0.8579 0.0487 -0.5115
vn 0.9566 0.0474 -0.2877
vn 0.8580 0.0487 -0.5113
vn -0.0055 0.0456 -0.9989
vn 0.1778 0.0450 -0.9830
vn -0.1886 0.0447 -0.9810
vn -0.8714 0.0460 0.4884
vn -0.9510 0.0446 0.3061
vn -0.8711 0.0460 0.4889
vn -0.1438 0.0446 0.9886
vn 0.3065 -0.9373 0.1661
vn 0.1585 -0.9399 0.3025
vn 0.1976 -0.9050 0.3767
vn 0.3815 -0.9009 0.2069
vn -0.3471 -0.9378 -0.0025
vn -0.3101 -0.9335 -0.1799
vn -0.3851 -0.8954 -0.2235
vn -0.4318 -0.9020 -0.0031
vn -0.1636 -0.9393 0.3016
vn -0.3112 -0.9343 0.1742
vn -0.3866 -0.8965 0.2164
vn -0.2039 -0.9042 0.3754
vn 0.3474 -0.9377 -0.0049
vn 0.4325 -0.9016 -0.0061
vn -0.0009 -0.9286 0.3711
vn -0.0012 -0.8880 0.4598
vn -0.1708 -0.9376 -0.3029
vn -0.2127 -0.9016 -0.3767
vn 0.3024 -0.9360 -0.1802
vn 0.3761 -0.8990 -0.2242
vn -0.0021 -0.9305 -0.3662
vn 0.1616 -0.9369 -0.3101
vn 0.2010 -0.9005 -0.3857
vn -0.0027 -0.8909 -0.4542
vn -0.7570 0.0455 0.6518
vn -0.9467 0.0444 -0.3189
vn 0.7439 0.0482 0.6666
vn 0.7081 0.0471 -0.7045
vn -0.3731 -0.9278 -0.0029
vn -0.3218 -0.9283 -0.1863
vn -0.1726 -0.9800 -0.0995
vn -0.1938 -0.9810 -0.0017
vn -0.1767 -0.9276 0.3290
vn -0.3230 -0.9291 0.1801
vn -0.1732 -0.9802 0.0960
vn -0.0897 -0.9814 0.1698
vn 0.3697 -0.9291 -0.0056
vn 0.3221 -0.9306 0.1738
vn 0.1708 -0.9810 0.0915
vn 0.1937 -0.9811 -0.0032
vn 0.1703 -0.9285 0.3301
vn -0.0011 -0.9259 0.3777
vn -0.0008 -0.9785 0.2062
vn 0.0858 -0.9815 0.1709
vn -0.1833 -0.9271 -0.3270
vn -0.0943 -0.9809 -0.1700
vn 0.3184 -0.9288 -0.1897
vn 0.1684 -0.9806 -0.1003
vn -0.0025 -0.9260 -0.3776
vn 0.1720 -0.9272 -0.3328
vn 0.0887 -0.9807 -0.1741
vn -0.0016 -0.9790 -0.2038
vn -0.7105 -0.3477 0.6118
vn -0.8158 -0.3517 0.4590
vn -0.8173 -0.3517 0.4565
vn 0.9328 -0.3603 -0.0119
vn 0.8190 -0.3601 0.4468
vn 0.8205 -0.3600 0.4441
vn 0.9328 -0.3603 -0.0135
vn 0.1296 -0.3364 0.9328
vn -0.0039 -0.3395 0.9406
vn -0.0042 -0.3395 0.9406
vn -0.8095 -0.3498 -0.4715
vn -0.7008 -0.3451 -0.6244
vn -0.8105 -0.3498 -0.4698
vn 0.8026 -0.3563 -0.4784
vn -0.0076 -0.3432 -0.9392
vn 0.1648 -0.3382 -0.9265
vn -0.0082 -0.3432 -0.9392
vn -0.1804 -0.3378 -0.9238
vn -0.8941 -0.3434 0.2876
vn 0.0524 -0.9986 -0.0006
vn 0.0460 -0.9986 0.0252
vn 0.0462 -0.9986 0.0248
vn 0.0524 -0.9986 -0.0009
vn 0.0249 -0.9987 0.0453
vn -0.0003 -0.9984 0.0561
vn 0.0231 -0.9987 0.0464
vn -0.0759 -0.9949 -0.0663
vn -0.0264 -0.9986 -0.0458
vn -0.0258 -0.9986 -0.0462
vn -0.0769 -0.9948 -0.0671
vn 0.0456 -0.9986 -0.0272
vn -0.0005 -0.9985 -0.0554
vn 0.0249 -0.9986 -0.0467
vn 0.0239 -0.9986 -0.0473
vn -0.0006 -0.9985 -0.0554
vn -0.0758 -0.9950 0.0647
vn -0.1123 -0.9937 -0.0004
vn -0.1123 -0.9937 -0.0012
vn -0.0773 -0.9948 0.0659
vn -0.0255 -0.9986 0.0455
vn -0.0245 -0.9986 0.0461
vn -0.8905 -0.3420 -0.3001
vn 0.6965 -0.3539 0.6242
vn 0.6649 -0.3469 -0.6615
vn -0.1376 -0.3364 0.9316
vn -0.1343 -0.1624 -0.9775
vn 0.0058 -0.1641 -0.9864
vn 0.0060 -0.1641 -0.9864
vn 0.8567 -0.1687 0.4875
vn 0.7362 -0.1667 0.6559
vn 0.8529 -0.1688 0.4941
vn -0.8459 -0.1735 0.5043
vn -0.9439 -0.1685 0.2841
vn -0.8459 -0.1735 0.5044
vn 0.0102 -0.1660 0.9861
vn -0.1708 -0.1634 0.9717
vn 0.0107 -0.1660 0.9861
vn 0.1913 -0.1631 0.9679
vn 0.8639 -0.1698 -0.4742
vn 0.9394 -0.1650 -0.3004
vn 0.8604 -0.1698 -0.4805
vn 0.1459 -0.1625 -0.9759
vn -0.6988 -0.1684 0.6952
vn -0.9511 -0.1697 -0.2581
vn -0.8646 -0.1755 -0.4708
vn -0.8654 -0.1755 -0.4694
vn 0.7470 -0.1681 -0.6432
vn 0.9352 -0.1642 0.3137
vn -0.7336 -0.1721 -0.6574
vn -0.1583 -0.9483 -0.2750
vn -0.0017 -0.9434 -0.3317
vn -0.2812 -0.9464 0.1590
vn -0.3166 -0.9485 -0.0018
vn -0.0007 -0.9421 0.3353
vn -0.1532 -0.9496 0.2735
vn 0.1499 -0.9479 -0.2812
vn 0.2746 -0.9475 -0.1637
vn 0.3161 -0.9487 -0.0037
vn -0.2805 -0.9458 -0.1639
vn 0.1501 -0.9502 0.2732
vn 0.2773 -0.9487 0.1521
vt 0.353189 0.753457
vt 0.358743 0.775156
vt 0.309852 0.791857
vt 0.300084 0.772280
vt 0.250846 0.808179
vt 0.266033 0.826479
vt 0.222527 0.865327
vt 0.203575 0.850419
vt 0.168124 0.908392
vt 0.194357 0.919502
vt 0.175992 0.988490
vt 0.142412 0.982800
vt 0.664530 0.893887
vt 0.624282 0.835197
vt 0.630363 0.829608
vt 0.672188 0.889702
vt 0.278333 0.944212
vt 0.275812 0.976351
vt 0.457502 0.770435
vt 0.508941 0.782910
vt 0.475423 0.863875
vt 0.443318 0.851892
vt 0.197475 0.845501
vt 0.246708 0.803069
vt 0.517332 0.762072
vt 0.461064 0.747919
vt 0.462057 0.741561
vt 0.519883 0.755341
vt 0.407639 0.766735
vt 0.410888 0.852704
vt 0.378704 0.854519
vt 0.348088 0.868785
vt 0.160590 0.904674
vt 0.406606 0.745008
vt 0.571052 0.794298
vt 0.605328 0.851978
vt 0.556781 0.814559
vt 0.694680 0.968961
vt 0.660588 0.976873
vt 0.637871 0.906769
vt 0.574991 0.788662
vt 0.318142 0.888068
vt 0.552369 0.936750
vt 0.533886 0.906467
vt 0.705671 0.967332
vt 0.297066 0.765955
vt 0.351630 0.747338
vt 0.507511 0.881417
vt 0.131374 0.982048
vt 0.008814 0.898320
vt 0.061750 0.836312
vt 0.175567 0.716245
vt 0.246862 0.674553
vt 0.773535 0.798819
vt 0.841767 0.867346
vt 0.705761 0.737750
vt 0.406247 0.737997
vt 0.320039 0.643652
vt 0.395224 0.630546
vt 0.551734 0.650451
vt 0.634217 0.683281
vt 0.782967 0.788696
vt 0.850554 0.854323
vt 0.714148 0.726824
vt 0.316669 0.632358
vt 0.394149 0.617761
vt 0.556061 0.638106
vt 0.640361 0.672291
vt 0.240916 0.663629
vt 0.115985 0.775724
vt 0.052724 0.828399
vt 0.107126 0.766824
vt 0.472591 0.631132
vt 0.474024 0.619196
vt 0.547140 0.455940
vt 0.586476 0.496895
vt 0.543843 0.559395
vt 0.473962 0.517050
vt 0.633750 0.522125
vt 0.612475 0.589699
vt 0.816023 0.478042
vt 0.843294 0.442962
vt 0.898247 0.475333
vt 0.863228 0.524238
vt 0.686465 0.528343
vt 0.737637 0.525271
vt 0.757245 0.588799
vt 0.685646 0.597127
vt 0.861181 0.399103
vt 0.923928 0.415204
vt 0.857078 0.298648
vt 0.832487 0.252941
vt 0.892827 0.211550
vt 0.922378 0.277908
vt 0.781461 0.506182
vt 0.815480 0.560706
vt 0.168405 0.706958
vt 0.000559 0.888010
vt 0.611669 0.592402
vt 0.542446 0.562058
vt 0.900402 0.476543
vt 0.865005 0.525961
vt 0.758028 0.591278
vt 0.685663 0.599826
vt 0.926355 0.415883
vt 0.895400 0.210190
vt 0.924987 0.277120
vt 0.816763 0.562799
vt 0.929807 0.348428
vt 0.932356 0.348402
vt 0.863465 0.349674
vt 0.792769 0.214942
vt 0.851713 0.144122
vt 0.919835 0.488136
vt 0.881101 0.541588
vt 0.764846 0.612871
vt 0.685732 0.626166
vt 0.605709 0.616040
vt 0.947589 0.420597
vt 0.917658 0.198783
vt 0.947813 0.271244
vt 0.828704 0.581695
vt 0.957095 0.348656
vt 0.471720 0.519629
vt 0.854200 0.141948
vt 0.133917 0.263268
vt 0.171607 0.144180
vt 0.204436 0.163762
vt 0.175834 0.263355
vt 0.928276 0.487464
vt 0.887681 0.547992
vt 0.968095 0.348915
vt 0.953419 0.425020
vt 0.931819 0.200737
vt 0.956778 0.268853
vt 0.250697 0.061707
vt 0.379676 0.042288
vt 0.378343 0.080618
vt 0.270031 0.098784
vt 0.828354 0.592128
vt 0.764216 0.624612
vt 0.685862 0.635340
vt 0.602843 0.627436
vt 0.532962 0.601014
vt 0.530736 0.585118
vt 0.456358 0.548055
vt 0.881631 0.127045
vt 0.798123 0.352601
vt 0.793441 0.323133
vt 0.747179 0.448554
vt 0.768037 0.430664
vt 0.779370 0.297958
vt 0.758403 0.280816
vt 0.795671 0.382685
vt 0.719900 0.458826
vt 0.785716 0.409711
vt 0.658825 0.456581
vt 0.689148 0.461359
vt 0.632860 0.442075
vt 0.615156 0.420438
vt 0.026593 0.449013
vt 0.026593 0.405986
vt 0.097628 0.405986
vt 0.097628 0.449013
vt 0.026593 0.114450
vt 0.026593 0.072864
vt 0.097628 0.072864
vt 0.097628 0.114450
vt 0.026593 0.362959
vt 0.097628 0.362959
vt 0.026593 0.033223
vt 0.097628 0.033223
vt 0.026593 0.321372
vt 0.026593 0.281731
vt 0.097628 0.281731
vt 0.097628 0.321372
vt 0.026593 0.242091
vt 0.097628 0.242091
vt 0.026593 0.157477
vt 0.097628 0.157477
vt 0.556898 0.969685
vt 0.294389 0.914081
vt 0.612206 0.072486
vt 0.650255 0.036047
vt 0.685191 0.094596
vt 0.672812 0.106451
vt 0.798752 0.119126
vt 0.791857 0.173198
vt 0.731260 0.139216
vt 0.733503 0.121625
vt 0.698087 0.020746
vt 0.700753 0.089618
vt 0.753798 0.209627
vt 0.705962 0.224914
vt 0.703315 0.156041
vt 0.718878 0.151068
vt 0.657094 0.213344
vt 0.687416 0.152277
vt 0.605326 0.126560
vt 0.670574 0.124043
vt 0.698143 0.020744
vt 0.747008 0.032328
vt 0.716668 0.093386
vt 0.700771 0.089617
vt 0.026593 0.490599
vt 0.097628 0.490599
vt 0.026593 0.200504
vt 0.097628 0.200504
vt 0.026593 0.530240
vt 0.097628 0.530240
vt 0.982625 0.684959
vt 0.983691 0.684959
vt 0.983691 0.993437
vt 0.982625 0.993437
vt 0.973383 0.684959
vt 0.974366 0.684959
vt 0.974366 0.993437
vt 0.973383 0.993437
vt 0.980527 0.684959
vt 0.981558 0.684959
vt 0.981558 0.993437
vt 0.980527 0.993437
vt 0.975397 0.684959
vt 0.975397 0.993437
vt 0.976464 0.684959
vt 0.976464 0.993437
vt 0.984722 0.684959
vt 0.984722 0.993437
vt 0.977531 0.684959
vt 0.977531 0.993437
vt 0.787742 0.065740
vt 0.729921 0.104256
vt 0.616351 0.179943
vt 0.674161 0.141411
vt 0.923654 0.840325
vt 0.923619 0.842062
vt 0.922673 0.842325
vt 0.922673 0.840325
vt 0.923619 0.849726
vt 0.923654 0.851462
vt 0.922673 0.851462
vt 0.922673 0.849463
vt 0.925459 0.841025
vt 0.925613 0.842080
vt 0.924701 0.842062
vt 0.924701 0.840325
vt 0.924701 0.847684
vt 0.924856 0.846628
vt 0.925613 0.845929
vt 0.925613 0.847665
vt 0.923654 0.848417
vt 0.922673 0.848417
vt 0.922673 0.846417
vt 0.923619 0.846681
vt 0.922708 0.843635
vt 0.923654 0.843372
vt 0.923654 0.845371
vt 0.922673 0.845371
vt 0.925459 0.849786
vt 0.924701 0.850486
vt 0.924701 0.848749
vt 0.925613 0.848731
vt 0.924701 0.843127
vt 0.925613 0.843146
vt 0.925613 0.844882
vt 0.924856 0.844183
vt 0.979545 0.684959
vt 0.979545 0.993437
vt 0.978562 0.684959
vt 0.978562 0.993437
vt 0.985705 0.684959
vt 0.985705 0.993437
vt 0.454199 0.560331
vt 0.893484 0.124927
vt 0.562987 0.392409
vt 0.486817 0.469191
vt 0.467743 0.433070
vt 0.531182 0.371776
vt 0.170701 0.382841
vt 0.204487 0.362043
vt 0.365898 0.489669
vt 0.252724 0.463704
vt 0.270703 0.430051
vt 0.366902 0.452555
vt 0.573298 0.154344
vt 0.608175 0.274931
vt 0.566915 0.273157
vt 0.539779 0.172268
vt 0.502189 0.069635
vt 0.480668 0.104732
vt 0.224955 0.176785
vt 0.282565 0.119206
vt 0.305893 0.157233
vt 0.263575 0.200352
vt 0.542753 0.272288
vt 0.512461 0.359094
vt 0.476025 0.334702
vt 0.498692 0.270721
vt 0.467599 0.124124
vt 0.520017 0.183600
vt 0.481596 0.205365
vt 0.443149 0.160618
vt 0.199661 0.263675
vt 0.244087 0.264170
vt 0.377670 0.102983
vt 0.376432 0.146374
vt 0.456254 0.412889
vt 0.434829 0.375235
vt 0.223784 0.350879
vt 0.261590 0.328916
vt 0.367465 0.430626
vt 0.283115 0.410128
vt 0.305855 0.373083
vt 0.368733 0.387804
vt 0.461179 0.269368
vt 0.445117 0.314126
vt 0.411553 0.291852
vt 0.419382 0.267831
vt 0.422344 0.192176
vt 0.449086 0.223661
vt 0.413937 0.243491
vt 0.399395 0.227701
vt 0.281874 0.264984
vt 0.295863 0.220395
vt 0.331528 0.242533
vt 0.323431 0.265811
vt 0.325593 0.190031
vt 0.375467 0.182959
vt 0.374674 0.222520
vt 0.347655 0.227095
vt 0.416385 0.342827
vt 0.395819 0.306316
vt 0.293983 0.310202
vt 0.329208 0.289872
vt 0.369767 0.351273
vt 0.325106 0.341315
vt 0.346622 0.305557
vt 0.370897 0.311487
vt 0.847419 0.683153
vt 0.868769 0.671052
vt 0.874268 0.690249
vt 0.860533 0.696687
vt 0.870702 0.770327
vt 0.846953 0.757665
vt 0.860658 0.743465
vt 0.875166 0.752355
vt 0.833931 0.736744
vt 0.834200 0.707482
vt 0.853568 0.712569
vt 0.851768 0.731076
vt 0.920396 0.685214
vt 0.932349 0.705913
vt 0.914427 0.711162
vt 0.906050 0.698920
vt 0.897788 0.769955
vt 0.892224 0.751117
vt 0.932349 0.733090
vt 0.919493 0.756579
vt 0.906256 0.743598
vt 0.913215 0.728179
vt 0.896593 0.670748
vt 0.891720 0.688778
vt 0.867934 0.736136
vt 0.877982 0.741399
vt 0.862989 0.715006
vt 0.862637 0.727330
vt 0.903643 0.714440
vt 0.898636 0.705924
vt 0.889404 0.741374
vt 0.898415 0.735635
vt 0.903734 0.725709
vt 0.888895 0.699421
vt 0.877242 0.700091
vt 0.868369 0.705043
vt 0.877317 0.719103
vt 0.876910 0.722723
vt 0.889301 0.718905
vt 0.887582 0.716544
vt 0.881549 0.726989
vt 0.884929 0.726672
vt 0.887721 0.725251
vt 0.889090 0.722184
vt 0.884801 0.714566
vt 0.881408 0.714869
vt 0.878678 0.716052
vt 0.879931 0.719789
vt 0.883195 0.720647
vt 0.886459 0.721500
vt 0.878708 0.725152
s 1
usemtl Material
f 14/1/1 12/2/2 3/3/3 4/4/4
f 9/5/5 10/6/6 1/7/7 2/8/8
f 13/9/9 15/10/10 6/11/11 8/12/12
f 24/13/13 18/14/14 37/15/15 40/16/16
f 6/11/17 15/10/18 119/17/18 114/18/17
f 23/19/19 19/20/20 122/21/21 124/22/19
f 9/5/5 2/8/8 28/23/22 32/24/23
f 4/4/4 3/3/24 10/6/6 9/5/5
f 20/25/25 25/26/26 41/27/27 38/28/28
f 7/29/29 23/19/19 124/22/19 115/30/29
f 3/3/30 12/2/31 118/31/31 113/32/32
f 2/8/8 13/9/9 34/33/33 28/23/22
f 2/8/8 1/7/34 15/10/10 13/9/9
f 5/34/35 7/29/36 12/2/2 14/1/1
f 25/26/26 20/25/25 19/20/37 23/19/38
f 21/35/39 18/14/14 17/36/40 22/37/41
f 24/13/13 8/38/12 6/39/11 26/40/42
f 18/14/14 21/35/39 39/41/43 37/15/15
f 10/6/44 3/3/30 113/32/32 116/42/44
f 17/36/45 26/40/46 125/43/46 121/44/47
f 8/38/12 24/13/13 40/16/16 31/45/48
f 20/25/25 21/35/39 22/37/41 19/20/49
f 14/1/1 4/4/4 29/46/50 35/47/51
f 19/20/20 22/37/52 123/48/52 122/21/21
f 12/2/31 7/29/29 115/30/29 118/31/31
f 21/35/39 20/25/25 38/28/28 39/41/43
f 18/14/14 24/13/13 26/40/42 17/36/53
f 5/34/35 25/26/26 23/19/38 7/29/36
f 34/33/54 31/49/55 46/50/55 48/51/54
f 29/46/56 32/24/57 47/52/57 44/53/56
f 31/45/58 40/16/59 53/54/59 46/55/58
f 40/16/59 37/15/60 50/56/60 53/54/59
f 30/57/61 35/47/62 49/58/62 45/59/61
f 39/41/63 38/28/64 51/60/64 52/61/63
f 37/15/65 39/41/63 52/61/63 50/56/65
f 35/47/62 29/46/66 44/53/66 49/58/62
f 5/34/35 14/1/1 35/47/51 30/57/67
f 13/9/9 8/12/12 31/49/48 34/33/33
f 25/26/26 5/34/35 30/57/67 41/27/27
f 4/4/4 9/5/5 32/24/23 29/46/50
f 46/55/68 53/54/69 62/62/70 55/63/68
f 53/54/69 50/56/71 59/64/72 62/62/70
f 45/59/73 49/58/74 58/65/75 33/66/73
f 52/61/76 51/60/77 60/67/78 61/68/76
f 50/56/71 52/61/76 61/68/76 59/64/72
f 49/58/74 44/53/79 36/69/80 58/65/75
f 43/70/81 48/51/82 57/71/83 42/72/84
f 51/60/77 54/73/85 63/74/86 60/67/78
f 41/27/87 30/57/88 45/59/88 54/73/87
f 32/24/57 28/23/89 43/70/89 47/52/57
f 38/28/90 41/27/87 54/73/87 51/60/90
f 28/23/91 34/33/54 48/51/54 43/70/91
f 110/75/92 100/76/93 76/77/94 67/78/95
f 100/76/93 102/79/96 73/80/97 76/77/94
f 101/81/98 104/82/99 71/83/100 64/84/101
f 103/85/102 108/86/103 74/87/104 75/88/105
f 102/79/96 103/85/102 75/88/105 73/80/97
f 104/82/99 105/89/106 65/90/107 71/83/100
f 106/91/108 107/92/109 70/93/110 66/94/111
f 108/86/103 109/95/112 77/96/113 74/87/104
f 44/53/79 47/52/114 56/97/114 36/69/80
f 48/51/82 46/50/68 55/98/68 57/71/83
f 54/73/85 45/59/73 33/66/73 63/74/86
f 47/52/114 43/70/81 42/72/84 56/97/114
f 76/77/94 73/80/97 86/99/115 89/100/116
f 64/84/101 71/83/100 85/101/117 79/102/118
f 75/88/105 74/87/104 87/103/119 88/104/120
f 73/80/97 75/88/105 88/104/120 86/99/115
f 71/83/100 65/90/107 80/105/121 85/101/117
f 66/94/111 70/93/110 84/106/122 81/107/123
f 74/87/104 77/96/113 90/108/124 87/103/119
f 68/109/125 66/94/111 81/107/123 83/110/126
f 105/89/106 111/111/127 68/109/125 65/90/107
f 107/92/109 110/112/92 67/113/95 70/93/110
f 109/95/112 101/81/98 64/84/101 77/96/113
f 111/111/127 106/91/108 66/94/111 68/109/125
f 79/102/128 85/101/129 94/114/130 78/115/128
f 88/104/131 87/103/132 96/116/132 97/117/131
f 86/99/133 88/104/131 97/117/131 95/118/133
f 85/101/129 80/105/134 72/119/134 94/114/130
f 81/107/135 84/106/136 93/120/137 69/121/135
f 87/103/138 90/108/139 99/122/140 96/116/138
f 83/110/141 81/107/142 69/121/142 92/123/141
f 90/108/139 79/102/143 78/115/143 99/122/140
f 67/78/95 76/77/94 89/100/116 82/124/144
f 65/90/107 68/109/125 83/110/126 80/105/121
f 70/93/110 67/113/95 82/125/144 84/106/122
f 77/96/113 64/84/101 79/102/118 90/108/124
f 160/126/145 165/127/146 177/128/147 172/129/145
f 94/114/148 165/130/148 160/131/148 78/115/148
f 72/119/148 92/123/148 161/132/148 169/133/148 165/130/148 94/114/148
f 92/123/148 69/121/148 93/120/148 163/134/148 171/135/148 161/132/148
f 169/136/149 161/137/150 173/138/150 181/139/149
f 99/122/148 78/115/148 160/131/148 162/140/148
f 96/116/148 99/122/148 162/140/148 168/141/148 167/142/148 97/117/148
f 97/117/148 167/142/148 170/143/148 164/144/148 98/145/148 95/118/148
f 89/100/151 86/99/152 95/118/152 98/145/153
f 82/124/154 89/100/151 98/145/153 91/146/154
f 80/105/155 83/110/141 92/123/141 72/119/155
f 84/106/136 82/125/156 91/147/156 93/120/137
f 56/148/157 42/149/158 106/91/108 111/111/127
f 63/150/159 33/151/160 101/81/98 109/95/112
f 57/152/161 55/153/162 110/112/92 107/92/109
f 36/154/163 56/148/157 111/111/127 105/89/106
f 60/155/164 63/150/159 109/95/112 108/86/103
f 42/149/158 57/152/161 107/92/109 106/91/108
f 58/156/165 36/154/163 105/89/106 104/82/99
f 59/157/166 61/158/167 103/85/102 102/79/96
f 61/158/167 60/155/164 108/86/103 103/85/102
f 33/151/160 58/156/165 104/82/99 101/81/98
f 62/159/168 59/157/166 102/79/96 100/76/93
f 55/160/162 62/159/168 100/76/93 110/75/92
f 112/161/89 116/162/57 128/163/57 27/164/89
f 121/165/60 125/166/59 135/167/59 131/168/60
f 116/162/57 113/169/56 16/170/56 128/163/57
f 125/166/59 114/171/58 11/172/58 135/167/59
f 118/173/62 115/174/61 127/175/61 129/176/62
f 113/169/66 118/173/62 129/176/62 16/170/66
f 115/174/88 124/177/87 134/178/87 127/175/88
f 123/179/63 121/165/65 131/168/65 133/180/63
f 26/40/46 6/39/17 114/181/17 125/43/46
f 1/7/169 10/6/44 116/42/44 112/182/170
f 22/37/52 17/36/45 121/44/47 123/48/52
f 15/10/18 1/7/169 112/182/170 119/17/18
f 131/183/171 135/184/172 144/185/173 140/186/174
f 128/187/175 16/188/176 120/189/177 137/190/175
f 135/184/172 11/191/178 126/192/178 144/185/173
f 129/193/179 127/194/180 136/195/180 138/196/181
f 16/188/176 129/193/179 138/196/181 120/189/177
f 127/194/180 134/197/182 143/198/183 136/195/180
f 133/199/184 131/183/171 140/186/174 142/200/184
f 11/201/178 130/202/185 139/203/186 126/204/178
f 119/205/54 112/161/91 27/164/91 130/206/54
f 122/207/64 123/179/63 133/180/63 132/208/64
f 124/177/87 122/207/90 132/208/90 134/178/87
f 114/209/55 119/205/54 130/206/54 11/210/55
f 142/211/63 140/212/65 154/213/65 156/214/63
f 126/215/55 139/216/54 152/217/54 147/218/55
f 143/219/87 141/220/90 155/221/90 157/222/87
f 141/220/64 142/211/63 156/214/63 155/221/64
f 139/216/54 117/223/91 145/224/91 152/217/54
f 117/223/89 137/225/57 149/226/57 145/224/89
f 140/212/60 144/227/59 158/228/59 154/213/60
f 137/225/57 120/229/56 146/230/56 149/226/57
f 27/231/187 128/187/175 137/190/175 117/232/188
f 130/202/185 27/231/187 117/232/188 139/203/186
f 132/233/189 133/199/184 142/200/184 141/234/190
f 134/197/182 132/233/189 141/234/190 143/198/183
f 153/235/191 151/236/191 148/237/191 150/238/191
f 152/239/191 153/240/191 150/241/191 147/242/191
f 145/243/191 149/244/191 153/245/191 152/246/191
f 149/247/191 146/248/191 151/249/191 153/250/191
f 159/251/191 150/252/191 148/253/191 157/254/191
f 158/255/191 147/256/191 150/257/191 159/258/191
f 154/259/191 158/260/191 159/261/191 156/262/191
f 156/263/191 159/264/191 157/265/191 155/266/191
f 136/267/88 143/219/87 157/222/87 148/268/88
f 120/229/66 138/269/62 151/270/62 146/230/66
f 138/269/62 136/267/61 148/268/61 151/270/62
f 144/227/59 126/271/58 147/272/58 158/228/59
f 164/144/148 166/273/148 91/146/148 98/145/148
f 166/274/148 163/134/148 93/120/148 91/147/148
f 164/275/192 170/276/193 182/277/193 176/278/194
f 162/279/195 160/126/196 172/129/196 174/280/197
f 167/281/198 168/282/199 180/283/199 179/284/198
f 170/276/200 167/281/198 179/284/198 182/277/200
f 163/285/201 166/286/202 178/287/202 175/288/203
f 161/137/150 171/289/204 183/290/204 173/138/150
f 248/291/205 249/292/206 196/293/207 192/294/208
f 258/295/209 251/296/210 191/297/211 193/298/212
f 257/299/213 247/300/214 190/301/215 198/302/216
f 254/303/217 248/291/205 192/294/208 187/304/218
f 249/292/206 250/305/219 188/306/220 196/293/207
f 251/296/210 252/307/221 197/308/222 191/297/211
f 253/309/223 254/303/217 187/304/218 189/310/224
f 255/311/225 256/312/226 195/313/227 194/314/228
f 171/289/229 163/285/201 175/288/203 183/290/229
f 166/286/230 164/275/192 176/278/194 178/287/230
f 165/127/146 169/136/231 181/139/231 177/128/147
f 168/282/232 162/279/195 174/280/197 180/283/232
f 270/315/233 263/316/234 203/317/235 205/318/236
f 269/319/237 259/320/238 202/321/239 210/322/240
f 265/323/241 260/324/242 204/325/243 199/326/244
f 261/327/245 262/328/246 200/329/247 208/330/248
f 263/316/234 267/331/249 209/332/250 203/317/235
f 264/333/251 265/323/241 199/326/244 201/334/252
f 268/335/253 266/336/254 207/337/255 206/338/256
f 267/331/249 268/335/253 206/338/256 209/332/250
f 256/312/226 253/309/223 189/310/224 195/313/227
f 250/305/219 257/299/213 198/302/216 188/306/220
f 247/300/214 258/295/209 193/298/212 190/301/215
f 252/307/221 255/311/225 194/314/228 197/308/222
f 210/339/257 202/340/258 214/341/259 222/342/257
f 199/343/260 204/344/261 216/345/262 211/346/263
f 208/347/264 200/348/265 212/349/266 220/350/264
f 203/351/267 209/352/268 221/353/268 215/354/269
f 201/355/270 199/343/260 211/346/263 213/356/270
f 206/357/271 207/358/272 219/359/272 218/360/273
f 209/352/274 206/357/271 218/360/273 221/353/274
f 202/340/258 205/361/275 217/362/275 214/341/259
f 260/324/242 261/327/245 208/330/248 204/325/243
f 266/336/254 264/333/251 201/334/252 207/337/255
f 262/328/246 269/319/237 210/322/240 200/329/247
f 259/320/238 270/315/233 205/318/236 202/321/239
f 211/346/276 216/345/277 228/363/278 223/364/279
f 220/350/280 212/349/281 224/365/281 232/366/282
f 215/354/283 221/353/284 233/367/285 227/368/286
f 213/356/287 211/346/276 223/364/279 225/369/287
f 218/360/288 219/359/289 231/370/290 230/371/291
f 221/353/284 218/360/288 230/371/291 233/367/285
f 214/341/292 217/362/293 229/372/294 226/373/295
f 212/349/281 222/342/296 234/374/297 224/365/281
f 205/361/298 203/351/267 215/354/269 217/362/298
f 204/344/261 208/347/299 220/350/299 216/345/262
f 207/358/300 201/355/270 213/356/270 219/359/300
f 200/348/265 210/339/301 222/342/301 212/349/266
f 232/366/302 224/365/303 236/375/304 244/376/302
f 227/368/305 233/367/306 245/377/306 239/378/307
f 225/369/308 223/364/309 235/379/309 237/380/310
f 230/371/311 231/370/312 243/381/312 242/382/313
f 233/367/314 230/371/311 242/382/313 245/377/314
f 226/373/315 229/372/316 241/383/316 238/384/317
f 224/365/303 234/374/318 246/385/318 236/375/304
f 231/370/319 225/369/308 237/380/310 243/381/319
f 222/342/296 214/341/292 226/373/295 234/374/297
f 217/362/293 215/354/283 227/368/286 229/372/294
f 216/345/277 220/350/280 232/366/282 228/363/278
f 219/359/289 213/356/287 225/369/287 231/370/290
f 185/386/148 238/384/148 241/383/148 184/387/148
f 186/388/148 184/387/148 241/383/148 239/378/148
f 237/380/148 235/379/148 184/387/148 186/388/148
f 235/379/148 240/389/148 185/386/148 184/387/148
f 242/382/148 243/381/148 237/380/148 186/388/148
f 240/389/148 244/376/148 236/375/148 185/386/148
f 239/378/148 245/377/148 242/382/148 186/388/148
f 236/375/148 246/385/148 238/384/148 185/386/148
f 223/364/320 228/363/321 240/389/322 235/379/320
f 234/374/323 226/373/315 238/384/317 246/385/323
f 229/372/324 227/368/305 239/378/307 241/383/324
f 228/363/321 232/366/325 244/376/325 240/389/322
f 182/277/326 179/284/327 255/311/225 252/307/221
f 175/288/328 178/287/329 258/295/209 247/300/214
f 173/138/330 183/290/331 257/299/213 250/305/219
f 180/283/332 174/280/333 253/309/223 256/312/226
f 179/284/327 180/283/332 256/312/226 255/311/225
f 174/280/333 172/129/334 254/303/217 253/309/223
f 176/278/335 182/277/326 252/307/221 251/296/210
f 181/139/336 173/138/330 250/305/219 249/292/206
f 172/129/334 177/128/337 248/291/205 254/303/217
f 183/290/331 175/288/328 247/300/214 257/299/213
f 178/287/329 176/278/335 251/296/210 258/295/209
f 177/128/337 181/139/336 249/292/206 248/291/205
f 190/301/215 193/298/212 270/315/233 259/320/238
f 188/306/220 198/302/216 269/319/237 262/328/246
f 195/313/227 189/310/224 264/333/251 266/336/254
f 192/294/208 196/293/207 261/327/245 260/324/242
f 197/308/222 194/314/228 268/335/253 267/331/249
f 194/314/228 195/313/227 266/336/254 268/335/253
f 189/310/224 187/304/218 265/323/241 264/333/251
f 191/297/211 197/308/222 267/331/249 263/316/234
f 196/293/207 188/306/220 262/328/246 261/327/245
f 187/304/218 192/294/208 260/324/242 265/323/241
f 198/302/216 190/301/215 259/320/238 269/319/237
f 193/298/212 191/297/211 263/316/234 270/315/233
