# Blender 5.0.1
# www.blender.org
mtllib wallextrude.mtl
o wallwithex
v 3.156889 3.061711 -0.307137
v 3.156889 -0.311835 -0.307137
v 3.156889 3.061711 0.307137
v 3.156889 -0.311835 0.307137
v -3.156889 3.061711 -0.307137
v -3.156889 -0.311835 -0.307137
v -3.156889 3.061711 0.307137
v -3.156889 -0.311835 0.307137
v 0.000000 -0.311835 -0.307137
v 0.000000 3.061711 0.307137
v 0.000000 -0.311835 0.307137
v 0.000000 3.061711 -0.307137
v 3.156889 3.107595 -0.288381
v 3.156889 3.107595 0.288381
v -3.156889 3.107595 -0.288381
v -3.156889 3.107595 0.288381
v 0.000000 3.107595 0.288381
v 0.000000 3.107595 -0.288381
v 3.156889 16.906881 -0.288381
v 3.156889 16.906881 0.288381
v -3.156889 16.906881 -0.288381
v -3.156889 16.906881 0.288381
v 0.000000 16.906881 0.288381
v 0.000000 16.906881 -0.288381
vn -1.0000 -0.0000 -0.0000
vn -0.0000 -0.0000 1.0000
vn -0.0000 -1.0000 -0.0000
vn 1.0000 -0.0000 -0.0000
vn -0.0000 -0.0000 -1.0000
vn -0.0000 0.3784 0.9256
vn -0.0000 0.3784 -0.9256
vn -0.0000 1.0000 -0.0000
vt 0.432124 0.611597
vt 0.429918 0.624333
vt 0.429027 0.623775
vt 0.431116 0.611724
vt 0.517814 0.548014
vt 0.592783 0.549811
vt 0.590898 0.620186
vt 0.515670 0.618089
vt 0.500879 0.630577
vt 0.502016 0.617656
vt 0.504195 0.547706
vt 0.505279 0.477468
vt 0.518984 0.477699
vt 0.432042 0.479893
vt 0.430022 0.466589
vt 0.504725 0.463139
vt 0.430259 0.547173
vt 0.594404 0.479297
vt 0.595511 0.479323
vt 0.593889 0.549839
vt 0.583580 0.656698
vt 0.599774 0.657153
vt 0.589442 0.953055
vt 0.578164 0.944603
vt 0.498213 0.148347
vt 0.567399 0.148347
vt 0.567399 0.450771
vt 0.498213 0.450771
vt 0.430997 0.479752
vt 0.429027 0.467184
vt 0.429189 0.547175
vt 0.592003 0.620215
vt 0.520092 0.960079
vt 0.520841 0.975385
vt 0.455953 0.943194
vt 0.444738 0.953933
vt 0.429027 0.148347
vt 0.429027 0.450771
vt 0.510600 0.656698
vt 0.420638 0.662413
vt 0.408516 0.663926
s 0
usemtl Material.003
f 5/1/1 7/2/1 16/3/1 15/4/1
f 11/5/2 10/6/2 7/7/2 8/8/2
f 8/9/1 7/2/1 5/1/1 6/10/1
f 9/11/3 2/12/3 4/13/3 11/5/3
f 2/12/4 1/14/4 3/15/4 4/16/4
f 9/11/5 12/17/5 1/14/5 2/12/5
f 6/10/5 5/1/5 12/17/5 9/11/5
f 6/10/3 9/11/3 11/5/3 8/8/3
f 4/13/2 3/18/2 10/6/2 11/5/2
f 10/6/6 3/18/6 14/19/6 17/20/6
f 15/21/1 16/22/1 22/23/1 21/24/1
f 17/25/2 14/26/2 20/27/2 23/28/2
f 3/15/4 1/14/4 13/29/4 14/30/4
f 1/14/7 12/17/7 18/31/7 13/29/7
f 7/7/6 10/6/6 17/20/6 16/32/6
f 12/17/7 5/1/7 15/4/7 18/31/7
f 24/33/8 21/24/8 22/23/8 23/34/8
f 19/35/8 24/33/8 23/34/8 20/36/8
f 16/37/2 17/25/2 23/28/2 22/38/2
f 18/39/5 15/21/5 21/24/5 24/33/5
f 13/40/5 18/39/5 24/33/5 19/35/5
f 14/41/4 13/40/4 19/35/4 20/36/4
