# Blender 5.0.1
# www.blender.org
mtllib wallmiddlewindow.mtl
o wall.001
v -3.122490 -0.284716 -4.667625
v -3.122490 16.909250 -4.667625
v -3.122490 -0.284716 -5.202166
v -3.122490 16.909250 -5.202166
v 3.122490 -0.284716 -4.667625
v 3.122490 16.909250 -4.667625
v 3.122490 -0.284716 -5.202166
v 3.122490 16.909250 -5.202166
v -3.122490 4.046395 -4.667625
v -3.122490 4.046395 -5.202166
v 3.122490 4.046395 -5.202166
v 3.122490 4.046395 -4.667625
v -3.122490 9.839152 -4.667625
v -3.122490 9.839152 -5.202166
v 3.122490 9.839152 -5.202166
v 3.122490 9.839152 -4.667625
v -3.122490 3.777645 -5.202166
v 3.122490 3.777645 -5.202166
v 3.122490 3.777645 -4.667625
v -3.122490 3.777645 -4.667625
v -3.122490 9.595170 -5.202166
v 3.122490 9.595170 -5.202166
v 3.122490 9.595170 -4.667625
v -3.122490 9.595170 -4.667625
v -3.122490 4.046395 -5.288649
v 3.122490 4.046395 -5.288649
v -3.122490 9.839152 -5.288649
v 3.122490 9.839152 -5.288649
v -3.122490 3.777645 -5.288649
v 3.122490 3.777645 -5.288649
v -3.122490 9.595170 -5.288649
v 3.122490 9.595170 -5.288649
vn -1.0000 -0.0000 -0.0000
vn -0.0000 -0.0000 -1.0000
vn 1.0000 -0.0000 -0.0000
vn -0.0000 -0.0000 1.0000
vn -0.0000 -1.0000 -0.0000
vn -0.0000 1.0000 -0.0000
vt 0.877932 0.632475
vt 0.845055 0.787086
vt 0.835842 0.775552
vt 0.866243 0.629990
vt 0.802288 0.772789
vt 0.806215 0.621313
vt 0.790523 0.787326
vt 0.790523 0.621041
vt 0.839597 0.814506
vt 0.839597 0.973960
vt 0.794490 0.973960
vt 0.794490 0.814506
vt 0.839752 0.487299
vt 0.794645 0.487299
vt 0.794645 0.475243
vt 0.839752 0.475243
vt 0.825800 0.246429
vt 0.822243 0.241215
vt 0.820928 0.184733
vt 0.824894 0.181428
vt 0.806298 0.244359
vt 0.809307 0.239612
vt 0.827257 0.352859
vt 0.818530 0.344851
vt 0.820288 0.343513
vt 0.825088 0.346953
vt 0.807943 0.182886
vt 0.806585 0.178266
vt 0.809419 0.346217
vt 0.802424 0.354082
vt 0.802424 0.298352
vt 0.808074 0.308657
vt 0.807626 0.180487
vt 0.805289 0.179658
vt 0.829641 0.303460
vt 0.820149 0.309896
vt 0.851807 0.487299
vt 0.851807 0.578918
vt 0.839752 0.578918
vt 0.794645 0.578918
vt 0.782589 0.578918
vt 0.782589 0.487299
vt 0.794645 0.383624
vt 0.839752 0.383624
vt 0.809385 0.240040
vt 0.808355 0.183128
vt 0.808627 0.181107
vt 0.809634 0.240306
vt 0.805289 0.242367
vt 0.822052 0.311223
vt 0.827447 0.309545
vt 0.809132 0.239772
s 0
usemtl Material.003
f 13/1/1 2/2/1 4/3/1 14/4/1
f 14/4/2 4/3/2 8/5/2 15/6/2
f 15/6/3 8/5/3 6/7/3 16/8/3
f 16/9/4 6/10/4 2/11/4 13/12/4
f 3/13/5 7/14/5 5/15/5 1/16/5
f 8/5/6 4/3/6 2/2/6 6/7/6
f 19/17/4 12/18/4 9/19/4 20/20/4
f 18/21/3 11/22/3 12/18/3 19/17/3
f 15/23/3 22/24/3 32/25/3 28/26/3
f 20/20/1 9/19/1 10/27/1 17/28/1
f 23/29/4 16/30/4 13/31/4 24/32/4
f 22/24/3 15/23/3 16/30/3 23/29/3
f 17/28/1 10/27/1 25/33/1 29/34/1
f 24/32/1 13/31/1 14/35/1 21/36/1
f 1/37/1 20/38/1 17/39/1 3/13/1
f 3/13/2 17/39/2 18/40/2 7/14/2
f 7/14/3 18/40/3 19/41/3 5/42/3
f 5/15/4 19/43/4 20/44/4 1/16/4
f 12/18/6 11/45/6 10/46/6 9/19/6
f 24/32/5 21/36/5 22/24/5 23/29/5
f 29/34/2 25/47/2 26/48/2 30/49/2
f 31/50/2 27/51/2 28/26/2 32/25/2
f 14/35/6 15/23/6 28/26/6 27/51/6
f 18/21/5 17/28/5 29/34/5 30/49/5
f 22/24/5 21/36/5 31/50/5 32/25/5
f 10/46/6 11/45/6 26/48/6 25/47/6
f 11/22/3 18/21/3 30/49/3 26/52/3
f 21/36/1 14/35/1 27/51/1 31/50/1
