# Blender 5.0.1
# www.blender.org
mtllib wallrightwindow.mtl
o wall.002
v 3.294475 -0.284716 -4.667625
v 3.294475 16.909250 -4.667625
v 3.294475 -0.284716 -5.202166
v 3.294475 16.909250 -5.202166
v 9.539455 -0.284716 -4.667625
v 9.539455 16.909250 -4.667625
v 9.539455 -0.284716 -5.202166
v 9.539455 16.909250 -5.202166
v 3.294475 4.046395 -4.667625
v 3.294475 4.046395 -5.202166
v 3.294475 9.839152 -4.667625
v 3.294475 9.839152 -5.202166
v 3.294475 3.777645 -5.202166
v 3.294475 3.777645 -4.667625
v 3.294475 9.595170 -5.202166
v 3.294475 9.595170 -4.667625
v 4.230250 4.046395 -4.667625
v 4.230250 4.046395 -5.202166
v 4.230250 9.839152 -4.667625
v 4.230250 9.839152 -5.202166
v 4.230250 3.777645 -5.202166
v 4.230250 3.777645 -4.667625
v 4.230250 9.595170 -5.202166
v 4.230250 9.595170 -4.667625
v 3.948635 4.046395 -4.667625
v 3.948635 9.839152 -4.667625
v 3.948635 3.777645 -4.667625
v 3.948635 9.595170 -4.667625
v 3.948635 4.046395 -5.202166
v 3.948635 9.839152 -5.202166
v 3.948635 3.777645 -5.202166
v 3.948635 9.595170 -5.202166
v 3.294475 4.046395 -5.288649
v 3.294475 3.777645 -5.288649
v 3.294475 9.839152 -5.288649
v 3.294475 9.595170 -5.288649
v 3.948635 4.046395 -5.288649
v 4.230250 4.046395 -5.288649
v 3.948635 9.839152 -5.288649
v 4.230250 9.839152 -5.288649
v 3.948635 3.777645 -5.288649
v 4.230250 3.777645 -5.288649
v 3.948635 9.595170 -5.288649
v 4.230250 9.595170 -5.288649
vn -1.0000 -0.0000 -0.0000
vn -0.0000 -0.0000 1.0000
vn 1.0000 -0.0000 -0.0000
vn -0.0000 1.0000 -0.0000
vn -0.0000 -0.0000 -1.0000
vn -0.0000 -1.0000 -0.0000
vt 0.908715 0.365273
vt 0.928122 0.250024
vt 0.935211 0.259187
vt 0.917429 0.366740
vt 0.960587 0.602410
vt 0.960587 0.981723
vt 0.916465 0.981723
vt 0.916465 0.825751
vt 0.921087 0.825751
vt 0.923077 0.825751
vt 0.923077 0.820369
vt 0.923077 0.697958
vt 0.923077 0.692030
vt 0.921087 0.692030
vt 0.916465 0.692030
vt 0.916465 0.602411
vt 0.961357 0.090062
vt 0.961357 0.095585
vt 0.957051 0.095585
vt 0.957051 0.090062
vt 0.949645 0.089485
vt 0.950625 0.094463
vt 0.941421 0.095341
vt 0.939744 0.091433
vt 0.952476 0.226414
vt 0.951782 0.230849
vt 0.947973 0.230253
vt 0.948668 0.225817
vt 0.938465 0.228273
vt 0.939799 0.225245
vt 0.904673 0.590618
vt 0.904673 0.500999
vt 0.916465 0.500999
vt 0.916465 0.590618
vt 0.960195 0.263058
vt 0.970661 0.252143
vt 0.971109 0.590604
vt 0.960587 0.590618
vt 0.937715 0.226985
vt 0.938827 0.225316
vt 0.932916 0.226755
vt 0.932916 0.221680
vt 0.934934 0.221772
vt 0.934251 0.225740
vt 0.934670 0.227959
vt 0.935451 0.226435
vt 0.923077 0.495071
vt 0.923077 0.372660
vt 0.923565 0.367706
vt 0.921724 0.367428
vt 0.921087 0.500999
vt 0.923077 0.500999
vt 0.934358 0.093990
vt 0.935676 0.092506
vt 0.936590 0.093868
vt 0.935714 0.094472
vt 0.934771 0.098702
vt 0.936469 0.098621
vt 0.951030 0.098627
vt 0.949009 0.221805
vt 0.938593 0.221720
vt 0.940387 0.098867
vt 0.963210 0.095585
vt 0.963210 0.209620
vt 0.961357 0.209620
vt 0.963210 0.214635
vt 0.961357 0.214635
vt 0.963210 0.090062
vt 0.938446 0.098346
vt 0.936836 0.222055
vt 0.939257 0.093034
vt 0.940156 0.095429
s 0
usemtl Material.003
f 11/1/1 2/2/1 4/3/1 12/4/1
f 5/5/2 6/6/2 2/7/2 11/8/2 26/9/2 19/10/2 24/11/2 17/12/2 22/13/2 27/14/2 14/15/2 1/16/2
f 27/17/2 25/18/2 9/19/2 14/20/2
f 14/21/1 9/22/1 10/23/1 13/24/1
f 28/25/2 26/26/2 11/27/2 16/28/2
f 16/28/1 11/27/1 12/29/1 15/30/1
f 1/31/1 14/32/1 13/33/1 3/34/1
f 8/35/3 6/36/3 5/37/3 7/38/3
f 8/35/4 4/3/4 2/2/4 6/36/4
f 15/30/1 12/29/1 35/39/1 36/40/1
f 20/41/3 23/42/3 44/43/3 40/44/3
f 12/29/4 30/45/4 39/46/4 35/39/4
f 18/47/5 23/48/5 20/49/5 30/50/5 12/4/5 4/3/5 8/35/5 7/38/5 3/34/5 13/33/5 31/51/5 21/52/5
f 21/53/6 31/54/6 41/55/6 42/56/6
f 23/42/3 18/57/3 38/58/3 44/43/3
f 25/59/1 28/60/1 32/61/1 29/62/1
f 17/63/2 24/64/2 28/65/2 25/18/2
f 24/64/2 19/66/2 26/67/2 28/65/2
f 22/68/2 17/63/2 25/18/2 27/17/2
f 3/34/6 7/38/6 5/5/6 1/16/6
f 29/62/4 10/23/4 9/22/4 25/59/4
f 32/61/6 28/60/6 16/28/6 15/30/6
f 37/69/5 43/70/5 44/43/5 38/58/5
f 43/70/5 39/46/5 40/44/5 44/43/5
f 41/55/5 37/69/5 38/58/5 42/56/5
f 34/71/5 33/72/5 37/69/5 41/55/5
f 36/40/5 35/39/5 39/46/5 43/70/5
f 31/54/6 13/24/6 34/71/6 41/55/6
f 29/62/1 32/61/1 43/70/1 37/69/1
f 13/24/1 10/23/1 33/72/1 34/71/1
f 32/61/6 15/30/6 36/40/6 43/70/6
f 30/45/4 20/41/4 40/44/4 39/46/4
f 10/23/4 29/62/4 37/69/4 33/72/4
f 18/57/3 21/53/3 42/56/3 38/58/3
