# Blender 5.0.1
# www.blender.org
mtllib wallleftwindow.mtl
o wall.003
v -3.340526 -0.284716 -5.194390
v -3.340526 16.909250 -5.194390
v -3.340526 -0.284716 -4.659850
v -3.340526 16.909250 -4.659850
v -9.585506 -0.284716 -5.194391
v -9.585506 16.909250 -5.194391
v -9.585506 -0.284716 -4.659851
v -9.585506 16.909250 -4.659851
v -3.340526 4.046395 -5.194390
v -3.340526 4.046395 -4.659850
v -3.340526 9.839152 -5.194390
v -3.340526 9.839152 -4.659850
v -3.340526 3.777645 -4.659850
v -3.340526 3.777645 -5.194390
v -3.340526 9.595170 -4.659850
v -3.340526 9.595170 -5.194390
v -4.276301 4.046395 -5.194390
v -4.276301 4.046395 -4.659850
v -4.276301 9.839152 -5.194390
v -4.276301 9.839152 -4.659850
v -4.276301 3.777645 -4.659850
v -4.276301 3.777645 -5.194390
v -4.276301 9.595170 -4.659850
v -4.276301 9.595170 -5.194390
v -3.994686 4.046395 -5.194390
v -3.994686 9.839152 -5.194390
v -3.994686 3.777645 -5.194390
v -3.994686 9.595170 -5.194390
v -3.994686 4.046395 -4.659850
v -3.994686 9.839152 -4.659850
v -3.994686 3.777645 -4.659850
v -3.994686 9.595170 -4.659850
v -3.340526 3.777645 -5.280873
v -3.340526 4.046395 -5.280873
v -3.994686 4.046395 -5.280873
v -3.340526 9.595170 -5.280873
v -3.340526 9.839152 -5.280873
v -3.994686 9.839152 -5.280873
v -3.994686 3.777645 -5.280873
v -3.994686 9.595170 -5.280873
v -4.276301 9.595170 -5.280873
v -4.276301 4.046395 -5.280873
v -4.276301 9.839152 -5.280873
v -4.276301 3.777645 -5.280873
v -3.340526 9.839152 -4.746332
v -3.994686 9.839152 -4.746332
vn 1.0000 -0.0000 -0.0000
vn -0.0000 -0.0000 -1.0000
vn -0.0000 1.0000 -0.0000
vn -0.0000 -1.0000 -0.0000
vn -1.0000 -0.0000 -0.0000
vn -0.0000 -0.0000 1.0000
vt 0.690936 0.193212
vt 0.666336 0.046459
vt 0.675073 0.029889
vt 0.706109 0.190562
vt 0.634873 0.482225
vt 0.632250 0.049979
vt 0.685072 0.194145
vt 0.682559 0.194530
vt 0.683213 0.201335
vt 0.683213 0.359090
vt 0.683213 0.366730
vt 0.685778 0.366730
vt 0.691734 0.366730
vt 0.691734 0.482225
vt 0.764396 0.243513
vt 0.754288 0.244528
vt 0.755661 0.241974
vt 0.763371 0.240333
vt 0.754736 0.044516
vt 0.750161 0.054774
vt 0.730905 0.050169
vt 0.732928 0.036390
vt 0.764939 0.044108
vt 0.764914 0.048104
vt 0.756383 0.046956
vt 0.749854 0.235792
vt 0.732808 0.252983
vt 0.730890 0.240429
vt 0.706931 0.366730
vt 0.706931 0.482225
vt 0.619872 0.039846
vt 0.616793 0.482182
vt 0.722403 0.049449
vt 0.722443 0.241149
vt 0.718756 0.241174
vt 0.718692 0.049412
vt 0.722555 0.252873
vt 0.718293 0.252702
vt 0.722608 0.036422
vt 0.718293 0.036556
vt 0.683213 0.620558
vt 0.683369 0.775955
vt 0.683214 0.785249
vt 0.685778 0.785249
vt 0.691734 0.785249
vt 0.691734 0.986255
vt 0.634873 0.986255
vt 0.634873 0.497422
vt 0.691734 0.497422
vt 0.691734 0.612917
vt 0.685778 0.612917
vt 0.683213 0.612917
vt 0.762025 0.228210
vt 0.762839 0.062657
vt 0.763677 0.060214
vt 0.762675 0.230657
vt 0.752535 0.232888
vt 0.772480 0.049312
vt 0.770308 0.060593
vt 0.767121 0.060321
vt 0.768850 0.048613
vt 0.757932 0.226447
vt 0.756491 0.226215
vt 0.752627 0.229094
vt 0.757199 0.064598
vt 0.758593 0.064357
vt 0.753247 0.061604
vt 0.753061 0.057729
vt 0.765880 0.230927
vt 0.765768 0.239603
vt 0.768892 0.231176
vt 0.749066 0.083202
vt 0.749066 0.088865
vt 0.746728 0.088865
vt 0.746728 0.083202
vt 0.767917 0.240904
vt 0.769227 0.044501
s 0
usemtl Material.003
f 11/1/1 2/2/1 4/3/1 12/4/1
f 5/5/2 6/6/2 2/2/2 11/1/2 26/7/2 19/8/2 24/9/2 17/10/2 22/11/2 27/12/2 14/13/2 1/14/2
f 26/15/3 11/16/3 37/17/3 38/18/3
f 14/19/1 9/20/1 10/21/1 13/22/1
f 14/19/4 27/23/4 39/24/4 33/25/4
f 16/26/1 11/16/1 12/27/1 15/28/1
f 1/14/1 14/13/1 13/29/1 3/30/1
f 8/31/5 6/6/5 5/5/5 7/32/5
f 8/31/3 4/3/3 2/2/3 6/6/3
f 29/33/6 32/34/6 23/35/6 18/36/6
f 32/34/6 30/37/6 20/38/6 23/35/6
f 31/39/6 29/33/6 18/36/6 21/40/6
f 18/41/6 23/42/6 20/43/6 30/44/6 12/45/6 4/46/6 8/47/6 7/48/6 3/49/6 13/50/6 31/51/6 21/52/6
f 13/22/6 10/21/6 29/33/6 31/39/6
f 15/28/6 12/27/6 30/37/6 32/34/6
f 28/53/1 25/54/1 35/55/1 40/56/1
f 11/16/1 16/26/1 36/57/1 37/17/1
f 22/58/5 17/59/5 42/60/5 44/61/5
f 3/49/4 7/48/4 5/5/4 1/14/4
f 15/62/4 32/63/4 28/53/4 16/64/4
f 29/65/1 25/54/1 28/53/1 32/63/1
f 25/54/3 29/65/3 10/66/3 9/67/3
f 39/24/2 35/55/2 34/68/2 33/25/2
f 40/56/2 38/18/2 37/17/2 36/57/2
f 42/60/2 41/69/2 40/56/2 35/55/2
f 41/69/2 43/70/2 38/18/2 40/56/2
f 44/61/2 42/60/2 35/55/2 39/24/2
f 17/59/5 24/71/5 41/69/5 42/60/5
f 30/72/3 12/73/3 45/74/3 46/75/3
f 19/76/3 26/15/3 38/18/3 43/70/3
f 9/20/1 14/19/1 33/25/1 34/68/1
f 16/64/4 28/53/4 40/56/4 36/57/4
f 27/23/4 22/77/4 44/61/4 39/24/4
f 24/71/5 19/76/5 43/70/5 41/69/5
f 25/54/3 9/67/3 34/68/3 35/55/3
