# Blender 5.0.1
# www.blender.org
mtllib walls.mtl
o wall
v -3.122490 -0.284716 5.285729
v -3.122490 16.909250 5.285729
v -3.122490 -0.284716 4.751189
v -3.122490 16.909250 4.751189
v 3.122490 -0.284716 5.285729
v 3.122490 16.909250 5.285729
v 3.122490 -0.284716 4.751189
v 3.122490 16.909250 4.751189
vn -1.0000 -0.0000 -0.0000
vn -0.0000 -0.0000 -1.0000
vn 1.0000 -0.0000 -0.0000
vn -0.0000 -0.0000 1.0000
vn -0.0000 -1.0000 -0.0000
vn -0.0000 1.0000 -0.0000
vt 0.372217 0.581752
vt 0.354589 0.970146
vt 0.343250 0.958178
vt 0.360143 0.581204
vt 0.305181 0.957316
vt 0.299446 0.579842
vt 0.293322 0.974335
vt 0.283622 0.580124
vt 0.299810 0.563620
vt 0.311520 0.041810
vt 0.372217 0.043172
vt 0.360507 0.564982
s 0
usemtl Material.003
f 1/1/1 2/2/1 4/3/1 3/4/1
f 3/4/2 4/3/2 8/5/2 7/6/2
f 7/6/3 8/5/3 6/7/3 5/8/3
f 5/9/4 6/10/4 2/11/4 1/12/4
f 3/4/5 7/6/5 5/9/5 1/12/5
f 8/5/6 4/3/6 2/2/6 6/7/6
